<svg width="24" height="24" viewBox="0 0 24 24" fill="none" xmlns="http://www.w3.org/2000/svg">
<g clip-path="url(#clip0_7_580)">
<path d="M11.517 1.06003C5.19097 1.06003 0.0626831 6.18831 0.0626831 12.5144C0.0626831 13.1901 0.121685 13.8519 0.233891 14.4955L9.67589 23.8207C10.2754 23.9175 10.8902 23.9687 11.517 23.9687C17.843 23.9687 22.9713 18.8404 22.9713 12.5144C22.9713 6.18836 17.8431 1.06003 11.517 1.06003Z" fill="#746BF9"/>
<path d="M14.7853 5.56837C16.3143 5.56837 17.5538 4.32887 17.5538 2.79987C17.5538 1.27087 16.3143 0.0313721 14.7853 0.0313721C13.2563 0.0313721 12.0168 1.27087 12.0168 2.79987C12.0168 4.32887 13.2563 5.56837 14.7853 5.56837Z" fill="#42C3FC"/>
<path d="M15.9969 5.28954C15.977 5.27303 15.9546 5.25896 15.9287 5.24994C15.1999 4.99621 15.26 4.4227 15.3434 4.13554C15.371 4.04082 15.3351 3.94049 15.2549 3.88313C14.9693 3.6791 15.0594 3.36043 15.1214 3.21555C15.1438 3.16309 15.1464 3.10432 15.127 3.0507L14.6198 1.6484C14.5989 1.59057 14.5548 1.5447 14.4991 1.51857C13.8712 1.22398 13.9674 0.526199 14.0359 0.245122C14.0449 0.208328 14.0438 0.170646 14.0345 0.135254C12.8704 0.462615 12.0168 1.53119 12.0168 2.79987C12.0168 4.32886 13.2563 5.56837 14.7853 5.56837C15.2198 5.56837 15.6309 5.46799 15.9969 5.28954Z" fill="#1AA9E8"/>
<path d="M14.7853 1.54578C13.9633 1.54578 13.2462 1.99441 12.8653 2.66012C12.8157 2.74676 12.8157 2.85298 12.8653 2.93961C13.2462 3.60532 13.9634 4.05396 14.7853 4.05396C15.6072 4.05396 16.3244 3.60532 16.7053 2.93961C16.7549 2.85298 16.7549 2.74676 16.7053 2.66012C16.3244 1.99441 15.6072 1.54578 14.7853 1.54578Z" fill="#E9EFFF"/>
<path d="M15.2549 3.88318C14.9693 3.67915 15.0594 3.36048 15.1214 3.2156C15.1438 3.16314 15.1464 3.10437 15.1269 3.05075L14.6198 1.64845C14.6071 1.61325 14.585 1.58323 14.5578 1.55869C13.8324 1.63298 13.2106 2.05679 12.8653 2.66018C12.8157 2.74681 12.8157 2.85303 12.8653 2.93966C13.2462 3.60537 13.9633 4.05401 14.7853 4.05401C14.975 4.05401 15.1589 4.02909 15.3346 3.98411C15.3183 3.94465 15.2915 3.90931 15.2549 3.88318Z" fill="#BEC8F7"/>
<path d="M23.5736 7.34572C23.9253 5.858 23.0044 4.36689 21.5166 4.01522C20.0289 3.66355 18.5378 4.58449 18.1861 6.07221C17.8345 7.55993 18.7554 9.05105 20.2431 9.40272C21.7308 9.75439 23.222 8.83344 23.5736 7.34572Z" fill="#FF4155"/>
<path d="M21.7946 7.64549C21.7872 7.55348 21.7193 7.47896 21.63 7.45549C21.5548 7.43571 21.5055 7.38915 21.4805 7.3596C21.47 7.34707 21.4613 7.33333 21.4542 7.3186C21.4106 7.2293 21.1599 6.75687 20.5904 6.45097C20.1506 6.21482 20.1894 5.88437 20.2533 5.70568C20.2819 5.62583 20.2605 5.53723 20.1998 5.47805C19.6588 4.94993 19.9166 4.38324 20.0684 4.14518C20.0882 4.11409 20.0991 4.0793 20.102 4.0441C18.95 4.37917 18.1078 5.44195 18.1078 6.70203C18.1078 8.23102 19.3474 9.47053 20.8763 9.47053C21.7013 9.47053 22.4416 9.10927 22.9488 8.53678C21.9953 8.57755 21.8207 7.96804 21.7946 7.64549Z" fill="#E80054"/>
<path d="M22.3626 6.06431C22.1122 5.60576 21.5245 5.454 21.0687 5.70941L20.9573 5.77183C20.9071 5.80002 20.8458 5.80002 20.7955 5.77183L20.664 5.69814C20.2051 5.441 19.6245 5.61427 19.3815 6.08077H19.3815C19.1523 6.52094 19.3065 7.06561 19.7357 7.3148C20.0977 7.525 20.4408 7.78836 20.7292 8.10295C20.808 8.18893 20.9449 8.18893 21.0237 8.10291C21.312 7.78836 21.6551 7.52505 22.0171 7.3148C22.4516 7.06243 22.6044 6.50724 22.3626 6.06431Z" fill="#E9EFFF"/>
<path d="M19.7357 7.31477C20.0976 7.52497 20.4408 7.78832 20.7291 8.10292C20.8079 8.1889 20.9448 8.1889 21.0236 8.10287C21.2318 7.87575 21.4687 7.67579 21.7206 7.50281C21.6949 7.48088 21.6641 7.46447 21.63 7.45549C21.5548 7.43571 21.5055 7.38915 21.4805 7.3596C21.47 7.34707 21.4613 7.33333 21.4542 7.3186C21.4106 7.2293 21.1599 6.75687 20.5904 6.45097C20.1506 6.21482 20.1894 5.88437 20.2533 5.70568C20.268 5.66482 20.2693 5.62172 20.2592 5.58137C19.9059 5.56234 19.5563 5.745 19.3815 6.08069H19.3814C19.1522 6.52091 19.3065 7.06558 19.7357 7.31477Z" fill="#BEC8F7"/>
<path d="M23.185 15.771C24.266 14.69 24.266 12.9374 23.185 11.8564C22.104 10.7754 20.3514 10.7754 19.2704 11.8564C18.1894 12.9374 18.1894 14.69 19.2704 15.771C20.3514 16.8521 22.104 16.8521 23.185 15.771Z" fill="#FFB332"/>
<path d="M21.776 15.4467L21.113 12.4531C20.1373 12.0896 20.5303 11.1369 20.5316 11.1338C19.3415 11.4439 18.463 12.5257 18.463 13.8129C18.463 15.3419 19.7025 16.5814 21.2315 16.5814C21.5925 16.5814 21.937 16.5115 22.2532 16.3859C21.566 16.1562 21.776 15.4467 21.776 15.4467Z" fill="#FF9100"/>
<path d="M19.9878 12.4531H22.4751C22.6949 12.4531 22.8747 12.633 22.8747 12.8527V14.6204C22.8747 14.8402 22.6949 15.02 22.4751 15.02H22.1194C22.0797 15.02 22.0427 15.04 22.0209 15.0732L21.776 15.4467C21.7164 15.5375 21.5833 15.5375 21.5238 15.4467L21.2788 15.0732C21.2571 15.0401 21.2201 15.02 21.1804 15.02H19.9877C19.7679 15.02 19.5881 14.8402 19.5881 14.6204V12.8527C19.5882 12.6329 19.768 12.4531 19.9878 12.4531Z" fill="#E9EFFF"/>
<path d="M20.7134 14.6204V12.8527C20.7134 12.6329 20.8932 12.4531 21.113 12.4531H19.9878C19.768 12.4531 19.5881 12.633 19.5881 12.8527V14.6204C19.5881 14.8402 19.768 15.02 19.9878 15.02H21.113C20.8932 15.02 20.7134 14.8402 20.7134 14.6204Z" fill="#BEC8F7"/>
<path d="M14.0845 1.65926C13.9378 1.82458 13.8486 2.04202 13.8486 2.28041C13.8486 2.79768 14.268 3.21701 14.7852 3.21701C15.3025 3.21701 15.7218 2.79768 15.7218 2.28041C15.7218 2.04202 15.6326 1.82462 15.486 1.65931C15.2657 1.58576 15.0302 1.54584 14.7852 1.54584C14.5403 1.54579 14.3047 1.58572 14.0845 1.65926Z" fill="#47477F"/>
<path d="M6.92223 18.8054C6.68533 18.9421 6.38312 18.9041 6.18728 18.7128L6.14492 18.6714L5.21356 19.2091L7.063 21.1465C7.10372 21.1268 7.14421 21.1061 7.18404 21.0831C8.05658 20.5793 8.35552 19.4636 7.85176 18.5911C7.80431 18.5089 7.75138 18.4318 7.69378 18.36L6.92223 18.8054Z" fill="#D3DCFB"/>
<path d="M6.18728 18.7128L6.14492 18.6714L5.21356 19.2091L7.063 21.1465C7.10377 21.1268 7.14421 21.1061 7.18404 21.0831C7.48022 20.9121 7.7101 20.6704 7.86513 20.3918C6.57135 20.0715 6.92227 18.8054 6.92227 18.8054C6.68533 18.9422 6.38312 18.9041 6.18728 18.7128Z" fill="#BEC8F7"/>
<path d="M5.2647 19.1495L3.17084 20.3584C4.87473 22.1706 7.16187 23.4279 9.73279 23.8301L5.2647 19.1495Z" fill="#E9EFFF"/>
<path d="M7.13587 21.1096L5.2647 19.1494L3.17084 20.3583C3.90083 21.1347 4.73812 21.8088 5.65863 22.3579C5.60847 20.9292 7.13587 21.1096 7.13587 21.1096Z" fill="#D3DCFB"/>
<path d="M1.95318 13.562L1.31314 12.4534C1.11883 12.1168 0.688521 12.0015 0.35195 12.1958C0.0153782 12.3901 -0.0999136 12.8204 0.09439 13.157L0.734432 14.2656L1.95318 13.562Z" fill="#E9EFFF"/>
<path d="M1.37809 12.5659C1.38056 12.5914 1.38197 12.6171 1.38197 12.6432C1.38197 13.0743 1.03244 13.4238 0.601292 13.4238C0.443923 13.4238 0.297681 13.3768 0.175049 13.2968L0.734396 14.2656L1.95314 13.562L1.37809 12.5659Z" fill="#D3DCFB"/>
<path d="M3.24432 20.4363L6.26463 18.6925C6.22041 18.6493 6.18081 18.5999 6.14836 18.5437L2.98377 13.0626C2.95133 13.0064 2.92832 12.9474 2.91304 12.8874L0.22467 14.4396C0.615054 16.7461 1.69438 18.8182 3.24432 20.4363Z" fill="#FF7186"/>
<path d="M4.41398 15.8442L4.41627 15.5436L2.98382 13.0626C2.95137 13.0064 2.92837 12.9474 2.91308 12.8874L0.22467 14.4396C0.413223 15.5535 0.762932 16.6126 1.24827 17.5925C1.31176 16.9908 1.71411 16.795 1.71411 16.795C1.71411 16.795 2.53228 16.3158 3.24465 15.9238C3.95697 15.5319 4.41398 15.8442 4.41398 15.8442Z" fill="#FF4155"/>
<path d="M9.73469 16.9507C11.8656 16.101 14.1509 15.9785 16.2771 16.4976L9.81996 5.31363C9.20643 7.41445 7.95772 9.33238 6.15643 10.753C6.28907 10.8097 6.40544 10.9076 6.48314 11.0421L9.64763 16.5232C9.72529 16.6578 9.75184 16.8074 9.73469 16.9507Z" fill="#D3DCFB"/>
<path d="M12.0783 9.22527L9.8199 5.31363C9.20641 7.41445 7.95765 9.33238 6.15637 10.753C6.28901 10.8097 6.40538 10.9076 6.48308 11.0421L8.02418 13.7114C9.82804 12.4063 11.2182 10.8345 12.0783 9.22527Z" fill="#BEC8F7"/>
<path d="M9.48471 17.416L6.96128 18.8729C6.63042 19.0639 6.2074 18.9505 6.01637 18.6197L2.85183 13.1386C2.6608 12.8077 2.77417 12.3847 3.10504 12.1937L5.62846 10.7368C5.95933 10.5457 6.38239 10.6591 6.57338 10.9899L9.73787 16.471C9.9289 16.8019 9.81553 17.225 9.48471 17.416Z" fill="#FF4155"/>
<path d="M6.57336 10.99C6.38233 10.6591 5.95931 10.5458 5.62844 10.7368L3.10502 12.1937C2.77415 12.3848 2.66082 12.8078 2.85181 13.1386L4.4139 15.8443C4.59226 15.0559 5.24638 15.4102 5.24638 15.4102L7.34323 14.1996C7.4401 13.4416 8.10885 13.6497 8.10885 13.6497L6.57336 10.99Z" fill="#E80054"/>
<path d="M4.25825 13.3474C4.13706 13.3474 4.0192 13.2846 3.95426 13.1721C3.85744 13.0044 3.9149 12.7899 4.0826 12.6931L5.57213 11.8331C5.73983 11.7363 5.95429 11.7938 6.05111 11.9615C6.14794 12.1292 6.09048 12.3436 5.92278 12.4404L4.43324 13.3004C4.37803 13.3323 4.31772 13.3474 4.25825 13.3474Z" fill="#FF7186"/>
<path d="M4.90436 14.4665C4.78318 14.4665 4.66532 14.4036 4.60038 14.2911C4.50356 14.1234 4.56101 13.909 4.72872 13.8121L6.21825 12.9522C6.38595 12.8553 6.60041 12.9128 6.69723 13.0805C6.79406 13.2482 6.7366 13.4627 6.5689 13.5595L5.07936 14.4195C5.02414 14.4513 4.96383 14.4665 4.90436 14.4665Z" fill="#FF7186"/>
<path d="M5.55042 15.5855C5.42924 15.5855 5.31138 15.5226 5.24644 15.4101C5.14961 15.2424 5.20707 15.028 5.37477 14.9312L6.86431 14.0712C7.03201 13.9743 7.24646 14.0318 7.34329 14.1995C7.44011 14.3672 7.38265 14.5817 7.21495 14.6785L5.72542 15.5385C5.6702 15.5704 5.60989 15.5855 5.55042 15.5855Z" fill="#FF7186"/>
<path d="M6.19648 16.7046C6.0753 16.7046 5.95743 16.6417 5.89249 16.5292C5.79567 16.3615 5.85313 16.147 6.02083 16.0502L7.51037 15.1902C7.67807 15.0934 7.89252 15.1509 7.98935 15.3186C8.08617 15.4863 8.02871 15.7007 7.86101 15.7976L6.37147 16.6575C6.31626 16.6894 6.25595 16.7046 6.19648 16.7046Z" fill="#FF7186"/>
<path d="M6.84254 17.8236C6.72135 17.8236 6.60349 17.7607 6.53855 17.6482C6.44173 17.4805 6.49919 17.2661 6.66689 17.1692L8.15642 16.3093C8.32412 16.2124 8.53858 16.2699 8.6354 16.4376C8.73223 16.6053 8.67477 16.8198 8.50707 16.9166L7.01753 17.7765C6.96232 17.8084 6.90201 17.8236 6.84254 17.8236Z" fill="#FF7186"/>
<path d="M17.1808 16.8427C16.8442 17.037 16.4139 16.9217 16.2196 16.5851L9.71535 5.31955C9.52105 4.98298 9.63639 4.55267 9.97291 4.35837C10.3094 4.16406 10.7398 4.27936 10.9341 4.61593L17.4383 15.8815C17.6326 16.2181 17.5173 16.6484 17.1808 16.8427Z" fill="#E9EFFF"/>
<path d="M12.4288 8.55608C12.671 8.41624 12.9545 8.41367 13.1902 8.5234L10.9342 4.61587C10.7399 4.27929 10.3095 4.164 9.97297 4.35831C9.63645 4.55261 9.52111 4.98292 9.71541 5.31949L12.0174 9.30664C12.0047 9.0093 12.1532 8.71522 12.4288 8.55608Z" fill="#D3DCFB"/>
<path d="M19.782 20.4443C19.0547 19.3286 17.7821 18.0443 16.2486 18.2269C13.6258 18.5391 7.12693 18.8857 12.0548 23.9557C15.088 23.8155 17.8131 22.4957 19.782 20.4443Z" fill="#827DF9"/>
<path d="M0.947754 8.09263C1.81801 13.0562 8.08448 5.13516 8.41671 3.37885C8.56571 2.59116 8.18168 2.06174 7.69546 1.7139C4.64658 2.79271 2.19062 5.12534 0.947754 8.09263Z" fill="#827DF9"/>
<path d="M15.059 2.48294C15.2478 2.48294 15.4009 2.32986 15.4009 2.14103C15.4009 1.95221 15.2478 1.79913 15.059 1.79913C14.8702 1.79913 14.7171 1.95221 14.7171 2.14103C14.7171 2.32986 14.8702 2.48294 15.059 2.48294Z" fill="#5F5F9B"/>
</g>
<defs>
<clipPath id="clip0_7_580">
<rect width="24" height="24" fill="white"/>
</clipPath>
</defs>
</svg>
