<svg width="24" height="24" viewBox="0 0 24 24" fill="none" xmlns="http://www.w3.org/2000/svg">
<g clip-path="url(#clip0_7_682)">
<path d="M6.71555 13.1018V12.5391C6.71555 10.975 5.44758 9.70703 3.88345 9.70703H2.83209C1.26797 9.70698 0 10.975 0 12.5391V13.1018C0 13.4246 0.26175 13.6864 0.584625 13.6864H6.13088C6.4538 13.6864 6.71555 13.4246 6.71555 13.1018Z" fill="#5169CD"/>
<path d="M6.7158 12.539V13.1017C6.7158 13.4245 6.45386 13.6863 6.13117 13.6863H4.31233C4.63563 13.6863 4.89696 13.4244 4.89696 13.1017V12.539C4.89696 11.1049 3.83172 9.91984 2.44849 9.73277C2.5736 9.7158 2.70166 9.70703 2.83202 9.70703H3.88319C5.44774 9.70703 6.7158 10.9751 6.7158 12.539Z" fill="#3351C5"/>
<path d="M3.35781 10.2462C2.45041 10.2462 1.71484 9.51062 1.71484 8.60321V7.35226C1.71484 6.44485 2.45041 5.70929 3.35781 5.70929C4.26522 5.70929 5.00078 6.44485 5.00078 7.35226V8.60321C5.00078 9.51057 4.26517 10.2462 3.35781 10.2462Z" fill="#FFC4AF"/>
<path d="M4.34728 7.37566H1.71478V6.44585C1.71478 5.79607 2.24156 5.26929 2.89135 5.26929H5.23322C5.39372 5.26929 5.52385 5.39941 5.52385 5.55991V6.19915C5.52385 6.84888 4.99706 7.37566 4.34728 7.37566Z" fill="#FEE265"/>
<path d="M5.52363 5.56005V6.19928C5.52363 6.84897 4.99713 7.37547 4.34744 7.37547H3.02252C3.67221 7.37547 4.19871 6.84897 4.19871 6.19928V5.56005C4.19871 5.39908 4.06854 5.26947 3.90813 5.26947H5.23305C5.39402 5.26952 5.52363 5.39908 5.52363 5.56005Z" fill="#FDD330"/>
<path d="M22.1991 13.1018V12.5391C22.1991 10.975 20.9311 9.70703 19.367 9.70703H18.3157C16.7516 9.70703 15.4836 10.975 15.4836 12.5391V13.1018C15.4836 13.4246 15.7453 13.6864 16.0682 13.6864H21.6145C21.9373 13.6864 22.1991 13.4246 22.1991 13.1018Z" fill="#5169CD"/>
<path d="M22.1991 12.539V13.1017C22.1991 13.4245 21.9371 13.6863 21.6145 13.6863H19.7962C20.119 13.6863 20.3808 13.4244 20.3808 13.1017V12.539C20.3808 11.1049 19.315 9.91984 17.9324 9.73277C18.0575 9.7158 18.1855 9.70703 18.3159 9.70703H19.3671C20.931 9.70703 22.1991 10.9751 22.1991 12.539Z" fill="#3351C5"/>
<path d="M18.8413 10.2462C17.9339 10.2462 17.1984 9.51062 17.1984 8.60321V7.35226C17.1984 6.44485 17.934 5.70929 18.8413 5.70929C19.7487 5.70929 20.4843 6.44485 20.4843 7.35226V8.60321C20.4843 9.51057 19.7487 10.2462 18.8413 10.2462Z" fill="#FFC4AF"/>
<path d="M19.8308 7.37566H17.1983V6.44585C17.1983 5.79607 17.7251 5.26929 18.3749 5.26929H20.7167C20.8772 5.26929 21.0074 5.39941 21.0074 5.55991V6.19915C21.0074 6.84888 20.4806 7.37566 19.8308 7.37566Z" fill="#FEE265"/>
<path d="M21.0074 5.56005V6.19928C21.0074 6.84897 20.4809 7.37547 19.8307 7.37547H18.5057C19.1554 7.37547 19.6825 6.84897 19.6825 6.19928V5.56005C19.6825 5.39908 19.5523 5.26947 19.3919 5.26947H20.7168C20.8772 5.26952 21.0074 5.39908 21.0074 5.56005Z" fill="#FDD330"/>
<path d="M16.1277 15.0491L17.3641 13.8127L19.2351 15.6836L17.9986 16.9201L16.1277 15.0491Z" fill="#557983"/>
<path d="M18.4729 14.9179C18.3495 15.181 18.1794 15.4271 17.9625 15.6441C17.748 15.858 17.5036 16.0299 17.2376 16.1556L16.1309 15.0489L17.3674 13.8124L18.4729 14.9179Z" fill="#3F5959"/>
<path d="M23.5446 21.2258C22.9374 21.8329 21.953 21.8329 21.3458 21.2258L17.7728 17.6527C17.5721 17.452 17.5721 17.1266 17.7728 16.9259L19.2448 15.4539C19.4454 15.2532 19.7708 15.2532 19.9715 15.4539L23.5446 19.027C24.1518 19.6342 24.1518 20.6186 23.5446 21.2258Z" fill="#FEE265"/>
<path d="M23.5449 21.2256C23.3361 21.4343 23.083 21.5711 22.8158 21.6366C22.9409 21.1262 22.8035 20.565 22.4054 20.1662L18.832 16.5935C18.6315 16.3929 18.3059 16.3929 18.1053 16.5935L19.2448 15.454C19.4454 15.2535 19.771 15.2535 19.9715 15.454L23.5449 19.0268C24.1518 19.6342 24.1518 20.6188 23.5449 21.2256Z" fill="#FDD330"/>
<path d="M17.1358 14.817C16.5809 15.3719 15.6811 15.3719 15.1261 14.817L14.1213 13.8121L16.1309 11.8024L17.1358 12.8073C17.6908 13.3622 17.6908 14.262 17.1358 14.817Z" fill="#FEE265"/>
<path d="M17.3675 13.1114C16.8437 13.8673 16.1865 14.5244 15.4306 15.0483C15.3213 14.9869 15.2189 14.9097 15.126 14.8168L14.121 13.8124L16.131 11.8024L17.136 12.8074C17.2289 12.9003 17.3061 13.0026 17.3675 13.1114Z" fill="#FDD330"/>
<path d="M11.0953 15.2342C14.6618 15.2342 17.5529 12.3431 17.5529 8.77665C17.5529 5.21022 14.6618 2.31906 11.0953 2.31906C7.52892 2.31906 4.63776 5.21022 4.63776 8.77665C4.63776 12.3431 7.52892 15.2342 11.0953 15.2342Z" fill="#A9D3D8"/>
<path d="M17.5529 8.77682C17.5529 12.3432 14.6618 15.2342 11.0954 15.2342C10.7347 15.2342 10.3804 15.2044 10.0361 15.1477C13.0984 14.642 15.4341 11.9825 15.4341 8.77682C15.4341 5.57061 13.0985 2.91111 10.0361 2.40538C10.3804 2.34866 10.7347 2.31885 11.0954 2.31885C14.6618 2.31885 17.5529 5.20986 17.5529 8.77682Z" fill="#90BAC4"/>
<path d="M15.6116 8.77663C15.6116 10.3074 14.8563 11.6615 13.6983 12.4877V11.321C13.6983 10.1587 12.7528 9.21317 11.5905 9.21317H10.5397C9.37737 9.21317 8.43185 10.1587 8.43185 11.321V12.4993C7.26471 11.6745 6.5022 10.3147 6.5022 8.77663C6.5022 6.26122 8.54098 4.22192 11.0569 4.22192C13.5723 4.22197 15.6116 6.26122 15.6116 8.77663Z" fill="#EEF4F5"/>
<path d="M15.6111 8.77663C15.6111 10.3074 14.8559 11.6615 13.6983 12.4877V11.321C13.6983 10.9356 13.5945 10.5744 13.4134 10.2639C13.5747 9.79794 13.6621 9.29764 13.6621 8.77658C13.6621 6.59535 12.1289 4.77238 10.0824 4.32622C10.3963 4.25811 10.7222 4.22192 11.0569 4.22192C13.5718 4.22197 15.6111 6.26122 15.6111 8.77663Z" fill="#CBE5E7"/>
<path d="M14.4227 11.321V11.8443C13.5902 12.7581 12.3905 13.331 11.0569 13.331C9.73214 13.331 8.53946 12.7657 7.70752 11.8624V11.321C7.70752 9.75711 8.97563 8.48904 10.5395 8.48904H11.5907C13.1547 8.489 14.4227 9.75711 14.4227 11.321Z" fill="#FB6A3B"/>
<path d="M14.4227 11.321V11.8443C13.9293 12.3857 13.3072 12.8072 12.6045 13.061V11.321C12.6045 9.88751 11.5387 8.70186 10.156 8.51534C10.2811 8.49781 10.4097 8.48904 10.5395 8.48904H11.5907C13.1546 8.489 14.4227 9.75711 14.4227 11.321Z" fill="#FB5532"/>
<path d="M11.0652 9.02813C10.1578 9.02813 9.42224 8.29252 9.42224 7.38516V6.13421C9.42224 5.2268 10.1578 4.49124 11.0652 4.49124C11.9726 4.49124 12.7082 5.2268 12.7082 6.13421V7.38516C12.7082 8.29257 11.9726 9.02813 11.0652 9.02813Z" fill="#FFDBCE"/>
<path d="M12.0547 6.15761H9.42218V5.2278C9.42218 4.57802 9.94896 4.05124 10.5987 4.05124H12.9406C13.1011 4.05124 13.2312 4.18136 13.2312 4.34186V4.9811C13.2312 5.63088 12.7045 6.15761 12.0547 6.15761Z" fill="#A34F41"/>
<path d="M13.2315 4.34206V4.9813C13.2315 5.63098 12.7045 6.15748 12.0548 6.15748H10.7299C11.3795 6.15748 11.906 5.63098 11.906 4.9813V4.34206C11.906 4.18109 11.7759 4.05148 11.6155 4.05148H12.9404C13.1014 4.05153 13.2315 4.18109 13.2315 4.34206Z" fill="#873F30"/>
<path d="M10.9009 21.3359C10.6846 21.3359 10.4684 21.2534 10.3034 21.0884L8.87845 19.6635C8.54353 19.3286 8.53312 18.77 8.87428 18.4414C9.20512 18.1228 9.73162 18.1265 10.0579 18.4527L10.7302 19.125C10.8245 19.2193 10.9774 19.2193 11.0717 19.125L13.5796 16.617C13.9096 16.287 14.4447 16.287 14.7747 16.617C15.1047 16.9471 15.1047 17.4821 14.7747 17.8122L11.4985 21.0883C11.3335 21.2534 11.1172 21.3359 10.9009 21.3359Z" fill="#27E19D"/>
</g>
<defs>
<clipPath id="clip0_7_682">
<rect width="24" height="24" fill="white"/>
</clipPath>
</defs>
</svg>
