<svg width="24" height="24" viewBox="0 0 24 24" fill="none" xmlns="http://www.w3.org/2000/svg">
<g clip-path="url(#clip0_1_610)">
<path d="M12 23.4844C18.3426 23.4844 23.4844 18.3426 23.4844 12C23.4844 5.65735 18.3426 0.515625 12 0.515625C5.65735 0.515625 0.515625 5.65735 0.515625 12C0.515625 18.3426 5.65735 23.4844 12 23.4844Z" fill="#FFAF10"/>
<path d="M13.2483 17.8045H8.18579V19.9687H13.2483V17.8045Z" fill="#445EA0"/>
<path d="M9.11588 17.8045H8.18579V19.9687H9.11588V17.8045Z" fill="#2E4C89"/>
<path d="M15.6157 21.0938C15.6157 21.2227 15.5102 21.3281 15.3813 21.3281H6.05304C5.92413 21.3281 5.81866 21.2227 5.81866 21.0938V20.1562C5.81866 20.0273 5.92413 19.9219 6.05304 19.9219H15.3813C15.5102 19.9219 15.6157 20.0273 15.6157 20.1562V21.0938Z" fill="#293D7C"/>
<path d="M6.74876 21.0938V20.1562C6.74876 20.0273 6.85423 19.9219 6.98313 19.9219H6.05304C5.92413 19.9219 5.81866 20.0273 5.81866 20.1562V21.0938C5.81866 21.2227 5.92413 21.3281 6.05304 21.3281H6.98313C6.85423 21.3281 6.74876 21.2227 6.74876 21.0938Z" fill="#1A2B63"/>
<path d="M0 17.3828C0 17.6406 0.210938 17.8516 0.46875 17.8516H14.5395V14.7133H0V17.3828Z" fill="#293D7C"/>
<path d="M0.930094 17.3828V14.7133H0V17.3828C0 17.6406 0.210937 17.8516 0.46875 17.8516H1.39884C1.14103 17.8516 0.930094 17.6406 0.930094 17.3828Z" fill="#1A2B63"/>
<path d="M14.5395 13.4525C14.5395 13.3491 14.6235 13.265 14.727 13.265H21.4343V3.11553C21.4343 2.83212 21.2025 2.60028 20.9191 2.60028H0.51525C0.231844 2.60028 0 2.83212 0 3.11553V14.7601H14.5395V13.4525Z" fill="#445EA0"/>
<path d="M14.5395 13.4525C14.5395 13.3491 14.6236 13.265 14.727 13.265H20.4039V3.86517C20.4039 3.73627 20.2984 3.6308 20.1695 3.6308H1.26489C1.13599 3.6308 1.03052 3.73627 1.03052 3.86517V13.4952C1.03052 13.6241 1.13599 13.7296 1.26489 13.7296H14.5394L14.5395 13.4525Z" fill="#EEF6FF"/>
<path d="M10.717 16.9744C11.0772 16.9744 11.3691 16.6825 11.3691 16.3224C11.3691 15.9622 11.0772 15.6703 10.717 15.6703C10.3569 15.6703 10.0649 15.9622 10.0649 16.3224C10.0649 16.6825 10.3569 16.9744 10.717 16.9744Z" fill="#445EA0"/>
<path d="M19.5169 9.67385C19.5169 9.80276 19.4114 9.90823 19.2825 9.90823H11.8549C11.726 9.90823 11.6205 9.80276 11.6205 9.67385V6.2652C11.6205 6.13629 11.726 6.03082 11.8549 6.03082H19.2825C19.4114 6.03082 19.5169 6.13629 19.5169 6.2652V9.67385Z" fill="#FFAF10"/>
<path d="M12.5506 9.67385V6.2652C12.5506 6.13629 12.6561 6.03082 12.785 6.03082H11.8549C11.726 6.03082 11.6205 6.13629 11.6205 6.2652V9.67385C11.6205 9.80276 11.726 9.90823 11.8549 9.90823H12.785C12.6561 9.90823 12.5506 9.80276 12.5506 9.67385Z" fill="#FF9518"/>
<path d="M14.0281 11.2557H12.0072C11.813 11.2557 11.6556 11.0983 11.6556 10.9041C11.6556 10.7099 11.813 10.5526 12.0072 10.5526H14.0281C14.2222 10.5526 14.3796 10.7099 14.3796 10.9041C14.3796 11.0983 14.2222 11.2557 14.0281 11.2557Z" fill="#C3DDF4"/>
<path d="M14.0281 12.3242H12.0072C11.813 12.3242 11.6556 12.1669 11.6556 11.9727C11.6556 11.7785 11.813 11.6211 12.0072 11.6211H14.0281C14.2222 11.6211 14.3796 11.7785 14.3796 11.9727C14.3796 12.1669 14.2222 12.3242 14.0281 12.3242Z" fill="#C3DDF4"/>
<path d="M16.4663 11.2557H14.9634C14.7693 11.2557 14.6119 11.0983 14.6119 10.9041C14.6119 10.7099 14.7693 10.5526 14.9634 10.5526H16.4663C16.6604 10.5526 16.8178 10.7099 16.8178 10.9041C16.8178 11.0983 16.6604 11.2557 16.4663 11.2557Z" fill="#C3DDF4"/>
<path d="M16.4663 12.3242H14.9634C14.7693 12.3242 14.6119 12.1669 14.6119 11.9727C14.6119 11.7785 14.7693 11.6211 14.9634 11.6211H16.4663C16.6604 11.6211 16.8178 11.7785 16.8178 11.9727C16.8178 12.1669 16.6604 12.3242 16.4663 12.3242Z" fill="#C3DDF4"/>
<path d="M19.3018 11.2557H17.3876C17.1935 11.2557 17.0361 11.0983 17.0361 10.9041C17.0361 10.7099 17.1935 10.5526 17.3876 10.5526H19.3018C19.496 10.5526 19.6534 10.7099 19.6534 10.9041C19.6534 11.0983 19.496 11.2557 19.3018 11.2557Z" fill="#C3DDF4"/>
<path d="M19.3018 12.3242H17.3876C17.1935 12.3242 17.0361 12.1669 17.0361 11.9727C17.0361 11.7785 17.1935 11.6211 17.3876 11.6211H19.3018C19.496 11.6211 19.6534 11.7785 19.6534 11.9727C19.6534 12.1669 19.496 12.3242 19.3018 12.3242Z" fill="#C3DDF4"/>
<path d="M16.8452 5.20705C16.8452 5.33595 16.7398 5.44142 16.6109 5.44142H16.0953C15.9664 5.44142 15.8609 5.33595 15.8609 5.20705V4.69147C15.8609 4.56256 15.9664 4.45709 16.0953 4.45709H16.6109C16.7398 4.45709 16.8452 4.56256 16.8452 4.69147V5.20705Z" fill="#EF8318"/>
<path d="M18.1576 5.20705C18.1576 5.33595 18.0521 5.44142 17.9232 5.44142H17.4077C17.2787 5.44142 17.1733 5.33595 17.1733 5.20705V4.69147C17.1733 4.56256 17.2787 4.45709 17.4077 4.45709H17.9232C18.0521 4.45709 18.1576 4.56256 18.1576 4.69147V5.20705Z" fill="#EF8318"/>
<path d="M19.47 5.20705C19.47 5.33595 19.3646 5.44142 19.2357 5.44142H18.7201C18.5912 5.44142 18.4857 5.33595 18.4857 5.20705V4.69147C18.4857 4.56256 18.5912 4.45709 18.7201 4.45709H19.2357C19.3646 4.45709 19.47 4.56256 19.47 4.69147V5.20705Z" fill="#EF8318"/>
<path d="M8.94836 12.0471H8.52649C8.33233 12.0471 8.17493 11.8898 8.17493 11.6956C8.17493 11.5014 8.33233 11.344 8.52649 11.344H8.94836C9.14252 11.344 9.29993 11.5014 9.29993 11.6956C9.29993 11.8898 9.14252 12.0471 8.94836 12.0471Z" fill="#69CDFF"/>
<path d="M7.35461 12.0471H6.93274C6.73858 12.0471 6.58118 11.8898 6.58118 11.6956C6.58118 11.5014 6.73858 11.344 6.93274 11.344H7.35461C7.54877 11.344 7.70618 11.5014 7.70618 11.6956C7.70618 11.8898 7.54877 12.0471 7.35461 12.0471Z" fill="#69CDFF"/>
<path d="M5.7608 12.0471H5.33893C5.14477 12.0471 4.98737 11.8898 4.98737 11.6956C4.98737 11.5014 5.14477 11.344 5.33893 11.344H5.7608C5.95496 11.344 6.11237 11.5014 6.11237 11.6956C6.11241 11.8898 5.95501 12.0471 5.7608 12.0471Z" fill="#69CDFF"/>
<path d="M4.16705 12.0471H3.74518C3.55102 12.0471 3.39362 11.8898 3.39362 11.6956C3.39362 11.5014 3.55102 11.344 3.74518 11.344H4.16705C4.36121 11.344 4.51862 11.5014 4.51862 11.6956C4.51862 11.8898 4.36126 12.0471 4.16705 12.0471Z" fill="#69CDFF"/>
<path d="M10.3195 10.5988C10.1253 10.5988 9.9679 10.4414 9.9679 10.2472V9.82532C9.9679 9.63116 10.1253 9.47375 10.3195 9.47375C10.5136 9.47375 10.671 9.63116 10.671 9.82532V10.2472C10.671 10.4414 10.5136 10.5988 10.3195 10.5988Z" fill="#69CDFF"/>
<path d="M10.3195 9.005C10.1253 9.005 9.9679 8.84765 9.9679 8.65344V8.23157C9.9679 8.03741 10.1253 7.88 10.3195 7.88C10.5136 7.88 10.671 8.03741 10.671 8.23157V8.65344C10.671 8.84765 10.5136 9.005 10.3195 9.005Z" fill="#69CDFF"/>
<path d="M10.3195 7.41125C10.1253 7.41125 9.9679 7.2539 9.9679 7.05969V6.63782C9.9679 6.44366 10.1253 6.28625 10.3195 6.28625C10.5136 6.28625 10.671 6.44366 10.671 6.63782V7.05969C10.671 7.2539 10.5136 7.41125 10.3195 7.41125Z" fill="#69CDFF"/>
<path d="M2.35065 10.5988C2.15649 10.5988 1.99908 10.4414 1.99908 10.2472V9.82532C1.99908 9.63116 2.15649 9.47375 2.35065 9.47375C2.5448 9.47375 2.70221 9.63116 2.70221 9.82532V10.2472C2.70221 10.4414 2.54485 10.5988 2.35065 10.5988Z" fill="#69CDFF"/>
<path d="M2.35065 9.005C2.15649 9.005 1.99908 8.84765 1.99908 8.65344V8.23157C1.99908 8.03741 2.15649 7.88 2.35065 7.88C2.5448 7.88 2.70221 8.03741 2.70221 8.23157V8.65344C2.70221 8.84765 2.54485 9.005 2.35065 9.005Z" fill="#69CDFF"/>
<path d="M2.35065 7.41125C2.15649 7.41125 1.99908 7.2539 1.99908 7.05969V6.63782C1.99908 6.44366 2.15649 6.28625 2.35065 6.28625C2.5448 6.28625 2.70221 6.44366 2.70221 6.63782V7.05969C2.70221 7.2539 2.54485 7.41125 2.35065 7.41125Z" fill="#69CDFF"/>
<path d="M8.94836 5.67212H8.52649C8.33233 5.67212 8.17493 5.51476 8.17493 5.32056C8.17493 5.12635 8.33233 4.96899 8.52649 4.96899H8.94836C9.14252 4.96899 9.29993 5.12635 9.29993 5.32056C9.29993 5.51476 9.14252 5.67212 8.94836 5.67212Z" fill="#69CDFF"/>
<path d="M7.35461 5.67212H6.93274C6.73858 5.67212 6.58118 5.51476 6.58118 5.32056C6.58118 5.12635 6.73858 4.96899 6.93274 4.96899H7.35461C7.54877 4.96899 7.70618 5.12635 7.70618 5.32056C7.70618 5.51476 7.54877 5.67212 7.35461 5.67212Z" fill="#69CDFF"/>
<path d="M5.7608 5.67212H5.33893C5.14477 5.67212 4.98737 5.51476 4.98737 5.32056C4.98737 5.12635 5.14477 4.96899 5.33893 4.96899H5.7608C5.95496 4.96899 6.11237 5.12635 6.11237 5.32056C6.11237 5.51476 5.95501 5.67212 5.7608 5.67212Z" fill="#69CDFF"/>
<path d="M4.16705 5.67212H3.74518C3.55102 5.67212 3.39362 5.51476 3.39362 5.32056C3.39362 5.12635 3.55102 4.96899 3.74518 4.96899H4.16705C4.36121 4.96899 4.51862 5.12635 4.51862 5.32056C4.51862 5.51476 4.36126 5.67212 4.16705 5.67212Z" fill="#69CDFF"/>
<path d="M9.38196 10.5237C9.38196 10.6526 9.27649 10.7581 9.14758 10.7581H3.52258C3.39368 10.7581 3.28821 10.6526 3.28821 10.5237V6.49243C3.28821 6.36353 3.39368 6.25806 3.52258 6.25806H9.14758C9.27649 6.25806 9.38196 6.36353 9.38196 6.49243V10.5237Z" fill="#5DC1D8"/>
<path d="M4.21829 10.5237V6.49243C4.21829 6.36353 4.32376 6.25806 4.45266 6.25806H3.52252C3.39362 6.25806 3.28815 6.36353 3.28815 6.49243V10.5237C3.28815 10.6526 3.39362 10.7581 3.52252 10.7581H4.45266C4.32376 10.7581 4.21829 10.6526 4.21829 10.5237Z" fill="#28A5A5"/>
<path d="M10.9755 5.6723C10.9755 5.80121 10.8701 5.90668 10.7411 5.90668H9.75677C9.62787 5.90668 9.5224 5.80121 9.5224 5.6723V4.68793C9.5224 4.55902 9.62787 4.45355 9.75677 4.45355H10.7411C10.8701 4.45355 10.9755 4.55902 10.9755 4.68793V5.6723Z" fill="#52BBEF"/>
<path d="M3.19427 5.76605C3.19427 5.89496 3.08881 6.00043 2.9599 6.00043H1.97552C1.84662 6.00043 1.74115 5.89496 1.74115 5.76605V4.78168C1.74115 4.65277 1.84662 4.5473 1.97552 4.5473H2.9599C3.08881 4.5473 3.19427 4.65277 3.19427 4.78168V5.76605Z" fill="#52BBEF"/>
<path d="M10.9755 12.2289C10.9755 12.3578 10.8701 12.4633 10.7411 12.4633H9.75677C9.62787 12.4633 9.5224 12.3578 9.5224 12.2289V11.2445C9.5224 11.1156 9.62787 11.0101 9.75677 11.0101H10.7411C10.8701 11.0101 10.9755 11.1156 10.9755 11.2445V12.2289Z" fill="#52BBEF"/>
<path d="M3.19427 12.2289C3.19427 12.3578 3.08881 12.4633 2.9599 12.4633H1.97552C1.84662 12.4633 1.74115 12.3578 1.74115 12.2289V11.2445C1.74115 11.1156 1.84662 11.0101 1.97552 11.0101H2.9599C3.08881 11.0101 3.19427 11.1156 3.19427 11.2445V12.2289Z" fill="#52BBEF"/>
<path d="M10.0391 5.6723V4.68793C10.0391 4.55902 10.1445 4.45355 10.2734 4.45355H9.75677C9.62787 4.45355 9.5224 4.55902 9.5224 4.68793V5.6723C9.5224 5.80121 9.62787 5.90668 9.75677 5.90668H10.2734C10.1445 5.90668 10.0391 5.80121 10.0391 5.6723Z" fill="#1E99D6"/>
<path d="M2.25781 5.76605V4.78168C2.25781 4.65277 2.36327 4.5473 2.49218 4.5473H1.97552C1.84662 4.5473 1.74115 4.65277 1.74115 4.78168V5.76605C1.74115 5.89496 1.84662 6.00043 1.97552 6.00043H2.49218C2.36327 6.00043 2.25781 5.89496 2.25781 5.76605Z" fill="#1E99D6"/>
<path d="M10.0391 12.2289V11.2445C10.0391 11.1156 10.1445 11.0101 10.2734 11.0101H9.75677C9.62787 11.0101 9.5224 11.1156 9.5224 11.2445V12.2289C9.5224 12.3578 9.62787 12.4633 9.75677 12.4633H10.2734C10.1445 12.4633 10.0391 12.3578 10.0391 12.2289Z" fill="#1E99D6"/>
<path d="M2.25781 12.2289V11.2445C2.25781 11.1156 2.36327 11.0101 2.49218 11.0101H1.97552C1.84662 11.0101 1.74115 11.1156 1.74115 11.2445V12.2289C1.74115 12.3578 1.84662 12.4633 1.97552 12.4633H2.49218C2.36327 12.4633 2.25781 12.3578 2.25781 12.2289Z" fill="#1E99D6"/>
<path d="M20.4121 17.1925C20.4049 17.1727 20.4054 17.1615 20.4064 17.1578C20.4065 17.1578 20.4093 17.1575 20.412 17.1575C20.4174 17.1575 20.4267 17.1586 20.4408 17.1638L22.4144 17.8887V13.4526C22.4144 13.3237 22.309 13.2182 22.1801 13.2182H14.7269C14.598 13.2182 14.4926 13.3237 14.4926 13.4526V18.8338C14.4926 18.9627 14.598 19.0682 14.7269 19.0682H21.101L20.4121 17.1925Z" fill="#5DC1D8"/>
<path d="M15.4226 18.8338V13.4525C15.4226 13.3236 15.5281 13.2181 15.657 13.2181H14.7269C14.598 13.2181 14.4926 13.3236 14.4926 13.4525V18.8338C14.4926 18.9627 14.598 19.0681 14.7269 19.0681H15.657C15.5281 19.0681 15.4226 18.9627 15.4226 18.8338Z" fill="#28A5A5"/>
<path d="M20.4569 17.1198C20.3797 17.0914 20.3397 17.1314 20.3681 17.2087L21.6039 20.5734C21.6323 20.6507 21.7031 20.6663 21.7613 20.6081L22.4174 19.952C22.4756 19.8938 22.5708 19.8938 22.629 19.952L23.385 20.7081C23.4432 20.7662 23.5384 20.7662 23.5966 20.7081L23.9563 20.3483C24.0145 20.2902 24.0145 20.1949 23.9563 20.1368L23.2003 19.3807C23.1421 19.3225 23.1421 19.2273 23.2003 19.1691L23.8564 18.513C23.9146 18.4549 23.899 18.384 23.8217 18.3557L20.4569 17.1198Z" fill="#293D7C"/>
</g>
<defs>
<clipPath id="clip0_1_610">
<rect width="24" height="24" fill="white"/>
</clipPath>
</defs>
</svg>
