<svg width="24" height="24" viewBox="0 0 24 24" fill="none" xmlns="http://www.w3.org/2000/svg">
<g clip-path="url(#clip0_2_5)">
<path d="M24 12C24 18.6275 18.6275 24 12 24C5.3725 24 0 18.6275 0 12C0 5.3725 5.3725 0 12 0C18.6275 0 24 5.3725 24 12Z" fill="#0069A3"/>
<path d="M8.69403 19.0093H15.306V21.9479H8.69403V19.0093Z" fill="#87A8E6"/>
<path d="M22.7629 4.2627V17.3123C22.3118 18.2249 21.748 19.0715 21.0897 19.8342C21.0134 19.8435 20.9359 19.8484 20.8572 19.8484H3.14319C3.06427 19.8484 2.987 19.8435 2.91046 19.8342C2.25165 19.0712 1.68805 18.2249 1.23743 17.3123V4.2627C1.23743 3.21002 2.09052 2.35693 3.14319 2.35693H20.8572C21.9097 2.35693 22.7629 3.21002 22.7629 4.2627Z" fill="#D4E4FF"/>
<path d="M21.7833 4.2627V16.2283C21.7833 16.7391 21.3675 17.1546 20.8572 17.1546H3.14319C2.63232 17.1546 2.21704 16.7391 2.21704 16.2283V4.2627C2.21704 3.75183 2.63232 3.33636 3.14319 3.33636H20.8572C21.3675 3.33636 21.7833 3.75183 21.7833 4.2627Z" fill="#244477"/>
<path d="M17.4838 22.5855C17.4838 22.6168 17.4829 22.6476 17.4805 22.6785C15.8377 23.5234 13.9744 24 12.0002 24C10.0252 24 8.16211 23.5228 6.51929 22.678C6.51691 22.6472 6.51599 22.6163 6.51599 22.5855C6.51599 22.1951 6.67419 21.8414 6.93036 21.5852C7.18652 21.329 7.5401 21.1708 7.93048 21.1708H16.0693C16.8506 21.1708 17.4838 21.8042 17.4838 22.5855Z" fill="#D4E4FF"/>
<path d="M7.67029 10.0142H4.04498C3.76556 10.0142 3.53888 9.78754 3.53888 9.50812C3.53888 9.22852 3.76556 9.00201 4.04498 9.00201H7.67029C7.94989 9.00201 8.17639 9.22852 8.17639 9.50812C8.17639 9.78754 7.94989 10.0142 7.67029 10.0142Z" fill="white"/>
<path d="M7.67029 11.9971H4.04498C3.76556 11.9971 3.53888 11.7704 3.53888 11.491C3.53888 11.2114 3.76556 10.9849 4.04498 10.9849H7.67029C7.94989 10.9849 8.17639 11.2114 8.17639 11.491C8.17639 11.7704 7.94989 11.9971 7.67029 11.9971Z" fill="#0069A3"/>
<path d="M7.67029 13.9799H4.04498C3.76556 13.9799 3.53888 13.7532 3.53888 13.4738C3.53888 13.1942 3.76556 12.9677 4.04498 12.9677H7.67029C7.94989 12.9677 8.17639 13.1942 8.17639 13.4738C8.17639 13.7532 7.94989 13.9799 7.67029 13.9799Z" fill="#FCD971"/>
<path d="M7.67029 15.9628H4.04498C3.76556 15.9628 3.53888 15.7361 3.53888 15.4567C3.53888 15.1771 3.76556 14.9506 4.04498 14.9506H7.67029C7.94989 14.9506 8.17639 15.1771 8.17639 15.4567C8.17639 15.7361 7.94989 15.9628 7.67029 15.9628Z" fill="#0069A3"/>
<path d="M19.9675 10.0142H10.6772C10.3978 10.0142 10.1711 9.78754 10.1711 9.50812C10.1711 9.22852 10.3978 9.00201 10.6772 9.00201H19.9675C20.2471 9.00201 20.4736 9.22852 20.4736 9.50812C20.4736 9.78754 20.2471 10.0142 19.9675 10.0142Z" fill="#228BD1"/>
<path d="M19.9675 11.9971H10.6772C10.3978 11.9971 10.1711 11.7704 10.1711 11.491C10.1711 11.2114 10.3978 10.9849 10.6772 10.9849H19.9675C20.2471 10.9849 20.4736 11.2114 20.4736 11.491C20.4736 11.7704 20.2471 11.9971 19.9675 11.9971Z" fill="#FF4079"/>
<path d="M19.9675 13.9799H10.6772C10.3978 13.9799 10.1711 13.7532 10.1711 13.4738C10.1711 13.1942 10.3978 12.9677 10.6772 12.9677H19.9675C20.2471 12.9677 20.4736 13.1942 20.4736 13.4738C20.4736 13.7532 20.2471 13.9799 19.9675 13.9799Z" fill="white"/>
<path d="M19.9675 15.9628H10.6772C10.3978 15.9628 10.1711 15.7361 10.1711 15.4567C10.1711 15.1771 10.3978 14.9506 10.6772 14.9506H19.9675C20.2471 14.9506 20.4736 15.1771 20.4736 15.4567C20.4736 15.7361 20.2471 15.9628 19.9675 15.9628Z" fill="#FCD971"/>
<path d="M8.49884 6.39972L9.92102 5.47595C9.94904 5.45343 9.98822 5.44794 10.0274 5.44794C10.1955 5.44794 10.4083 5.62701 10.4083 5.85663C10.4083 5.95184 10.3691 6.03589 10.3074 6.07507L9.3219 6.71338L10.3074 7.35168C10.3691 7.39087 10.4083 7.47491 10.4083 7.57013C10.4083 7.79974 10.1955 7.979 10.0274 7.979C9.98822 7.979 9.94904 7.97333 9.92102 7.95099L8.49884 7.02704C8.36993 6.94299 8.32526 6.80859 8.32526 6.71338C8.32526 6.61816 8.36993 6.48376 8.49884 6.39972Z" fill="white"/>
<path d="M13.2638 4.23834C13.2638 4.27203 13.2583 4.31122 13.2415 4.34473L11.2705 8.38202C11.2313 8.46606 11.1249 8.52191 11.0184 8.52191C10.8281 8.52191 10.7049 8.36517 10.7049 8.22528C10.7049 8.19159 10.7161 8.1524 10.7329 8.1189L12.6984 4.0816C12.7432 3.98639 12.8328 3.94153 12.9335 3.94153C13.0902 3.94153 13.2638 4.05927 13.2638 4.23834Z" fill="white"/>
<path d="M15.47 7.02686L14.0477 7.95081C14.0197 7.97333 13.9805 7.97882 13.9413 7.97882C13.7734 7.97882 13.5606 7.79974 13.5606 7.57013C13.5606 7.47491 13.5998 7.39087 13.6613 7.35168L14.647 6.71338L13.6613 6.07507C13.5998 6.03589 13.5606 5.95184 13.5606 5.85663C13.5606 5.62701 13.7734 5.44775 13.9413 5.44775C13.9805 5.44775 14.0197 5.45343 14.0477 5.47577L15.47 6.39972C15.5988 6.48376 15.6436 6.61816 15.6436 6.71338C15.6436 6.80841 15.5988 6.94299 15.47 7.02686Z" fill="white"/>
</g>
<defs>
<clipPath id="clip0_2_5">
<rect width="24" height="24" fill="white"/>
</clipPath>
</defs>
</svg>
