<svg width="175" height="48" viewBox="0 0 175 48" fill="none" xmlns="http://www.w3.org/2000/svg">
<g id="Group 646">
<g id="Group 636">
<path id="Path 231" d="M18.4352 24.4405H22.719C18.082 22.8092 15.337 19.6409 14.1092 15.1729V15.7107C14.1092 20.7416 14.1193 25.7737 14.1047 30.8057C14.0434 32.0459 14.3762 33.275 15.0603 34.3346C15.7444 35.3943 16.7484 36.2359 17.943 36.7509C19.429 37.4661 21.0483 37.9003 22.7101 38.0291C25.409 38.3248 28.1408 38.2037 30.7986 37.6706C32.1749 37.3589 33.4698 36.7857 34.6046 35.986C36.4529 34.7049 37.1632 32.9163 37.1632 30.8117C37.1632 21.8435 37.1632 12.8753 37.1632 3.90702C37.1632 2.45793 37.4394 2.29778 38.7929 3.01067C45.385 6.48132 49.8653 11.5767 51.5822 18.5659C53.5777 26.6981 51.4558 33.9304 45.5127 40.0835C41.466 44.2923 35.9647 46.9985 29.9973 47.7156C24.5445 48.5017 18.9684 47.6484 14.0561 45.276C9.14385 42.9036 5.14367 39.1321 2.62037 34.4939C0.360643 30.2196 -0.465863 25.395 0.251274 20.6647C0.968411 15.9343 3.19504 11.5236 6.63365 8.02184C9.73054 4.88041 13.6246 2.53899 17.9465 1.21955C22.2685 -0.0998932 26.8753 -0.353631 31.33 0.482384C31.7504 0.522847 32.1375 0.716833 32.4089 1.02307C32.6804 1.3293 32.8147 1.72361 32.7834 2.1221C32.7864 11.4158 32.7845 20.7093 32.7777 30.0026C32.7964 30.7267 32.6103 31.4424 32.2389 32.0758C31.8674 32.7092 31.324 33.2374 30.6646 33.6059C29.0279 34.5057 27.1455 34.9254 25.2561 34.8118C23.6565 34.8688 22.0713 34.5069 20.6753 33.7661C20.0111 33.4248 19.4547 32.9226 19.063 32.3111C18.6714 31.6996 18.4587 31.0007 18.4466 30.2859C18.3916 28.4561 18.3973 26.6252 18.3803 24.7955C18.3897 24.6761 18.4081 24.5574 18.4352 24.4405Z" fill="white"/>
</g>
<g id="Group 643">
<g id="Group 638">
<g id="Group 637">
<path id="Path 232" d="M67.9603 32.1526V32.7245C67.9477 33.1099 67.8974 33.4934 67.8099 33.87C67.6802 34.4039 67.4083 34.8976 67.02 35.3041C66.4906 35.8501 65.8349 36.273 65.1041 36.5399C62.8053 37.2314 60.3362 37.2314 58.0374 36.5399C57.3061 36.2731 56.6497 35.8502 56.1196 35.3041C55.729 34.8935 55.4573 34.3943 55.3309 33.8551C55.2458 33.4841 55.1954 33.1068 55.1805 32.7275V31.8311H58.3401V32.1538C58.3423 32.3891 58.3739 32.6234 58.4342 32.8517C58.5085 33.1225 58.6572 33.3699 58.8652 33.5688C59.1368 33.8236 59.4643 34.0188 59.8245 34.1407C60.3497 34.3133 60.9042 34.3922 61.4598 34.3731C62.046 34.3939 62.6313 34.3151 63.1881 34.1407C63.5555 34.019 63.8942 33.8306 64.1853 33.5861C64.4051 33.3976 64.5671 33.1565 64.6542 32.8882C64.7237 32.6734 64.7617 32.4506 64.7673 32.2261V10.8166H67.9629L67.9603 32.1526Z" fill="white"/>
<path id="Path 233" d="M84.423 32.152V32.7239C84.411 33.1093 84.3611 33.4928 84.2739 33.8694C84.1436 34.4031 83.8718 34.8967 83.484 35.3036C82.9543 35.8492 82.2986 36.2721 81.5681 36.5393C79.2693 37.2309 76.8002 37.2309 74.5014 36.5393C73.7699 36.2728 73.1134 35.8499 72.5835 35.3036C72.1925 34.8932 71.9207 34.3939 71.7949 33.8545C71.709 33.4836 71.6587 33.1062 71.6445 32.7269V22.1309C71.6587 21.7515 71.709 21.3741 71.7949 21.0033C71.9212 20.4635 72.1929 19.9637 72.5835 19.5524C73.1139 19.0069 73.7702 18.5844 74.5014 18.3178C76.8002 17.6262 79.2693 17.6262 81.5681 18.3178C82.2983 18.5852 82.9538 19.0075 83.484 19.5524C83.8713 19.9596 84.143 20.453 84.2739 20.9865C84.3611 21.3632 84.4111 21.7467 84.423 22.1321V32.152ZM81.2287 31.7935V22.6651C81.2253 22.4286 81.1872 22.1937 81.1156 21.9671C81.0285 21.6986 80.866 21.4574 80.6455 21.2692C80.3549 21.0247 80.0166 20.8363 79.6496 20.7146C79.0924 20.5402 78.5066 20.4615 77.92 20.4822C77.3644 20.4634 76.8099 20.5422 76.2847 20.7146C75.925 20.8368 75.598 21.032 75.3267 21.2865C75.1148 21.4896 74.9652 21.7432 74.8938 22.0203C74.8367 22.2431 74.8051 22.4711 74.7997 22.7003V32.152C74.8051 32.3812 74.8367 32.6092 74.8938 32.832C74.9649 33.1093 75.1145 33.363 75.3267 33.5658C75.598 33.8203 75.925 34.0155 76.2847 34.1377C76.8099 34.3101 77.3644 34.3889 77.92 34.3702C78.5066 34.3909 79.0924 34.3121 79.6496 34.1377C80.0166 34.016 80.3549 33.8276 80.6455 33.5832C80.866 33.395 81.0285 33.1538 81.1156 32.8852C81.1872 32.6586 81.2253 32.4237 81.2287 32.1873V31.7935Z" fill="white"/>
<path id="Path 234" d="M100.886 31.8652V32.7245C100.89 33.3025 100.769 33.8751 100.528 34.4066C100.276 34.9504 99.8817 35.4246 99.3822 35.7846C98.787 36.2119 98.1112 36.5282 97.391 36.7168C96.4484 36.96 95.4738 37.0743 94.4969 37.0562C92.2915 37.0562 90.6812 36.6447 89.6659 35.8216C89.1835 35.4515 88.7936 34.9851 88.5239 34.4559C88.2542 33.9267 88.1114 33.3477 88.1057 32.7603V10.8166H91.3013V16.0429C91.2957 16.3004 91.3469 16.5562 91.4517 16.794C91.5476 17.0018 91.6754 17.1951 91.8308 17.3677C91.9611 17.5192 92.1201 17.6465 92.2997 17.743C92.4632 17.8278 92.5948 17.8935 92.6947 17.9401C92.7945 17.9648 93.0454 18.0483 93.4473 18.1905C93.8492 18.3327 94.3191 18.4943 94.8571 18.6751C95.3954 18.8544 95.9528 19.0391 96.5285 19.2297C97.1041 19.4203 97.6198 19.5882 98.0697 19.7304C98.9352 20.014 99.6713 20.5701 100.155 21.3056C100.643 22.0462 100.897 22.9033 100.887 23.7759V31.8658L100.886 31.8652ZM97.7266 24.6346H97.6906V24.4195C97.7054 24.0286 97.6147 23.6405 97.4271 23.2919C97.2709 23.0173 97.0674 22.7693 96.8248 22.5581C96.5544 22.3464 96.25 22.1768 95.9231 22.0556C95.5225 21.9133 95.0953 21.7693 94.6454 21.6259C94.2692 21.5064 93.869 21.3696 93.4447 21.2154C93.0205 21.0612 92.6066 20.924 92.203 20.8037C92.0092 20.7471 91.8256 20.6627 91.6589 20.5533C91.5607 20.4862 91.4782 20.4006 91.4166 20.3019C91.3551 20.2031 91.3158 20.0934 91.3013 19.9796V32.1873C91.3052 32.444 91.3561 32.6981 91.4517 32.9384C91.5581 33.2117 91.7313 33.4575 91.9572 33.6555C92.2383 33.8945 92.572 34.0716 92.9341 34.1742C93.4398 34.3179 93.9665 34.3844 94.4943 34.3713C95.6971 34.3713 96.5302 34.1387 96.9936 33.6734C97.4444 33.2363 97.7057 32.6553 97.7259 32.045L97.7266 24.6346Z" fill="white"/>
<path id="Path 235" d="M118.439 34.2286V36.77H107.501C107.155 36.7651 106.814 36.6856 106.505 36.5376C106.177 36.3907 105.888 36.1765 105.658 35.9107C105.426 35.631 105.276 35.2973 105.227 34.9445C105.169 34.5281 105.241 34.1048 105.434 33.7266C105.459 33.7035 105.69 33.3754 106.129 32.7424C106.568 32.1094 107.119 31.322 107.783 30.3803C108.446 29.4373 109.16 28.4228 109.926 27.3369C110.691 26.2509 111.405 25.2368 112.069 24.2947C112.732 23.3517 113.502 22.26 114.38 21.0194C114.428 20.9314 114.442 20.8298 114.418 20.7332C114.393 20.6376 114.291 20.5898 114.117 20.5898H104.569V18.0483H115.545C115.886 18.052 116.22 18.1316 116.522 18.2808C116.842 18.4314 117.124 18.6451 117.35 18.9076C117.583 19.187 117.732 19.5209 117.781 19.8739C117.839 20.2897 117.768 20.7124 117.576 21.0905C117.049 21.8311 116.573 22.4994 116.147 23.0954C115.722 23.6913 115.239 24.3716 114.7 25.136C114.161 25.8997 113.615 26.6752 113.065 27.4624L108.629 33.7631C108.581 33.8637 108.567 33.9763 108.591 34.0846C108.615 34.1802 108.728 34.228 108.93 34.228L118.439 34.2286Z" fill="white"/>
<path id="Path 236" d="M128.551 17.7974C129.753 17.7498 130.954 17.926 132.084 18.3161C132.815 18.5834 133.471 19.0057 134.002 19.5507C134.392 19.9623 134.663 20.4619 134.79 21.0015C134.876 21.3725 134.926 21.7498 134.941 22.1291V23.8465C134.93 24.3088 134.848 24.7671 134.696 25.2066C134.454 25.8226 134.062 26.3756 133.55 26.82C133.289 27.0957 132.969 27.3155 132.611 27.4648C132.306 27.5926 131.991 27.7001 131.67 27.7863C131.341 27.8823 131 27.9307 130.656 27.9297H127.799C127.477 27.9294 127.159 27.9894 126.862 28.1061C126.565 28.2228 126.296 28.394 126.069 28.6097C125.826 28.8244 125.633 29.0851 125.504 29.375C125.374 29.6649 125.311 29.9773 125.318 30.2919V31.9053C125.292 32.3798 125.41 32.8516 125.657 33.2653C125.748 33.4223 125.862 33.5668 125.994 33.695C126.158 33.8369 126.349 33.9466 126.558 34.0177C126.804 34.1279 127.062 34.2119 127.328 34.2681C127.73 34.3475 128.14 34.3834 128.551 34.375C129.072 34.3929 129.593 34.3262 130.091 34.1778C130.366 34.092 130.632 33.9782 130.881 33.8384C131.191 33.6211 131.426 33.3222 131.557 32.9791C131.685 32.6336 131.749 32.2697 131.746 31.9035H134.942V32.7628C134.948 33.3841 134.8 33.9982 134.509 34.5555C134.198 35.1314 133.739 35.6244 133.175 35.9896C132.631 36.3282 132.034 36.5824 131.405 36.7426C130.474 36.9786 129.513 37.0869 128.55 37.0641C127.805 37.074 127.061 37.0078 126.331 36.8669C125.768 36.7559 125.22 36.588 124.696 36.3661C124.277 36.1912 123.891 35.9557 123.549 35.6681C123.271 35.4303 123.019 35.1662 122.798 34.88C122.343 34.2491 122.119 33.4953 122.158 32.7329V22.1309C122.171 21.7455 122.221 21.362 122.309 20.9854C122.439 20.4514 122.711 19.9577 123.099 19.5513C123.629 19.0058 124.285 18.5833 125.015 18.3167C126.147 17.926 127.348 17.7495 128.551 17.7974ZM131.746 23.0237V22.701C131.743 22.4657 131.711 22.2315 131.652 22.0031C131.577 21.7322 131.428 21.4848 131.22 21.286C130.948 21.0312 130.621 20.836 130.261 20.7141C129.736 20.5415 129.181 20.4626 128.625 20.4817C128.047 20.464 127.469 20.5427 126.919 20.7141C126.545 20.8331 126.199 21.0217 125.903 21.2687C125.683 21.4572 125.521 21.6983 125.434 21.9666C125.365 22.1814 125.327 22.4042 125.321 22.6287V26.3509C125.365 26.1452 125.485 25.9611 125.66 25.8322C125.84 25.6985 126.043 25.5957 126.26 25.5287C126.48 25.4582 126.707 25.4101 126.938 25.3853C127.112 25.365 127.287 25.353 127.463 25.3494H129.606C129.886 25.3514 130.163 25.3 130.422 25.1985C130.68 25.097 130.914 24.9473 131.11 24.7584C131.314 24.5773 131.476 24.3582 131.586 24.1148C131.696 23.8715 131.751 23.6092 131.748 23.3446V23.0231L131.746 23.0237Z" fill="white"/>
<path id="Path 237" d="M138.925 10.8166H142.084V36.77H138.925V10.8166Z" fill="white"/>
<path id="Path 238" d="M146.743 10.8166H149.903V36.77H146.743V10.8166Z" fill="white"/>
<path id="Path 239" d="M159.973 17.7974C162.177 17.7974 163.793 18.2089 164.821 19.0319C165.31 19.403 165.704 19.875 165.971 20.4118C166.238 20.9485 166.372 21.5359 166.362 22.1291V32.7245C166.354 33.2045 166.272 33.6809 166.118 34.1383C165.936 34.6813 165.605 35.1691 165.16 35.5522C164.593 36.0334 163.928 36.3995 163.206 36.6278C161.093 37.2008 158.852 37.2008 156.739 36.6278C156.017 36.3997 155.352 36.0336 154.786 35.5522C154.34 35.1687 154.009 34.6811 153.826 34.1383C153.673 33.6807 153.592 33.2044 153.583 32.7245V31.0424C153.572 30.1696 153.827 29.3123 154.315 28.572C154.799 27.8365 155.535 27.2804 156.401 26.9969C156.851 26.8534 157.364 26.6873 157.941 26.4961L159.613 25.9404C160.152 25.7623 160.622 25.6014 161.023 25.4575C161.425 25.3137 161.676 25.2303 161.776 25.2072C161.876 25.1594 162.007 25.0948 162.17 25.01C162.349 24.9134 162.509 24.7862 162.64 24.6347C162.796 24.4595 162.928 24.2668 163.035 24.061C163.152 23.8265 163.21 23.5693 163.204 23.3099V22.6299C163.201 22.3787 163.15 22.13 163.054 21.8961C162.939 21.6273 162.758 21.3881 162.527 21.1981C162.236 20.9617 161.897 20.7847 161.531 20.6782C161.025 20.5358 160.498 20.4699 159.97 20.4828C158.717 20.4828 157.871 20.7274 157.433 21.2166C156.992 21.7111 156.758 22.3412 156.775 22.9878H153.581V22.1309C153.577 21.5527 153.698 20.9799 153.936 20.4476C154.19 19.9044 154.585 19.4305 155.084 19.0696C155.68 18.6434 156.355 18.3277 157.075 18.1392C158.019 17.8948 158.995 17.7796 159.973 17.7974ZM163.206 27.2831C163.186 27.393 163.143 27.4978 163.077 27.5905C163.012 27.6832 162.927 27.7617 162.827 27.8209C162.652 27.9285 162.462 28.0127 162.262 28.0713C161.888 28.1908 161.479 28.327 161.041 28.483C160.602 28.639 160.196 28.7746 159.819 28.8935C159.368 29.0373 158.942 29.1806 158.542 29.3232C158.229 29.4494 157.938 29.6181 157.678 29.8239C157.433 30.038 157.224 30.2858 157.057 30.5589C156.857 30.9037 156.759 31.2934 156.775 31.6865C156.713 32.4182 156.956 33.1438 157.452 33.7081C157.904 34.1503 158.743 34.371 159.97 34.3702C161.224 34.3702 162.076 34.1375 162.527 33.6722C163.011 33.1159 163.253 32.4058 163.204 31.6865L163.206 27.2831Z" fill="white"/>
</g>
</g>
<g id="Group 639">
<path id="Path 240" d="M140.76 41.4172H142.043V42.6912H140.76V41.4172Z" fill="white"/>
<path id="Path 241" d="M147.818 40.7002V40.5496C147.816 40.4444 147.795 40.3402 147.755 40.2419C147.708 40.1295 147.634 40.0291 147.538 39.9491C147.419 39.8501 147.279 39.7757 147.128 39.7304C146.919 39.6706 146.702 39.6429 146.485 39.6485C146.297 39.6264 146.107 39.6424 145.927 39.6955C145.746 39.7485 145.58 39.8374 145.438 39.9563C145.256 40.1655 145.16 40.4299 145.168 40.7008V44.3549C145.142 44.6613 145.242 44.9654 145.447 45.2035C145.74 45.4228 146.114 45.5232 146.485 45.4825C146.672 45.5037 146.863 45.4886 147.044 45.4381C147.225 45.3875 147.393 45.3026 147.538 45.1885C147.739 44.9538 147.839 44.6561 147.818 44.3549H149.119V44.7899C149.115 44.9914 149.082 45.1914 149.019 45.3839C148.944 45.6108 148.808 45.8154 148.624 45.9779C148.391 46.1792 148.116 46.333 147.818 46.4297C146.947 46.6706 146.022 46.6706 145.152 46.4297C144.853 46.333 144.578 46.1792 144.345 45.9779C144.162 45.8154 144.026 45.6108 143.95 45.3839C143.887 45.1914 143.854 44.9914 143.85 44.7899V40.3393C143.849 40.097 143.899 39.8569 143.996 39.633C144.101 39.4056 144.263 39.2065 144.47 39.0539C144.715 38.875 144.993 38.7422 145.291 38.6625C145.679 38.5607 146.081 38.5128 146.484 38.5203C147.197 38.4623 147.908 38.6462 148.491 39.039C148.692 39.1975 148.853 39.3967 148.961 39.6217C149.07 39.8468 149.123 40.092 149.118 40.3393V40.6978L147.818 40.7002Z" fill="white"/>
<path id="Path 242" d="M155.907 44.5484V44.7874C155.901 44.9494 155.88 45.1106 155.844 45.2691C155.79 45.4917 155.678 45.6981 155.518 45.8696C155.301 46.0985 155.031 46.2762 154.728 46.3883C153.782 46.6802 152.762 46.6802 151.815 46.3883C151.513 46.2762 151.242 46.0985 151.025 45.8696C150.864 45.6959 150.752 45.4864 150.7 45.2607C150.665 45.1049 150.644 44.9466 150.637 44.7874V40.3368C150.644 40.1776 150.665 40.0193 150.7 39.8635C150.753 39.6379 150.864 39.4285 151.025 39.2546C151.242 39.026 151.513 38.8485 151.815 38.7359C152.762 38.4458 153.782 38.4458 154.728 38.7359C155.031 38.8485 155.301 39.0261 155.518 39.2546C155.678 39.4266 155.79 39.6336 155.844 39.8569C155.88 40.0142 155.901 40.1742 155.907 40.335V44.5484ZM154.59 44.399V40.5644C154.588 40.4653 154.573 40.3669 154.544 40.2716C154.507 40.1593 154.44 40.058 154.35 39.9776C154.23 39.8761 154.09 39.7972 153.939 39.7452C153.709 39.6726 153.468 39.6396 153.226 39.6478C152.997 39.6404 152.769 39.6734 152.553 39.7452C152.404 39.7964 152.269 39.878 152.158 39.9842C152.07 40.0694 152.008 40.1759 151.98 40.2919C151.956 40.3858 151.943 40.4817 151.94 40.5782V44.5472C151.942 44.6437 151.956 44.7396 151.98 44.8334C152.007 44.9497 152.069 45.0563 152.158 45.1412C152.269 45.2479 152.404 45.3296 152.553 45.3802C152.768 45.4531 152.997 45.4865 153.226 45.4788C153.468 45.4874 153.71 45.4539 153.939 45.3802C154.091 45.3292 154.231 45.2502 154.35 45.1477C154.44 45.0678 154.507 44.9669 154.544 44.8549C154.573 44.7593 154.588 44.6604 154.59 44.5609V44.399Z" fill="white"/>
<path id="Path 243" d="M166.659 46.4891H165.342V40.5798C165.34 40.4812 165.328 40.383 165.304 40.287C165.273 40.1759 165.215 40.0734 165.133 39.9882C165.025 39.8811 164.893 39.7993 164.745 39.7492C164.524 39.677 164.29 39.644 164.056 39.6518C163.817 39.6448 163.578 39.6778 163.35 39.7492C163.196 39.8004 163.054 39.8794 162.932 39.9817C162.842 40.0617 162.776 40.1633 162.742 40.2757C162.713 40.3658 162.697 40.4593 162.694 40.5535V46.4933H161.377V40.584C161.376 40.4854 161.363 40.3872 161.339 40.2912C161.309 40.1801 161.25 40.0777 161.169 39.9924C161.061 39.8853 160.928 39.8034 160.781 39.7534C160.559 39.6812 160.326 39.6481 160.092 39.656C159.852 39.649 159.613 39.682 159.385 39.7534C159.231 39.8042 159.089 39.8832 158.967 39.9859C158.876 40.0659 158.809 40.1673 158.773 40.2799C158.745 40.3702 158.729 40.4636 158.727 40.5577V46.4975H157.424V40.339C157.429 40.1782 157.45 40.0181 157.487 39.861C157.54 39.6373 157.652 39.43 157.813 39.2586C158.03 39.03 158.301 38.8524 158.603 38.7399C159.067 38.5767 159.562 38.5027 160.057 38.5224C160.467 38.5121 160.878 38.56 161.274 38.6646C161.548 38.7418 161.807 38.8611 162.041 39.0178C162.274 38.8606 162.533 38.7412 162.808 38.6646C163.203 38.56 163.613 38.512 164.024 38.5224C164.52 38.5024 165.015 38.5764 165.481 38.7399C165.783 38.8532 166.053 39.0307 166.271 39.2586C166.432 39.4325 166.544 39.6419 166.596 39.8675C166.631 40.0233 166.653 40.1816 166.659 40.3408V46.4909L166.659 46.4891Z" fill="white"/>
</g>
<g id="Group 640">
<path id="Path 244" d="M56.4722 39.0363H55.7051V42.7298H55.2027V39.0363H54.4413V38.6353H56.4716L56.4722 39.0363Z" fill="white"/>
<path id="Path 245" d="M58.4164 39.8272V42.7283H58.0606V41.4352H57.2518V42.7283H56.8916V39.8254H57.2518V41.1185H58.0606V39.8254L58.4164 39.8272Z" fill="white"/>
<path id="Path 246" d="M60.1388 42.7283H59.3078C59.2396 42.731 59.1716 42.7188 59.1092 42.6927C59.0467 42.6665 58.9915 42.6272 58.9476 42.5777C58.9086 42.5351 58.8786 42.4858 58.8592 42.4325C58.8396 42.3825 58.8294 42.3298 58.8289 42.2765V40.2783C58.8311 40.1677 58.873 40.0611 58.9476 39.9759C58.9896 39.9311 59.0402 39.8944 59.0968 39.8677C59.1629 39.8389 59.2351 39.8248 59.3078 39.8265H60.1388V40.1056H59.4266C59.3937 40.1044 59.3609 40.1102 59.3307 40.1225C59.3004 40.1348 59.2734 40.1533 59.2516 40.1767C59.2068 40.2228 59.183 40.2838 59.1853 40.3464V41.1196H59.9524V41.4357H59.1871V42.2126C59.186 42.2737 59.2098 42.333 59.2535 42.3781C59.2753 42.4013 59.3024 42.4196 59.3327 42.4317C59.363 42.4438 59.3957 42.4494 59.4285 42.448H60.1407L60.1388 42.7283Z" fill="white"/>
<path id="Path 247" d="M62.0409 40.4596H63.1392V40.906H62.0409V42.7304H61.5354V39.2747C61.5354 39.1994 61.5495 39.1248 61.5771 39.0542C61.6053 38.9785 61.6482 38.9083 61.7035 38.8474C61.7628 38.7832 61.8352 38.7309 61.9164 38.6938C62.0089 38.6533 62.1097 38.6329 62.2116 38.6341H63.3995V39.0297H62.379C62.3324 39.0277 62.2859 39.0355 62.2428 39.0526C62.1998 39.0696 62.1612 39.0955 62.13 39.1283C62.0694 39.1945 62.037 39.2797 62.039 39.3673V40.4567L62.0409 40.4596Z" fill="white"/>
<path id="Path 248" d="M63.8163 39.8271H64.1721V42.7283H63.8163V39.8271Z" fill="white"/>
<path id="Path 249" d="M65.8197 42.7302L65.3622 41.4891L65.2782 41.5189C65.2523 41.5285 65.2302 41.5351 65.2099 41.5411L65.1467 41.5614C65.1133 41.5717 65.0809 41.5849 65.0501 41.6008C65.0231 41.616 64.9999 41.6363 64.9818 41.6606C64.9614 41.6884 64.9498 41.7212 64.9483 41.755V42.732H64.5881V40.282C64.5898 40.2396 64.5955 40.1974 64.6052 40.1559C64.619 40.0956 64.6495 40.0399 64.6937 39.9946C64.7532 39.9334 64.827 39.8862 64.9091 39.8565C65.1681 39.778 65.4464 39.778 65.7054 39.8565C65.788 39.8858 65.8623 39.9331 65.9221 39.9946C65.9657 40.0403 65.9962 40.0958 66.0106 40.1559C66.0203 40.1974 66.026 40.2396 66.0276 40.282V40.9513C66.0272 41.0378 66.0016 41.1225 65.9537 41.1963C65.8925 41.2816 65.8039 41.3459 65.7009 41.3797L66.2001 42.7332L65.8197 42.7302ZM65.0425 41.256L65.1638 41.2166C65.2061 41.2028 65.2478 41.1891 65.2902 41.1742C65.3325 41.1592 65.3698 41.1467 65.4046 41.1371L65.4551 41.121L65.5013 41.1048C65.5301 41.0977 65.5571 41.0853 65.5808 41.0681C65.6045 41.051 65.6243 41.0295 65.639 41.005C65.6582 40.9703 65.669 40.9319 65.6706 40.8927V40.34C65.67 40.3134 65.6656 40.2871 65.6573 40.2617C65.6472 40.2319 65.6294 40.205 65.6055 40.1834C65.5725 40.1564 65.534 40.1361 65.4924 40.1236C65.4299 40.1039 65.3642 40.095 65.2984 40.0973C65.2355 40.0951 65.1727 40.104 65.1132 40.1236C65.0726 40.1372 65.036 40.1597 65.0065 40.1894C64.9829 40.2122 64.9659 40.2404 64.9572 40.2712C64.9504 40.2968 64.947 40.3231 64.9471 40.3495V41.2913L65.0425 41.256Z" fill="white"/>
<path id="Path 250" d="M67.8952 42.2747C67.8936 42.3175 67.8884 42.36 67.8794 42.402C67.8641 42.4616 67.8333 42.5167 67.7897 42.5621C67.7301 42.6233 67.6563 42.6705 67.5742 42.7002C67.3153 42.7787 67.0369 42.7787 66.778 42.7002C66.6956 42.6708 66.6218 42.6235 66.5625 42.5621C66.518 42.5168 66.487 42.4611 66.4728 42.4008C66.463 42.3593 66.4573 42.3171 66.4557 42.2747V42.1737H66.8115V42.2107C66.812 42.2372 66.8159 42.2634 66.8228 42.289C66.8308 42.3192 66.8474 42.3467 66.8709 42.3685C66.9014 42.3975 66.9386 42.4196 66.9795 42.433C67.0385 42.4527 67.1009 42.4616 67.1634 42.4593C67.2297 42.4618 67.2958 42.4529 67.3587 42.433C67.3996 42.4203 67.4374 42.4 67.4699 42.3733C67.4948 42.3521 67.5133 42.3251 67.5236 42.295C67.5316 42.271 67.5361 42.2461 67.5369 42.2209V41.7841C67.5351 41.7443 67.5248 41.7053 67.5066 41.6694C67.4923 41.6441 67.4726 41.6221 67.4486 41.6047C67.4246 41.5872 67.397 41.5749 67.3676 41.5684L67.3044 41.548C67.2812 41.5411 67.2584 41.5329 67.2361 41.5235L66.9202 41.4238C66.9128 41.4191 66.9043 41.4163 66.8955 41.4154C66.7628 41.3874 66.6436 41.3184 66.5568 41.2194C66.4938 41.141 66.4592 41.0454 66.4582 40.9469V40.2776C66.4599 40.2352 66.4656 40.193 66.4753 40.1515C66.4896 40.0912 66.5205 40.0355 66.565 39.9902C66.6243 39.9288 66.6982 39.8815 66.7805 39.8522C67.0394 39.7736 67.3178 39.7736 67.5767 39.8522C67.6589 39.8818 67.7326 39.9291 67.7922 39.9902C67.8361 40.0359 67.867 40.0914 67.8819 40.1515C67.8907 40.1931 67.8959 40.2353 67.8977 40.2776V40.3816H67.5388V40.338C67.5383 40.3114 67.5338 40.2851 67.5255 40.2597C67.5152 40.2296 67.4967 40.2026 67.4718 40.1814C67.4393 40.1547 67.4015 40.1344 67.3606 40.1217C67.2977 40.1018 67.2316 40.0929 67.1653 40.0954C67.1028 40.0931 67.0404 40.102 66.9814 40.1217C66.9404 40.1355 66.9032 40.158 66.8728 40.1874C66.8498 40.2105 66.8332 40.2386 66.8247 40.2693C66.8177 40.2949 66.8139 40.3211 66.8134 40.3475V40.8853C66.8151 40.9259 66.8259 40.9656 66.8449 41.0019C66.8602 41.0267 66.8807 41.0483 66.905 41.0654C66.9293 41.0826 66.957 41.0949 66.9865 41.1017C67.0001 41.1078 67.014 41.1131 67.0282 41.1178L67.08 41.1339C67.1306 41.1489 67.1887 41.168 67.2551 41.1901C67.3214 41.2122 67.3814 41.2325 67.4389 41.2528C67.4889 41.2643 67.5374 41.2807 67.5837 41.3018C67.6328 41.316 67.6783 41.3398 67.717 41.3718C67.755 41.4025 67.7886 41.4379 67.8168 41.4769C67.8697 41.5503 67.8975 41.6373 67.8964 41.7261V42.2747H67.8952Z" fill="white"/>
<path id="Path 251" d="M69.6642 40.1104H69.1214V42.7283H68.7657V40.1086H68.2241V39.8254H69.6642V40.1104Z" fill="white"/>
<path id="Path 252" d="M72.9818 40.1834V40.2175C72.9807 40.3563 72.9314 40.4909 72.8415 40.6005C72.7177 40.7401 72.549 40.8377 72.3612 40.8784C72.3485 40.8791 72.3361 40.8828 72.3252 40.8891L72.1312 40.9489C72.0617 40.9722 71.9966 40.9925 71.9372 41.0116C71.8645 41.0337 71.7982 41.057 71.7344 41.0786C71.6855 41.0901 71.639 41.109 71.5966 41.1347C71.559 41.1588 71.5257 41.1885 71.498 41.2226C71.4665 41.2629 71.4506 41.3123 71.4532 41.3624V42.7284H70.9476V39.2727C70.9496 39.2124 70.9574 39.1524 70.971 39.0935C70.9909 39.0075 71.0345 38.9282 71.0974 38.8634C71.1835 38.7776 71.2889 38.7113 71.4058 38.6692C71.7711 38.5597 72.1633 38.5597 72.5287 38.6692C72.6443 38.7113 72.7482 38.7777 72.8326 38.8634C72.8953 38.9283 72.9389 39.0076 72.959 39.0935C72.9727 39.1524 72.9805 39.2124 72.9824 39.2727V40.1816L72.9818 40.1834ZM71.5884 40.6531C71.6419 40.634 71.6984 40.6141 71.7578 40.5933C71.8209 40.5754 71.8778 40.5551 71.9372 40.5336C71.9966 40.5121 72.0503 40.4953 72.0977 40.4804L72.1704 40.4571C72.1938 40.4505 72.2165 40.4422 72.2336 40.435C72.275 40.4254 72.3139 40.4079 72.348 40.3837C72.3821 40.3594 72.4107 40.3289 72.432 40.294C72.4571 40.2423 72.4709 40.1864 72.4724 40.1296V39.3528C72.4719 39.3158 72.4662 39.279 72.4554 39.2434C72.4418 39.2005 72.4158 39.1619 72.3802 39.1323C72.3341 39.094 72.2804 39.0648 72.2222 39.0462C72.1336 39.0186 72.0405 39.006 71.9473 39.0092C71.8593 39.0063 71.7714 39.0189 71.6882 39.0462C71.6299 39.0645 71.5775 39.0966 71.5359 39.1395C71.5027 39.1714 71.4788 39.2109 71.4664 39.2542C71.457 39.2906 71.4521 39.3279 71.4519 39.3653V40.6931C71.4877 40.684 71.5332 40.6704 71.5884 40.6525V40.6531Z" fill="white"/>
<path id="Path 253" d="M74.7979 42.7302L74.3404 41.4891L74.2563 41.5189C74.2304 41.5285 74.207 41.5351 74.1881 41.5411L74.1249 41.5614C74.0915 41.5717 74.0591 41.5849 74.0282 41.6008C74.001 41.6156 73.9777 41.636 73.96 41.6606C73.9392 41.6883 73.9271 41.721 73.9252 41.755V42.732H73.5663V40.282C73.5681 40.2396 73.5734 40.1975 73.5821 40.1559C73.597 40.0958 73.6279 40.0402 73.6718 39.9946C73.7314 39.9334 73.8052 39.8862 73.8873 39.8565C74.1462 39.778 74.4246 39.778 74.6835 39.8565C74.7658 39.8858 74.8397 39.9331 74.899 39.9946C74.9435 40.0399 74.9744 40.0956 74.9887 40.1559C74.9987 40.1973 75.0046 40.2395 75.0064 40.282V40.9513C75.0062 41.038 74.9801 41.1229 74.9312 41.1963C74.8704 41.2819 74.7816 41.3463 74.6785 41.3797L75.1789 42.7332L74.7979 42.7302ZM74.0206 41.256L74.142 41.2166C74.1837 41.2028 74.226 41.1891 74.2684 41.1742C74.3107 41.1592 74.3492 41.1467 74.3827 41.1371L74.4345 41.121L74.4807 41.1048C74.5387 41.09 74.5882 41.0542 74.6184 41.005C74.6376 40.9703 74.6484 40.9319 74.65 40.8927V40.34C74.6495 40.3134 74.645 40.2871 74.6367 40.2617C74.6265 40.2316 74.6079 40.2045 74.583 40.1834C74.5509 40.1562 74.513 40.1358 74.4718 40.1236C74.409 40.1038 74.3428 40.0949 74.2766 40.0973C74.2141 40.0952 74.1517 40.1041 74.0927 40.1236C74.0516 40.1375 74.0145 40.1599 73.984 40.1894C73.9612 40.2126 73.9448 40.2407 73.936 40.2712C73.9288 40.2968 73.925 40.3231 73.9246 40.3495V41.2913C73.9511 41.2809 73.9832 41.2692 74.0206 41.256Z" fill="white"/>
<path id="Path 254" d="M76.8755 42.2336V42.2748C76.8742 42.3177 76.8685 42.3603 76.8585 42.4021C76.8444 42.4619 76.8139 42.5172 76.77 42.5622C76.7104 42.6234 76.6367 42.6706 76.5545 42.7003C76.2956 42.7788 76.0173 42.7788 75.7583 42.7003C75.6756 42.6707 75.6012 42.6234 75.5409 42.5622C75.4973 42.5165 75.4668 42.461 75.4525 42.4009C75.4428 42.3595 75.4371 42.3173 75.4354 42.2748V40.2754C75.4371 40.2329 75.4428 40.1907 75.4525 40.1493C75.4668 40.0892 75.4973 40.0336 75.5409 39.9879C75.6012 39.9268 75.6756 39.8795 75.7583 39.8499C76.0173 39.7714 76.2956 39.7714 76.5545 39.8499C76.6367 39.8795 76.7104 39.9268 76.77 39.9879C76.8142 40.0333 76.8447 40.089 76.8585 40.1493C76.8682 40.1907 76.8739 40.2329 76.8755 40.2754V42.2336ZM76.5154 42.1738H76.5198V40.3811H76.5154V40.3375C76.5155 40.311 76.5117 40.2847 76.504 40.2592C76.4938 40.2298 76.4765 40.203 76.4534 40.181C76.4205 40.1539 76.382 40.1335 76.3403 40.1212C76.277 40.1016 76.2104 40.0927 76.1438 40.0949C76.0813 40.0926 76.0189 40.1016 75.9599 40.1212C75.9187 40.1347 75.8815 40.1572 75.8512 40.1869C75.8279 40.21 75.811 40.2381 75.8019 40.2688C75.7953 40.2944 75.7919 40.3207 75.7918 40.3471V42.2139C75.7919 42.2402 75.7953 42.2665 75.8019 42.2922C75.8104 42.3224 75.8274 42.3499 75.8512 42.3716C75.8816 42.401 75.9188 42.4231 75.9599 42.4362C76.0189 42.4558 76.0813 42.4647 76.1438 42.4625C76.2104 42.4647 76.277 42.4558 76.3403 42.4362C76.382 42.4238 76.4205 42.4035 76.4534 42.3764C76.4765 42.3544 76.4938 42.3276 76.504 42.2981C76.5114 42.274 76.5153 42.2491 76.5154 42.224V42.1738Z" fill="white"/>
<path id="Path 255" d="M77.6438 41.1202H78.4224V41.4363H77.6438V42.7282H77.2881V40.2782C77.2886 40.1673 77.3307 40.0601 77.4069 39.9758C77.4487 39.9304 77.4998 39.8936 77.5573 39.8677C77.623 39.8392 77.6948 39.8251 77.7671 39.8264H78.6094V40.1055H77.8859C77.8527 40.1043 77.8196 40.1101 77.789 40.1223C77.7584 40.1346 77.7311 40.1532 77.7089 40.1766C77.666 40.2236 77.6435 40.2843 77.6457 40.3463V41.1196L77.6438 41.1202Z" fill="white"/>
<path id="Path 256" d="M80.2155 42.7283H79.3846C79.3118 42.7299 79.2396 42.7158 79.1735 42.687C79.1167 42.6607 79.0663 42.6235 79.0257 42.5777C78.9863 42.5351 78.9558 42.4858 78.9359 42.4325C78.9174 42.3823 78.9076 42.3296 78.9069 42.2765V40.2782C78.9076 40.2251 78.9174 40.1724 78.9359 40.1223C78.9561 40.0687 78.9865 40.0191 79.0257 39.9759C79.0668 39.9308 79.1171 39.894 79.1735 39.8677C79.2396 39.839 79.3118 39.8249 79.3846 39.8265H80.2155V40.1055H79.504C79.4711 40.1045 79.4384 40.1104 79.4081 40.1227C79.3779 40.1349 79.3508 40.1534 79.329 40.1767C79.2861 40.2237 79.2635 40.2843 79.2658 40.3464V41.1196H80.0317V41.4357H79.2658V42.2126C79.2638 42.2733 79.2864 42.3325 79.329 42.3781C79.3509 42.4012 79.378 42.4195 79.4082 42.4315C79.4385 42.4436 79.4712 42.4492 79.504 42.448H80.2162L80.2155 42.7283Z" fill="white"/>
<path id="Path 257" d="M82.0707 42.2747C82.0694 42.3175 82.0637 42.3602 82.0537 42.402C82.039 42.4616 82.0085 42.5167 81.9652 42.5621C81.9049 42.6233 81.8305 42.6705 81.7478 42.7002C81.4889 42.7787 81.2105 42.7787 80.9516 42.7002C80.8695 42.6705 80.7957 42.6233 80.7361 42.5621C80.692 42.5167 80.6615 42.461 80.6477 42.4008C80.638 42.3593 80.6323 42.3171 80.6306 42.2747V42.1737H80.9864V42.2107C80.9865 42.2371 80.9899 42.2634 80.9965 42.289C81.0049 42.3193 81.022 42.3468 81.0458 42.3685C81.0754 42.3978 81.112 42.4199 81.1526 42.433C81.2116 42.4526 81.274 42.4615 81.3365 42.4593C81.4027 42.4618 81.4688 42.4529 81.5317 42.433C81.5731 42.42 81.6114 42.3998 81.6448 42.3733C81.6688 42.3517 81.6866 42.3248 81.6967 42.295C81.7047 42.271 81.7091 42.2461 81.7099 42.2209V41.7841C81.708 41.7444 81.6981 41.7055 81.6809 41.6694C81.6663 41.6441 81.6463 41.6221 81.6221 41.6047C81.598 41.5873 81.5702 41.5749 81.5406 41.5684L81.4774 41.548C81.4527 41.5397 81.4293 41.5319 81.4091 41.5235L81.0932 41.4238C81.0852 41.4193 81.0764 41.4164 81.0673 41.4154C80.9345 41.3874 80.8154 41.3184 80.7286 41.2194C80.6661 41.1408 80.6322 41.0452 80.6319 40.9469V40.2776C80.6335 40.2352 80.6392 40.193 80.6489 40.1515C80.6627 40.0913 80.6933 40.0356 80.7374 39.9902C80.797 39.9291 80.8708 39.8818 80.9529 39.8522C81.2118 39.7736 81.4902 39.7736 81.7491 39.8522C81.8318 39.8818 81.9062 39.929 81.9665 39.9902C82.0101 40.0359 82.0406 40.0915 82.0549 40.1515C82.0647 40.193 82.0704 40.2352 82.072 40.2776V40.3816H81.7118V40.338C81.7113 40.3114 81.7068 40.2851 81.6985 40.2597C81.6885 40.2299 81.6707 40.203 81.6467 40.1814C81.6133 40.1549 81.575 40.1347 81.5336 40.1217C81.4707 40.1018 81.4046 40.0929 81.3384 40.0954C81.2759 40.0932 81.2135 40.1021 81.1545 40.1217C81.1138 40.1352 81.0772 40.1577 81.0477 40.1874C81.0244 40.2104 81.0074 40.2386 80.9984 40.2693C80.9918 40.2949 80.9884 40.3212 80.9883 40.3475V40.8853C80.9893 40.926 81.0001 40.9658 81.0199 41.0019C81.035 41.0268 81.0553 41.0485 81.0797 41.0657C81.104 41.0828 81.1319 41.0951 81.1614 41.1017C81.1748 41.1082 81.1887 41.1136 81.2031 41.1178L81.2537 41.1339C81.3042 41.1489 81.3636 41.168 81.4287 41.1901C81.4938 41.2122 81.5551 41.2325 81.6139 41.2528C81.6635 41.2641 81.7116 41.2805 81.7573 41.3018C81.8065 41.316 81.8519 41.3398 81.8906 41.3718C81.9294 41.4018 81.9631 41.4372 81.9905 41.4769C82.0438 41.5502 82.072 41.6372 82.0714 41.7261V42.2747H82.0707Z" fill="white"/>
<path id="Path 258" d="M83.9236 42.2747C83.9228 42.3175 83.9175 42.3602 83.9078 42.402C83.8925 42.4616 83.8616 42.5167 83.818 42.5621C83.7585 42.6233 83.6847 42.6705 83.6026 42.7002C83.3436 42.7787 83.0653 42.7787 82.8064 42.7002C82.7242 42.6705 82.6505 42.6233 82.5909 42.5621C82.5464 42.5168 82.5155 42.4611 82.5011 42.4008C82.4917 42.3593 82.4864 42.3171 82.4854 42.2747V42.1737H82.8399V42.2108C82.8404 42.2372 82.8442 42.2635 82.8512 42.2891C82.8597 42.319 82.8762 42.3464 82.8993 42.3685C82.9298 42.3976 82.967 42.4197 83.0079 42.4331C83.067 42.4526 83.1293 42.4615 83.1918 42.4594C83.258 42.4618 83.3242 42.4529 83.3871 42.4331C83.428 42.4204 83.4658 42.4 83.4983 42.3733C83.5232 42.3522 83.5417 42.3252 83.552 42.295C83.56 42.271 83.5644 42.2461 83.5653 42.2209V41.7841C83.5635 41.7443 83.5532 41.7053 83.5349 41.6694C83.5207 41.6442 83.501 41.6221 83.477 41.6047C83.453 41.5873 83.4254 41.5749 83.3959 41.5684L83.3327 41.5481C83.3068 41.5397 83.2847 41.5319 83.2645 41.5236L82.9485 41.4238C82.9412 41.4192 82.9327 41.4163 82.9239 41.4154C82.7911 41.3874 82.672 41.3184 82.5852 41.2194C82.5228 41.1408 82.4889 41.0452 82.4885 40.9469V40.2777C82.4896 40.2353 82.4949 40.193 82.5043 40.1516C82.5186 40.0912 82.5496 40.0356 82.594 39.9902C82.6536 39.9291 82.7274 39.8818 82.8095 39.8522C83.0684 39.7737 83.3468 39.7737 83.6057 39.8522C83.6879 39.8818 83.7616 39.9291 83.8212 39.9902C83.8651 40.036 83.896 40.0915 83.9109 40.1516C83.9204 40.193 83.9257 40.2353 83.9267 40.2777V40.3816H83.5678V40.338C83.5672 40.3115 83.5628 40.2851 83.5545 40.2597C83.5443 40.2296 83.5257 40.2026 83.5008 40.1814C83.4683 40.1547 83.4305 40.1344 83.3896 40.1217C83.3267 40.1019 83.2606 40.0929 83.1943 40.0954C83.1319 40.0933 83.0695 40.1022 83.0105 40.1217C82.9694 40.1355 82.9323 40.158 82.9018 40.1874C82.8793 40.2108 82.8629 40.2389 82.8537 40.2693C82.8468 40.2949 82.843 40.3211 82.8424 40.3476V40.8854C82.8441 40.9259 82.8549 40.9656 82.874 41.0019C82.8895 41.0265 82.9099 41.048 82.9342 41.0652C82.9585 41.0823 82.9861 41.0947 83.0155 41.1017C83.0296 41.108 83.0442 41.1134 83.0591 41.1178L83.1097 41.134C83.1602 41.1489 83.2184 41.168 83.2847 41.1901C83.3511 41.2122 83.4111 41.2326 83.4686 41.2529C83.5186 41.2641 83.5671 41.2805 83.6133 41.3019C83.6625 41.316 83.7079 41.3398 83.7466 41.3718C83.7847 41.4025 83.8182 41.4379 83.8465 41.477C83.8994 41.5504 83.9272 41.6373 83.9261 41.7262V42.2747H83.9236Z" fill="white"/>
<path id="Path 259" d="M84.3401 39.8271H84.6959V42.7283H84.3401V39.8271Z" fill="white"/>
<path id="Path 260" d="M86.5521 42.2336V42.2748C86.5507 42.3177 86.545 42.3603 86.535 42.4021C86.5203 42.4617 86.4898 42.5168 86.4465 42.5622C86.3863 42.6234 86.3119 42.6707 86.2292 42.7003C85.9703 42.7788 85.6919 42.7788 85.4329 42.7003C85.3508 42.6706 85.277 42.6234 85.2175 42.5622C85.1733 42.5169 85.1428 42.4612 85.129 42.4009C85.1193 42.3595 85.1135 42.3173 85.1119 42.2748V40.2754C85.1135 40.2329 85.1193 40.1907 85.129 40.1493C85.1428 40.089 85.1733 40.0333 85.2175 39.9879C85.277 39.9268 85.3508 39.8795 85.4329 39.8499C85.6919 39.7714 85.9703 39.7714 86.2292 39.8499C86.3119 39.8795 86.3863 39.9268 86.4465 39.9879C86.4902 40.0336 86.5206 40.0892 86.535 40.1493C86.5447 40.1907 86.5504 40.2329 86.5521 40.2754V42.2336ZM86.1919 42.1738H86.1963V40.3811H86.1906V40.3375C86.1901 40.311 86.1856 40.2846 86.1773 40.2592C86.1678 40.2295 86.1504 40.2026 86.1268 40.181C86.0947 40.1537 86.0568 40.1333 86.0156 40.1212C85.952 40.1017 85.8852 40.0928 85.8184 40.0949C85.7555 40.0927 85.6927 40.1016 85.6333 40.1212C85.5926 40.1347 85.556 40.1573 85.5265 40.1869C85.5032 40.21 85.4862 40.2381 85.4772 40.2688C85.4706 40.2944 85.4672 40.3207 85.4671 40.3471V42.2139C85.4672 42.2402 85.4706 42.2665 85.4772 42.2922C85.4856 42.3224 85.5027 42.3499 85.5265 42.3716C85.5561 42.4009 85.5927 42.423 85.6333 42.4362C85.6927 42.4558 85.7555 42.4647 85.8184 42.4625C85.8852 42.4646 85.952 42.4557 86.0156 42.4362C86.0568 42.4241 86.0947 42.4037 86.1268 42.3764C86.1504 42.3548 86.1678 42.3278 86.1773 42.2981C86.1853 42.2741 86.1898 42.2492 86.1906 42.224L86.1919 42.1738Z" fill="white"/>
<path id="Path 261" d="M88.4074 42.7302H88.0472V40.34C88.0467 40.3134 88.0422 40.2871 88.034 40.2617C88.0238 40.2322 88.0065 40.2054 87.9834 40.1834C87.951 40.1556 87.9123 40.1351 87.8703 40.1236C87.8068 40.1039 87.74 40.095 87.6731 40.0973C87.6106 40.0952 87.5483 40.1041 87.4893 40.1236C87.4482 40.1375 87.4111 40.1599 87.3806 40.1894C87.3578 40.2126 87.3413 40.2407 87.3325 40.2712C87.3254 40.2968 87.3215 40.3231 87.3212 40.3495V42.732H86.9667V40.282C86.9685 40.2396 86.9737 40.1975 86.9825 40.1559C86.9974 40.0958 87.0283 40.0403 87.0722 39.9946C87.1318 39.9334 87.2055 39.8862 87.2877 39.8565C87.5466 39.778 87.825 39.778 88.0839 39.8565C88.166 39.8862 88.2398 39.9334 88.2994 39.9946C88.3438 40.0399 88.3748 40.0956 88.3891 40.1559C88.3988 40.1974 88.4045 40.2396 88.4062 40.282V42.732L88.4074 42.7302Z" fill="white"/>
<path id="Path 262" d="M90.2614 42.7301H89.9024V41.3891C89.8968 41.3891 89.8664 41.4029 89.8115 41.4208C89.7565 41.4387 89.6958 41.4602 89.6307 41.4806L89.378 41.5612C89.343 41.5692 89.3097 41.5825 89.2794 41.6007C89.2536 41.6177 89.2302 41.6378 89.2099 41.6604C89.1877 41.6889 89.1765 41.7237 89.1783 41.759V42.7277H88.8225V40.2777C88.8242 40.2352 88.8298 40.193 88.8396 40.1516C88.8539 40.0915 88.8844 40.0359 88.928 39.9902C88.9883 39.9291 89.0627 39.8818 89.1454 39.8522C89.4043 39.7737 89.6827 39.7737 89.9416 39.8522C90.0238 39.8818 90.0975 39.9291 90.1571 39.9902C90.2011 40.0359 90.2319 40.0915 90.2468 40.1516C90.2555 40.1932 90.2608 40.2353 90.2626 40.2777L90.2614 42.7301ZM89.3047 41.2463C89.3641 41.226 89.4235 41.2069 89.4841 41.1866L89.649 41.1334C89.6771 41.1251 89.7048 41.1156 89.7318 41.1047C89.7612 41.0981 89.7889 41.0859 89.813 41.0687C89.8372 41.0515 89.8573 41.0298 89.8721 41.0049C89.8907 40.9685 89.9011 40.9288 89.9024 40.8884V40.3398C89.9019 40.3133 89.8974 40.2869 89.8892 40.2615C89.8789 40.2314 89.8604 40.2044 89.8355 40.1832C89.8033 40.1561 89.7654 40.1357 89.7242 40.1235C89.6613 40.1038 89.5952 40.0949 89.529 40.0972C89.4665 40.0949 89.4041 40.1039 89.3451 40.1235C89.3041 40.1373 89.2669 40.1598 89.2364 40.1892C89.2133 40.2124 89.1965 40.2405 89.1871 40.2711C89.1811 40.2968 89.1777 40.323 89.177 40.3494V41.2911C89.2036 41.2804 89.2453 41.2666 89.3047 41.2463Z" fill="white"/>
<path id="Path 263" d="M91.93 42.4462V42.7295H91.1585C91.0851 42.7313 91.0122 42.7172 90.9455 42.6882C90.8887 42.6619 90.8383 42.6247 90.7976 42.5789C90.7586 42.5363 90.7286 42.487 90.7092 42.4337C90.6896 42.3837 90.6793 42.331 90.6788 42.2777V39.8277H91.0346V42.2144C91.0326 42.2748 91.0552 42.3336 91.0978 42.3787C91.1202 42.4015 91.1476 42.4195 91.178 42.4313C91.2084 42.4432 91.2412 42.4487 91.2741 42.4474H91.93V42.4462Z" fill="white"/>
<path id="Path 264" d="M95.3582 42.7299H94.8527V39.3579C94.8522 39.3209 94.8465 39.2841 94.8357 39.2485C94.8216 39.2063 94.7966 39.1681 94.763 39.1374C94.7173 39.0985 94.6635 39.0691 94.605 39.0513C94.5153 39.024 94.4212 39.0114 94.327 39.0143C94.2385 39.0114 94.1503 39.024 94.0666 39.0513C94.0089 39.0704 93.9568 39.1023 93.915 39.1445C93.8816 39.1762 93.858 39.2158 93.8467 39.2593C93.8368 39.2956 93.8315 39.3329 93.8309 39.3704V42.7305H93.3304V39.2748C93.3324 39.2145 93.3402 39.1545 93.3538 39.0955C93.3739 39.0097 93.4175 38.9304 93.4802 38.8655C93.5644 38.7795 93.6684 38.713 93.7841 38.6713C94.1495 38.5618 94.5417 38.5618 94.9071 38.6713C95.023 38.7133 95.1274 38.7797 95.2123 38.8655C95.2745 38.9307 95.318 39.0099 95.3387 39.0955C95.3526 39.1545 95.3608 39.2145 95.3633 39.2748V42.7305L95.3582 42.7299Z" fill="white"/>
<path id="Path 265" d="M97.2513 42.7283H96.4222C96.3489 42.7301 96.276 42.716 96.2093 42.687C96.0988 42.6342 96.0144 42.543 95.9736 42.4325C95.954 42.3825 95.9437 42.3298 95.9432 42.2765V40.2783C95.9427 40.1932 95.9673 40.1096 96.0143 40.0371C96.0613 39.9645 96.1288 39.9059 96.2093 39.8677C96.276 39.8388 96.3489 39.8247 96.4222 39.8265H97.2513V40.1056H96.5404C96.5073 40.1046 96.4744 40.1104 96.4439 40.1227C96.4135 40.135 96.3862 40.1534 96.3641 40.1767C96.3212 40.2237 96.2986 40.2843 96.3009 40.3464V41.1196H97.068V41.4357H96.299V42.2126C96.297 42.2733 96.3196 42.3325 96.3622 42.3781C96.3844 42.4012 96.4117 42.4195 96.4422 42.4315C96.4726 42.4436 96.5055 42.4492 96.5385 42.448H97.2494L97.2513 42.7283Z" fill="white"/>
<path id="Path 266" d="M99.0224 40.1104H98.4796V42.7283H98.1238V40.1086H97.5823V39.8254H99.0224V40.1104Z" fill="white"/>
<path id="Path 267" d="M101.844 42.3344C101.845 42.4112 101.841 42.4881 101.833 42.5645C101.822 42.6223 101.792 42.6752 101.746 42.715C101.693 42.764 101.625 42.7972 101.552 42.8107C101.479 42.8266 101.403 42.8237 101.332 42.8023C101.261 42.7802 101.183 42.7557 101.099 42.7282L100.861 42.6499C100.847 42.6445 100.827 42.6374 100.798 42.6296L100.735 42.6093C100.72 42.6492 100.695 42.6852 100.662 42.7144C100.609 42.7634 100.541 42.7966 100.468 42.8101C100.395 42.8259 100.319 42.8231 100.247 42.8017C100.178 42.7796 100.099 42.7551 100.017 42.7276C99.935 42.7001 99.8554 42.6726 99.7815 42.6493C99.7625 42.6439 99.7353 42.6356 99.6987 42.623C99.662 42.6105 99.6437 42.6039 99.6355 42.6009C99.6022 42.5901 99.566 42.5764 99.5268 42.5597C99.4875 42.5437 99.4524 42.5199 99.4238 42.4898C99.39 42.4553 99.3639 42.4146 99.3473 42.3702C99.3249 42.3078 99.3146 42.242 99.317 42.176V39.8264H99.6728V42.0762C99.6714 42.1232 99.6839 42.1695 99.7088 42.2101C99.7317 42.2458 99.7623 42.2765 99.7985 42.3003C99.8345 42.3252 99.8747 42.3442 99.9173 42.3565C99.9609 42.3702 100.001 42.384 100.037 42.3959C100.102 42.4185 100.168 42.4359 100.236 42.4479C100.271 42.4574 100.309 42.4574 100.344 42.4479C100.357 42.4424 100.367 42.434 100.375 42.4236C100.383 42.4131 100.388 42.4009 100.389 42.3882C100.396 42.3521 100.399 42.3155 100.398 42.2788V39.8288H100.757V42.0786C100.756 42.1255 100.768 42.1719 100.793 42.2125C100.816 42.2482 100.847 42.2789 100.883 42.3027C100.918 42.327 100.957 42.346 100.999 42.3589C101.042 42.3726 101.081 42.3864 101.117 42.3983C101.182 42.4207 101.249 42.4381 101.317 42.4503C101.353 42.4596 101.391 42.4596 101.427 42.4503C101.439 42.4449 101.45 42.4365 101.458 42.4261C101.466 42.4156 101.471 42.4034 101.473 42.3906C101.48 42.3545 101.483 42.3178 101.482 42.2812V39.8312H101.842V42.341L101.844 42.3344Z" fill="white"/>
<path id="Path 268" d="M103.7 42.2336V42.2748C103.699 42.3176 103.693 42.3602 103.684 42.4021C103.669 42.4617 103.638 42.5168 103.595 42.5622C103.535 42.6234 103.461 42.6706 103.379 42.7003C103.12 42.7788 102.842 42.7788 102.583 42.7003C102.501 42.6706 102.426 42.6234 102.366 42.5622C102.323 42.5165 102.292 42.461 102.278 42.4009C102.268 42.3595 102.262 42.3173 102.26 42.2748V40.2754C102.262 40.2329 102.268 40.1907 102.278 40.1493C102.292 40.0892 102.323 40.0336 102.366 39.9879C102.426 39.9268 102.501 39.8796 102.583 39.8499C102.842 39.7714 103.12 39.7714 103.379 39.8499C103.461 39.8795 103.535 39.9268 103.595 39.9879C103.639 40.0336 103.67 40.0892 103.684 40.1493C103.693 40.1909 103.698 40.233 103.7 40.2754V42.2336ZM103.341 42.1738V40.3811V40.3375C103.341 40.311 103.336 40.2846 103.328 40.2592C103.318 40.2298 103.301 40.2029 103.278 40.181C103.245 40.1539 103.206 40.1335 103.164 40.1212C103.101 40.1015 103.035 40.0926 102.968 40.0949C102.905 40.0926 102.843 40.1016 102.784 40.1212C102.743 40.135 102.706 40.1575 102.675 40.1869C102.652 40.21 102.635 40.2381 102.626 40.2688C102.62 40.2945 102.617 40.3207 102.616 40.3471V42.2139C102.617 42.2402 102.62 42.2664 102.626 42.2922C102.634 42.3224 102.651 42.3499 102.675 42.3716C102.706 42.4007 102.743 42.4227 102.784 42.4362C102.843 42.4558 102.905 42.4647 102.968 42.4625C103.035 42.4648 103.101 42.4559 103.164 42.4362C103.206 42.4238 103.245 42.4035 103.278 42.3764C103.301 42.3544 103.318 42.3276 103.328 42.2981C103.336 42.2741 103.341 42.2492 103.341 42.224V42.1738Z" fill="white"/>
<path id="Path 269" d="M105.349 42.7302L104.891 41.4891L104.807 41.5189C104.781 41.5285 104.759 41.5351 104.738 41.541L104.675 41.5614C104.642 41.5717 104.609 41.5849 104.579 41.6008C104.552 41.616 104.528 41.6363 104.51 41.6606C104.49 41.6884 104.478 41.7211 104.477 41.755V42.732H104.117V40.282C104.118 40.2395 104.124 40.1973 104.134 40.1559C104.147 40.0956 104.178 40.0399 104.222 39.9945C104.282 39.9334 104.355 39.8862 104.438 39.8565C104.697 39.7781 104.976 39.7781 105.235 39.8565C105.317 39.8862 105.391 39.9334 105.451 39.9945C105.494 40.0403 105.525 40.0958 105.539 40.1559C105.549 40.1973 105.554 40.2395 105.556 40.282V40.9512C105.558 41.0462 105.527 41.1391 105.468 41.2162C105.409 41.2934 105.326 41.3507 105.231 41.3797L105.73 42.7332L105.349 42.7302ZM104.572 41.256L104.692 41.2166C104.734 41.2028 104.776 41.1891 104.819 41.1741C104.861 41.1592 104.898 41.1466 104.933 41.1371L104.984 41.121L105.03 41.1048C105.059 41.0979 105.086 41.0855 105.109 41.0684C105.133 41.0512 105.153 41.0296 105.167 41.005C105.187 40.9702 105.197 40.9319 105.199 40.8927V40.3399C105.198 40.3134 105.194 40.287 105.186 40.2617C105.176 40.2319 105.158 40.205 105.134 40.1834C105.101 40.1564 105.062 40.1361 105.021 40.1236C104.958 40.1038 104.893 40.0949 104.827 40.0973C104.764 40.0951 104.701 40.104 104.642 40.1236C104.601 40.137 104.564 40.1596 104.534 40.1894C104.511 40.2122 104.494 40.2404 104.485 40.2712C104.478 40.2968 104.475 40.3231 104.475 40.3495V41.2913L104.572 41.256Z" fill="white"/>
<path id="Path 270" d="M107.216 42.7283L106.759 41.4872L106.675 41.5171C106.649 41.5266 106.625 41.5332 106.606 41.5392L106.543 41.5595C106.509 41.5672 106.476 41.5806 106.446 41.5989C106.42 41.6156 106.396 41.6357 106.376 41.6587C106.354 41.6874 106.343 41.7221 106.344 41.7573V42.7283H105.985V39.8254H106.344V41.287L106.439 41.2571L106.558 41.2177L106.685 41.1723C106.728 41.1585 106.766 41.1448 106.799 41.1352L106.902 41.1024C106.96 41.0876 107.01 41.0517 107.04 41.0026C107.059 40.9662 107.07 40.9265 107.071 40.8861V39.8254H107.426V40.9464C107.427 41.0414 107.396 41.1342 107.338 41.2114C107.279 41.2885 107.196 41.3458 107.1 41.3749L107.601 42.7283H107.216Z" fill="white"/>
<path id="Path 271" d="M109.207 38.6353H109.708V42.7298H109.207V38.6353Z" fill="white"/>
<path id="Path 272" d="M111.735 42.7302H111.374V40.34C111.374 40.3134 111.369 40.2871 111.361 40.2617C111.352 40.232 111.334 40.205 111.311 40.1834C111.278 40.1556 111.239 40.1351 111.197 40.1236C111.134 40.1039 111.068 40.095 111.001 40.0973C110.938 40.0952 110.876 40.1041 110.817 40.1236C110.776 40.1375 110.739 40.1599 110.708 40.1894C110.686 40.2126 110.669 40.2407 110.66 40.2712C110.654 40.2968 110.65 40.3231 110.65 40.3495V42.732H110.294V40.282C110.296 40.2396 110.301 40.1975 110.31 40.1559C110.325 40.0958 110.356 40.0402 110.4 39.9946C110.46 39.9334 110.533 39.8862 110.615 39.8565C110.874 39.778 111.153 39.778 111.412 39.8565C111.494 39.8858 111.568 39.9331 111.627 39.9946C111.672 40.0399 111.703 40.0956 111.717 40.1559C111.727 40.1974 111.732 40.2396 111.734 40.282V42.732L111.735 42.7302Z" fill="white"/>
<path id="Path 273" d="M115.042 39.0363H114.276V42.7298H113.776V39.0363H113.01V38.6353H115.042V39.0363Z" fill="white"/>
<path id="Path 274" d="M116.985 39.8272V42.7283H116.629V41.4352H115.821V42.7283H115.46V39.8254H115.821V41.1185H116.629V39.8254L116.985 39.8272Z" fill="white"/>
<path id="Path 275" d="M118.709 42.7282H117.878C117.806 42.7298 117.734 42.7157 117.667 42.687C117.611 42.6607 117.56 42.6235 117.52 42.5777C117.48 42.5351 117.45 42.4858 117.43 42.4325C117.411 42.3823 117.402 42.3296 117.401 42.2765V40.2782C117.402 40.2251 117.411 40.1724 117.43 40.1223C117.45 40.0687 117.48 40.0191 117.52 39.9759C117.561 39.9308 117.611 39.894 117.667 39.8677C117.734 39.839 117.806 39.8249 117.878 39.8265H118.709V40.1055H117.997C117.964 40.1045 117.932 40.1104 117.901 40.1227C117.871 40.1349 117.844 40.1534 117.822 40.1766C117.779 40.2237 117.757 40.2843 117.759 40.3464V41.1196H118.525V41.4357H117.759V42.2126C117.757 42.2733 117.78 42.3325 117.822 42.3781C117.844 42.4012 117.871 42.4195 117.901 42.4315C117.932 42.4436 117.964 42.4492 117.997 42.448H118.709L118.709 42.7282Z" fill="white"/>
<path id="Path 276" d="M123.665 42.7297H123.162V39.3577C123.162 39.3207 123.156 39.2839 123.145 39.2483C123.131 39.2056 123.105 39.1672 123.07 39.1372C123.024 39.0989 122.97 39.0696 122.912 39.0511C122.824 39.0235 122.731 39.0109 122.637 39.0141C122.547 39.0111 122.457 39.0236 122.371 39.0511C122.314 39.0698 122.263 39.1019 122.222 39.1444C122.192 39.1774 122.17 39.2167 122.159 39.2591C122.149 39.2955 122.145 39.3328 122.144 39.3702V42.7303H121.639V39.3583C121.638 39.3211 121.632 39.2843 121.62 39.2489C121.606 39.2062 121.581 39.1678 121.546 39.1378C121.499 39.0995 121.445 39.0703 121.387 39.0517C121.299 39.024 121.206 39.0115 121.113 39.0147C121.025 39.0117 120.936 39.0243 120.853 39.0517C120.795 39.0708 120.743 39.1028 120.701 39.145C120.668 39.1769 120.644 39.2164 120.632 39.2597C120.622 39.2961 120.617 39.3334 120.617 39.3708V42.7309H120.112V39.2752C120.114 39.2149 120.122 39.1549 120.136 39.096C120.156 39.01 120.2 38.9306 120.263 38.8659C120.349 38.7805 120.454 38.7142 120.571 38.6717C120.751 38.6101 120.942 38.5823 121.133 38.5898C121.29 38.5857 121.447 38.6036 121.599 38.643C121.703 38.6727 121.802 38.7175 121.892 38.7757C121.984 38.7183 122.084 38.6737 122.19 38.643C122.342 38.6036 122.498 38.5857 122.656 38.5898C122.847 38.5821 123.038 38.6099 123.217 38.6717C123.334 38.7135 123.438 38.7799 123.523 38.8659C123.585 38.9311 123.628 39.0103 123.649 39.096C123.663 39.1549 123.671 39.2149 123.674 39.2752V42.7309L123.665 42.7297Z" fill="white"/>
<path id="Path 277" d="M124.251 39.8271H124.607V42.7283H124.251V39.8271Z" fill="white"/>
<path id="Path 278" d="M126.463 42.1727V42.2779C126.462 42.3311 126.452 42.3839 126.433 42.4338C126.413 42.4871 126.383 42.5364 126.344 42.579C126.303 42.6249 126.252 42.6621 126.195 42.6884C126.129 42.7173 126.057 42.7314 125.984 42.7296H125.023V39.8267H125.984C126.052 39.8242 126.12 39.8364 126.182 39.8622C126.245 39.8881 126.3 39.927 126.344 39.9761C126.419 40.0613 126.461 40.1678 126.463 40.2784V42.1727ZM126.107 40.38V40.3442C126.109 40.2821 126.087 40.2215 126.044 40.1745C126.022 40.1512 125.995 40.1328 125.964 40.1205C125.934 40.1082 125.901 40.1024 125.868 40.1033H125.386V42.4464H125.868C125.901 42.4476 125.934 42.442 125.964 42.4299C125.994 42.4178 126.022 42.3996 126.044 42.3765C126.087 42.3309 126.109 42.2717 126.107 42.2109V40.38Z" fill="white"/>
<path id="Path 279" d="M128.316 42.1725V42.2777C128.316 42.3309 128.305 42.3837 128.286 42.4336C128.266 42.4867 128.236 42.5359 128.197 42.5789C128.153 42.6283 128.098 42.6677 128.036 42.6938C127.973 42.7199 127.905 42.7321 127.837 42.7294H126.876V39.8265H127.837C127.91 39.8249 127.982 39.839 128.048 39.8677C128.105 39.8944 128.155 39.9311 128.197 39.9759C128.236 40.0195 128.265 40.069 128.286 40.1223C128.305 40.1722 128.316 40.225 128.316 40.2782V42.1725ZM127.96 40.3798V40.344C127.963 40.2814 127.939 40.2204 127.894 40.1743C127.872 40.1509 127.845 40.1324 127.815 40.1201C127.785 40.1078 127.752 40.102 127.719 40.1032H127.236V42.4462H127.719C127.752 42.4476 127.785 42.442 127.815 42.4299C127.845 42.4178 127.872 42.3995 127.894 42.3763C127.938 42.3312 127.961 42.2719 127.96 42.2108V40.3798Z" fill="white"/>
<path id="Path 280" d="M129.987 42.4462V42.7295H129.211C129.143 42.7322 129.075 42.72 129.013 42.6939C128.95 42.6677 128.895 42.6284 128.851 42.5789C128.812 42.5363 128.782 42.487 128.763 42.4337C128.743 42.3837 128.733 42.331 128.732 42.2777V39.8277H129.088V42.2144C129.086 42.2753 129.11 42.3344 129.154 42.3787C129.177 42.4015 129.204 42.4195 129.234 42.4313C129.264 42.4432 129.297 42.4487 129.329 42.4474H129.987V42.4462Z" fill="white"/>
<path id="Path 281" d="M131.709 42.7283H130.878C130.81 42.7309 130.742 42.7187 130.679 42.6926C130.617 42.6665 130.562 42.6272 130.518 42.5777C130.479 42.5351 130.449 42.4858 130.429 42.4325C130.41 42.3825 130.4 42.3298 130.399 42.2765V40.2783C130.398 40.1929 130.423 40.1091 130.47 40.0365C130.518 39.9638 130.586 39.9053 130.667 39.8677C130.733 39.8388 130.805 39.8247 130.878 39.8265H131.709V40.1056H130.997C130.964 40.1044 130.931 40.1101 130.901 40.1224C130.871 40.1347 130.844 40.1533 130.822 40.1767C130.777 40.2228 130.753 40.2838 130.755 40.3464V41.1196H131.523V41.4357H130.755V42.2126C130.754 42.2737 130.778 42.333 130.822 42.3781C130.844 42.4013 130.871 42.4196 130.901 42.4317C130.931 42.4438 130.964 42.4494 130.997 42.448H131.709V42.7283Z" fill="white"/>
<path id="Path 282" d="M134.951 42.73H133.78C133.685 42.7329 133.59 42.7153 133.502 42.6786C133.415 42.6418 133.337 42.5869 133.275 42.5179C133.169 42.3984 133.111 42.2481 133.109 42.0924V39.2743C133.109 39.199 133.123 39.1244 133.15 39.0538C133.179 38.978 133.222 38.9079 133.277 38.847C133.339 38.778 133.416 38.723 133.504 38.6863C133.592 38.6496 133.687 38.632 133.782 38.6349H134.953V39.0305H133.95C133.904 39.0284 133.858 39.0362 133.815 39.0533C133.772 39.0703 133.734 39.0962 133.703 39.1291C133.641 39.1948 133.608 39.2802 133.61 39.3681V40.4575H134.691V40.9038H133.61V41.9998C133.608 42.0862 133.641 42.17 133.703 42.234C133.734 42.2669 133.772 42.2928 133.815 42.3098C133.858 42.3269 133.904 42.3347 133.95 42.3326H134.953L134.951 42.73Z" fill="white"/>
<path id="Path 283" d="M136.975 42.73H136.616V41.3891C136.611 41.3891 136.58 41.4028 136.525 41.4208C136.47 41.4387 136.41 41.4602 136.345 41.4805L136.092 41.5612C136.057 41.5689 136.025 41.5823 135.995 41.6006C135.969 41.6173 135.945 41.6374 135.924 41.6604C135.903 41.6891 135.892 41.7238 135.893 41.759V42.7276H135.538V40.2776C135.539 40.2352 135.545 40.193 135.554 40.1515C135.568 40.0912 135.599 40.0355 135.644 39.9902C135.703 39.9291 135.777 39.8818 135.859 39.8522C136.118 39.7736 136.397 39.7736 136.655 39.8522C136.738 39.8818 136.811 39.9291 136.871 39.9902C136.915 40.0359 136.946 40.0914 136.961 40.1515C136.97 40.193 136.975 40.2352 136.976 40.2776L136.975 42.73ZM136.019 41.2463C136.078 41.226 136.139 41.2068 136.2 41.1865L136.365 41.1333C136.414 41.117 136.442 41.1074 136.448 41.1047C136.477 41.0981 136.504 41.0859 136.528 41.0687C136.552 41.0515 136.572 41.0298 136.587 41.0049C136.605 40.9685 136.616 40.9288 136.617 40.8883V40.3398C136.616 40.3132 136.612 40.2869 136.604 40.2615C136.593 40.2314 136.575 40.2044 136.55 40.1832C136.518 40.156 136.48 40.1357 136.439 40.1235C136.376 40.1036 136.31 40.0947 136.243 40.0972C136.181 40.095 136.119 40.1039 136.06 40.1235C136.018 40.1373 135.981 40.1598 135.951 40.1892C135.928 40.2124 135.912 40.2405 135.903 40.2711C135.896 40.2966 135.892 40.3229 135.891 40.3493V41.2911C135.917 41.2803 135.956 41.2666 136.019 41.2463Z" fill="white"/>
<path id="Path 284" d="M138.835 42.2747C138.833 42.3175 138.828 42.3602 138.818 42.402C138.804 42.4618 138.773 42.517 138.729 42.5621C138.67 42.6233 138.596 42.6705 138.514 42.7002C138.255 42.7787 137.976 42.7787 137.718 42.7002C137.635 42.6705 137.561 42.6232 137.501 42.5621C137.457 42.5164 137.427 42.4608 137.412 42.4008C137.402 42.3593 137.396 42.3171 137.395 42.2747V42.1737H137.75V42.2107C137.751 42.2371 137.754 42.2634 137.761 42.289C137.769 42.3193 137.786 42.3468 137.81 42.3685C137.84 42.3978 137.877 42.4199 137.919 42.433C137.978 42.4527 138.04 42.4616 138.102 42.4593C138.169 42.4616 138.235 42.4527 138.298 42.433C138.339 42.4203 138.376 42.4 138.409 42.3733C138.434 42.3521 138.452 42.3251 138.463 42.295C138.47 42.2709 138.474 42.246 138.474 42.2209V41.7841C138.473 41.7444 138.463 41.7053 138.445 41.6694C138.43 41.6441 138.41 41.6221 138.386 41.6047C138.362 41.5873 138.334 41.5749 138.305 41.5684L138.241 41.548C138.217 41.5397 138.193 41.5319 138.175 41.5235L137.859 41.4238C137.852 41.4195 137.843 41.4167 137.834 41.4154C137.701 41.3881 137.582 41.319 137.496 41.2194C137.433 41.1409 137.398 41.0454 137.397 40.9469V40.2776C137.399 40.2352 137.405 40.193 137.415 40.1515C137.429 40.0915 137.46 40.0359 137.503 39.9902C137.563 39.9291 137.638 39.8818 137.72 39.8522C137.979 39.7736 138.257 39.7736 138.516 39.8522C138.598 39.8818 138.672 39.9291 138.732 39.9902C138.776 40.0356 138.806 40.0913 138.82 40.1515C138.83 40.193 138.836 40.2352 138.837 40.2776V40.3816H138.477V40.338C138.477 40.3115 138.473 40.2852 138.466 40.2597C138.455 40.2296 138.437 40.2026 138.412 40.1814C138.38 40.1547 138.342 40.1344 138.301 40.1217C138.238 40.102 138.172 40.0931 138.106 40.0954C138.043 40.0931 137.981 40.102 137.922 40.1217C137.88 40.1351 137.843 40.1577 137.813 40.1874C137.79 40.2104 137.773 40.2386 137.764 40.2693C137.757 40.2949 137.754 40.3212 137.754 40.3475V40.8853C137.755 40.926 137.765 40.9658 137.785 41.0019C137.8 41.0267 137.821 41.0483 137.845 41.0654C137.87 41.0826 137.897 41.0949 137.927 41.1017C137.94 41.1078 137.954 41.1131 137.968 41.1178L138.019 41.1339C138.071 41.1489 138.129 41.168 138.195 41.1901C138.262 41.2122 138.322 41.2325 138.379 41.2528C138.429 41.2643 138.478 41.2807 138.524 41.3018C138.573 41.316 138.619 41.3398 138.657 41.3718C138.695 41.4025 138.729 41.4379 138.757 41.4769C138.81 41.5503 138.838 41.6373 138.837 41.7261V42.2747H138.835Z" fill="white"/>
<path id="Path 285" d="M140.601 40.1104H140.06V42.7283H139.705V40.1086H139.162V39.8254H140.602L140.601 40.1104Z" fill="white"/>
</g>
<g id="Group 641">
<path id="Path 286" d="M171.573 23.0297C171.025 23.0208 170.492 22.8592 170.041 22.5649C169.59 22.2707 169.241 21.857 169.038 21.3759C168.835 20.8948 168.786 20.3676 168.899 19.8605C169.012 19.3535 169.28 18.8892 169.671 18.5259C170.061 18.1627 170.557 17.9167 171.095 17.8188C171.633 17.721 172.189 17.7756 172.695 17.9758C173.2 18.1761 173.631 18.513 173.935 18.9444C174.238 19.3758 174.4 19.8823 174.4 20.4004C174.394 21.1035 174.092 21.7754 173.562 22.2684C173.032 22.7614 172.316 23.0352 171.573 23.0297ZM171.573 18.2892C171.133 18.2984 170.705 18.4301 170.344 18.668C169.983 18.9059 169.704 19.2393 169.542 19.6264C169.381 20.0135 169.344 20.4371 169.435 20.8441C169.527 21.2511 169.744 21.6235 170.059 21.9144C170.373 22.2054 170.772 22.4021 171.204 22.4798C171.637 22.5576 172.084 22.5129 172.489 22.3514C172.895 22.1899 173.241 21.9188 173.485 21.5721C173.728 21.2253 173.858 20.8184 173.858 20.4022C173.85 19.8357 173.605 19.2951 173.177 18.899C172.749 18.5029 172.172 18.2836 171.573 18.2892Z" fill="white"/>
</g>
<g id="Group 642">
<path id="Path 287" d="M172.153 20.5456C172.324 20.5133 172.482 20.4344 172.606 20.3185C172.674 20.2513 172.727 20.1721 172.762 20.0854C172.797 19.9988 172.814 19.9064 172.812 19.8136C172.813 19.6637 172.769 19.5165 172.685 19.3893C172.61 19.2672 172.494 19.1726 172.355 19.121C172.159 19.0627 171.954 19.0372 171.749 19.0457H170.429V21.8608H170.76V20.5701H171.266C171.376 20.5645 171.486 20.5667 171.596 20.5767L171.635 20.5821C171.703 20.5879 171.768 20.6102 171.824 20.6466C172.027 20.7902 172.195 20.9718 172.319 21.1801C172.443 21.3884 172.52 21.6188 172.545 21.8567C172.545 21.8567 172.614 21.8608 172.88 21.8608C172.822 21.3514 172.562 20.8815 172.153 20.5456ZM171.679 20.3663H170.751V19.2644H171.783C171.973 19.2487 172.163 19.3031 172.312 19.4162C172.368 19.4661 172.411 19.5264 172.44 19.5934C172.469 19.6603 172.483 19.7323 172.48 19.8046C172.482 19.9099 172.452 20.0134 172.394 20.1034C172.337 20.1956 172.247 20.2662 172.141 20.303C171.992 20.3505 171.835 20.3716 171.679 20.3651V20.3663Z" fill="white"/>
</g>
</g>
</g>
</svg>
