<svg width="164" height="54" viewBox="0 0 164 54" fill="none" xmlns="http://www.w3.org/2000/svg">
<g id="Group 644">
<g id="Group 636">
<path id="Path 231" d="M17.3359 27.2773H21.3641C17.0037 25.4566 14.4224 21.9206 13.2678 16.934V17.5342C13.2678 23.149 13.2773 28.7652 13.2636 34.3814C13.2059 35.7654 13.5189 37.1372 14.1622 38.3198C14.8055 39.5025 15.7496 40.4417 16.873 41.0166C18.2704 41.8148 19.7931 42.2993 21.3558 42.4431C23.8938 42.7731 26.4626 42.638 28.962 42.043C30.2562 41.6951 31.4739 41.0554 32.541 40.1629C34.2791 38.733 34.947 36.7369 34.947 34.388C34.947 24.3789 34.947 14.3697 34.947 4.3605C34.947 2.74322 35.2067 2.56448 36.4795 3.36012C42.6785 7.23361 46.8916 12.9205 48.5061 20.7208C50.3827 29.7969 48.3873 37.8687 42.7986 44.736C38.9932 49.4333 33.82 52.4536 28.2085 53.2539C23.0809 54.1313 17.8372 53.1789 13.2179 50.5312C8.59857 47.8834 4.83693 43.6741 2.4641 38.4976C0.339137 33.7272 -0.438082 28.3426 0.23629 23.0632C0.910661 17.7838 3.00451 12.8612 6.23806 8.95294C9.15027 5.44688 12.8121 2.83369 16.8763 1.3611C20.9406 -0.111488 25.2726 -0.394677 29.4617 0.538374C29.857 0.583534 30.221 0.800036 30.4763 1.14182C30.7315 1.4836 30.8579 1.92367 30.8284 2.36841C30.8312 12.7408 30.8294 23.113 30.8231 33.485C30.8406 34.2931 30.6657 35.0919 30.3164 35.7988C29.9671 36.5057 29.456 37.0953 28.836 37.5066C27.2969 38.5108 25.5267 38.9792 23.75 38.8524C22.2458 38.916 20.7551 38.5121 19.4424 37.6853C18.8177 37.3044 18.2945 36.744 17.9262 36.0615C17.558 35.379 17.3579 34.5989 17.3466 33.8011C17.2949 31.759 17.3002 29.7156 17.2842 27.6735C17.2931 27.5402 17.3104 27.4078 17.3359 27.2773Z" fill="#00587A"/>
</g>
<g id="Group 643">
<g id="Group 638">
<g id="Group 637">
<path id="Path 232" d="M63.9068 35.8846V36.5229C63.8949 36.953 63.8476 37.381 63.7654 37.8014C63.6433 38.3972 63.3876 38.9482 63.0226 39.402C62.5247 40.0113 61.9081 40.4833 61.2209 40.7812C59.0591 41.553 56.7373 41.553 54.5756 40.7812C53.8879 40.4833 53.2707 40.0114 52.7721 39.402C52.4049 38.9436 52.1494 38.3865 52.0305 37.7847C51.9504 37.3707 51.9031 36.9495 51.8891 36.5262V35.5258H54.8602V35.8859C54.8623 36.1486 54.8921 36.4101 54.9488 36.6649C55.0186 36.9671 55.1585 37.2432 55.354 37.4652C55.6094 37.7496 55.9174 37.9674 56.2561 38.1035C56.75 38.2961 57.2714 38.3841 57.7939 38.3629C58.3451 38.386 58.8956 38.2982 59.4192 38.1035C59.7646 37.9676 60.0832 37.7574 60.3569 37.4846C60.5636 37.2742 60.7159 37.005 60.7978 36.7056C60.8631 36.4659 60.8989 36.2173 60.9041 35.9666V12.0721H63.9092L63.9068 35.8846Z" fill="#00587A"/>
<path id="Path 233" d="M79.3876 35.884V36.5222C79.3763 36.9523 79.3294 37.3804 79.2474 37.8007C79.1249 38.3964 78.8692 38.9472 78.5046 39.4013C78.0064 40.0103 77.3899 40.4823 76.7029 40.7805C74.5412 41.5524 72.2194 41.5524 70.0577 40.7805C69.3697 40.4831 68.7525 40.0111 68.2542 39.4013C67.8864 38.9434 67.6309 38.3861 67.5126 37.784C67.4318 37.3702 67.3844 36.949 67.3712 36.5256V24.6997C67.3844 24.2763 67.4318 23.8551 67.5126 23.4412C67.6313 22.8387 67.8868 22.281 68.2542 21.8219C68.7529 21.2131 69.3701 20.7416 70.0577 20.4441C72.2194 19.6722 74.5412 19.6722 76.7029 20.4441C77.3896 20.7424 78.006 21.2138 78.5046 21.8219C78.8688 22.2764 79.1243 22.8271 79.2474 23.4225C79.3294 23.8429 79.3764 24.2709 79.3876 24.701V35.884ZM76.3838 35.4838V25.2959C76.3806 25.032 76.3448 24.7699 76.2774 24.517C76.1955 24.2172 76.0427 23.948 75.8353 23.738C75.5621 23.4651 75.244 23.2549 74.8988 23.1191C74.3748 22.9244 73.824 22.8365 73.2724 22.8596C72.7499 22.8387 72.2285 22.9267 71.7346 23.1191C71.3964 23.2554 71.0889 23.4733 70.8337 23.7573C70.6345 23.9839 70.4938 24.267 70.4267 24.5763C70.373 24.825 70.3433 25.0794 70.3381 25.3353V35.884C70.3433 36.1398 70.373 36.3943 70.4267 36.6429C70.4935 36.9524 70.6342 37.2355 70.8337 37.4619C71.0889 37.7459 71.3964 37.9638 71.7346 38.1002C72.2285 38.2926 72.7499 38.3805 73.2724 38.3596C73.824 38.3827 74.3748 38.2948 74.8988 38.1002C75.244 37.9643 75.5621 37.7541 75.8353 37.4813C76.0427 37.2712 76.1955 37.002 76.2774 36.7023C76.3448 36.4494 76.3806 36.1872 76.3838 35.9233V35.4838Z" fill="#00587A"/>
<path id="Path 234" d="M94.869 35.5638V36.5229C94.873 37.1679 94.7585 37.807 94.5327 38.4002C94.2954 39.0072 93.9245 39.5364 93.4548 39.9382C92.895 40.4151 92.2596 40.7682 91.5823 40.9786C90.6959 41.25 89.7794 41.3775 88.8608 41.3574C86.7869 41.3574 85.2726 40.8981 84.3179 39.9795C83.8643 39.5664 83.4976 39.0459 83.2439 38.4553C82.9903 37.8647 82.8561 37.2185 82.8507 36.5629V12.0721H85.8558V17.9051C85.8505 18.1925 85.8986 18.478 85.9972 18.7434C86.0874 18.9753 86.2075 19.191 86.3537 19.3836C86.4762 19.5527 86.6258 19.6948 86.7946 19.8024C86.9483 19.8971 87.0721 19.9705 87.166 20.0225C87.2599 20.0501 87.4958 20.1432 87.8738 20.302C88.2517 20.4607 88.6936 20.641 89.1995 20.8428C89.7058 21.0429 90.2299 21.249 90.7712 21.4618C91.3125 21.6745 91.7975 21.8619 92.2205 22.0206C93.0344 22.3371 93.7267 22.9577 94.1815 23.7786C94.6406 24.6052 94.8795 25.5618 94.8702 26.5357V35.5645L94.869 35.5638ZM91.8979 27.4941H91.864V27.254C91.8779 26.8177 91.7927 26.3846 91.6162 25.9955C91.4694 25.689 91.278 25.4122 91.0499 25.1765C90.7956 24.9402 90.5093 24.7509 90.2019 24.6156C89.8252 24.4569 89.4235 24.2962 89.0004 24.1361C88.6466 24.0027 88.2703 23.85 87.8714 23.6779C87.4725 23.5059 87.0832 23.3527 86.7037 23.2184C86.5214 23.1553 86.3488 23.0611 86.1921 22.939C86.0997 22.8641 86.0221 22.7686 85.9642 22.6584C85.9063 22.5482 85.8694 22.4257 85.8558 22.2987V35.9233C85.8594 36.2098 85.9072 36.4934 85.9972 36.7616C86.0972 37.0667 86.2601 37.3409 86.4726 37.5619C86.7369 37.8287 87.0507 38.0264 87.3912 38.1408C87.8668 38.3012 88.362 38.3755 88.8584 38.3609C89.9894 38.3609 90.7728 38.1012 91.2086 37.5819C91.6325 37.0941 91.8783 36.4457 91.8973 35.7646L91.8979 27.4941Z" fill="#00587A"/>
<path id="Path 235" d="M111.376 38.2015V41.0379H101.089C100.764 41.0325 100.443 40.9437 100.153 40.7785C99.8445 40.6146 99.5725 40.3756 99.3567 40.0789C99.1378 39.7667 98.9977 39.3942 98.9508 39.0005C98.8965 38.5358 98.9642 38.0634 99.1457 37.6413C99.1691 37.6155 99.387 37.2494 99.7994 36.5429C100.212 35.8364 100.73 34.9576 101.355 33.9065C101.978 32.8541 102.65 31.7219 103.369 30.5099C104.089 29.2979 104.761 28.1661 105.385 27.1146C106.008 26.0622 106.733 24.8437 107.558 23.4592C107.604 23.361 107.617 23.2476 107.594 23.1397C107.571 23.033 107.475 22.9797 107.311 22.9797H98.3328V20.1432H108.654C108.974 20.1473 109.289 20.2362 109.573 20.4027C109.874 20.5707 110.139 20.8093 110.351 21.1023C110.571 21.414 110.711 21.7867 110.757 22.1807C110.811 22.6448 110.744 23.1165 110.564 23.5386C110.068 24.3651 109.62 25.1109 109.22 25.7761C108.82 26.4412 108.367 27.2004 107.859 28.0536C107.352 28.9059 106.839 29.7714 106.322 30.65L102.15 37.682C102.105 37.7943 102.092 37.92 102.114 38.0408C102.137 38.1475 102.244 38.2009 102.433 38.2009L111.376 38.2015Z" fill="#00587A"/>
<path id="Path 236" d="M120.884 19.8631C122.015 19.8099 123.143 20.0066 124.206 20.442C124.893 20.7403 125.51 21.2117 126.01 21.8199C126.376 22.2793 126.632 22.8369 126.751 23.4392C126.831 23.8531 126.879 24.2743 126.893 24.6976V26.6144C126.883 27.1303 126.805 27.6418 126.663 28.1323C126.435 28.8198 126.066 29.4369 125.585 29.933C125.339 30.2407 125.038 30.486 124.702 30.6526C124.415 30.7953 124.119 30.9152 123.817 31.0114C123.508 31.1186 123.186 31.1726 122.863 31.1715H120.177C119.874 31.1711 119.575 31.2381 119.296 31.3683C119.017 31.4986 118.763 31.6896 118.55 31.9304C118.321 32.17 118.14 32.461 118.019 32.7845C117.897 33.108 117.837 33.4567 117.844 33.8078V35.6085C117.819 36.1381 117.93 36.6646 118.162 37.1264C118.248 37.3015 118.355 37.4628 118.48 37.6059C118.633 37.7644 118.814 37.8868 119.01 37.9661C119.241 38.0891 119.484 38.1828 119.734 38.2455C120.112 38.3342 120.498 38.3743 120.884 38.3649C121.374 38.3849 121.864 38.3104 122.332 38.1448C122.591 38.049 122.84 37.922 123.075 37.766C123.367 37.5235 123.588 37.1898 123.711 36.8069C123.831 36.4213 123.892 36.0152 123.889 35.6065H126.894V36.5655C126.899 37.259 126.76 37.9443 126.487 38.5663C126.194 39.209 125.763 39.7593 125.232 40.1669C124.721 40.5448 124.159 40.8285 123.568 41.0072C122.693 41.2707 121.788 41.3915 120.883 41.366C120.182 41.3771 119.483 41.3033 118.796 41.146C118.267 41.0221 117.752 40.8347 117.258 40.5871C116.865 40.3919 116.501 40.1291 116.18 39.8081C115.919 39.5426 115.682 39.2479 115.474 38.9284C115.046 38.2244 114.835 37.3831 114.873 36.5322V24.6996C114.884 24.2695 114.932 23.8415 115.014 23.4211C115.136 22.8252 115.392 22.2742 115.757 21.8205C116.255 21.2118 116.872 20.7402 117.559 20.4427C118.623 20.0066 119.753 19.8097 120.884 19.8631ZM123.888 25.696V25.3359C123.885 25.0733 123.856 24.8119 123.8 24.5569C123.73 24.2547 123.59 23.9786 123.394 23.7566C123.138 23.4723 122.83 23.2544 122.492 23.1184C121.998 22.9257 121.476 22.8377 120.954 22.8589C120.41 22.8392 119.867 22.927 119.349 23.1184C118.997 23.2512 118.673 23.4616 118.394 23.7373C118.187 23.9477 118.035 24.2168 117.953 24.5162C117.888 24.756 117.852 25.0046 117.847 25.2552V29.4094C117.888 29.1798 118.001 28.9744 118.165 28.8306C118.334 28.6813 118.525 28.5666 118.73 28.4918C118.936 28.4131 119.15 28.3595 119.367 28.3317C119.531 28.3091 119.695 28.2957 119.861 28.2917H121.876C122.139 28.2938 122.4 28.2366 122.643 28.1233C122.886 28.0099 123.106 27.8429 123.29 27.6321C123.482 27.43 123.635 27.1854 123.738 26.9138C123.841 26.6422 123.893 26.3495 123.891 26.0542V25.6954L123.888 25.696Z" fill="#00587A"/>
<path id="Path 237" d="M130.639 12.0721H133.61V41.0379H130.639V12.0721Z" fill="#00587A"/>
<path id="Path 238" d="M137.991 12.0721H140.962V41.0379H137.991V12.0721Z" fill="#00587A"/>
<path id="Path 239" d="M150.432 19.8631C152.505 19.8631 154.025 20.3224 154.991 21.241C155.452 21.6551 155.821 22.1819 156.073 22.781C156.324 23.38 156.45 24.0356 156.441 24.6976V36.5229C156.433 37.0586 156.355 37.5902 156.211 38.1008C156.04 38.7068 155.729 39.2512 155.31 39.6787C154.777 40.2158 154.152 40.6243 153.472 40.8792C151.486 41.5187 149.379 41.5187 147.392 40.8792C146.712 40.6247 146.087 40.2161 145.554 39.6787C145.135 39.2508 144.824 38.7065 144.652 38.1008C144.509 37.59 144.431 37.0585 144.424 36.5229V34.6455C144.414 33.6714 144.653 32.7146 145.112 31.8884C145.567 31.0675 146.259 30.4469 147.073 30.1304C147.496 29.9703 147.979 29.7849 148.521 29.5715L150.094 28.9513C150.601 28.7525 151.042 28.5729 151.42 28.4124C151.798 28.2519 152.033 28.1588 152.128 28.133C152.222 28.0796 152.345 28.0076 152.498 27.9129C152.667 27.8052 152.817 27.6632 152.94 27.4941C153.087 27.2985 153.211 27.0835 153.311 26.8538C153.422 26.5921 153.476 26.305 153.471 26.0155V25.2565C153.468 24.9762 153.42 24.6987 153.329 24.4375C153.221 24.1375 153.051 23.8706 152.834 23.6586C152.561 23.3947 152.242 23.1972 151.897 23.0784C151.421 22.9195 150.926 22.8459 150.43 22.8603C149.251 22.8603 148.456 23.1333 148.044 23.6793C147.63 24.2311 147.409 24.9343 147.425 25.656H144.421V24.6996C144.417 24.0544 144.531 23.415 144.756 22.8209C144.995 22.2147 145.366 21.6858 145.835 21.283C146.395 20.8074 147.03 20.455 147.707 20.2446C148.595 19.9718 149.512 19.8433 150.432 19.8631ZM153.472 30.4499C153.454 30.5725 153.413 30.6894 153.352 30.7929C153.29 30.8964 153.21 30.984 153.116 31.0501C152.951 31.1702 152.773 31.2642 152.585 31.3295C152.233 31.4629 151.849 31.615 151.437 31.789C151.024 31.9631 150.642 32.1145 150.288 32.2472C149.863 32.4077 149.463 32.5676 149.086 32.7267C148.793 32.8676 148.519 33.0559 148.274 33.2856C148.044 33.5246 147.847 33.8011 147.691 34.1059C147.502 34.4907 147.41 34.9257 147.425 35.3644C147.366 36.181 147.595 36.9909 148.062 37.6206C148.487 38.1141 149.276 38.3604 150.43 38.3596C151.609 38.3596 152.41 38.0999 152.834 37.5806C153.289 36.9597 153.517 36.1672 153.471 35.3644L153.472 30.4499Z" fill="#00587A"/>
</g>
</g>
<g id="Group 639">
<path id="Path 240" d="M132.365 46.2245H133.572V47.6464H132.365V46.2245Z" fill="#00587A"/>
<path id="Path 241" d="M139.002 45.4242V45.2562C139 45.1387 138.98 45.0224 138.942 44.9127C138.898 44.7872 138.829 44.6752 138.738 44.5859C138.626 44.4755 138.495 44.3924 138.352 44.3418C138.156 44.2751 137.952 44.2442 137.748 44.2505C137.572 44.2258 137.393 44.2436 137.223 44.3029C137.053 44.3621 136.897 44.4613 136.764 44.5939C136.593 44.8274 136.502 45.1226 136.51 45.4249V49.5031C136.485 49.8451 136.579 50.1845 136.772 50.4502C137.048 50.695 137.399 50.807 137.748 50.7616C137.924 50.7853 138.103 50.7684 138.273 50.712C138.444 50.6556 138.602 50.5608 138.738 50.4335C138.927 50.1715 139.021 49.8393 139.001 49.5031H140.225V49.9887C140.222 50.2135 140.19 50.4367 140.131 50.6516C140.06 50.9048 139.932 51.1332 139.759 51.3145C139.54 51.5392 139.282 51.7108 139.001 51.8187C138.183 52.0876 137.313 52.0876 136.494 51.8187C136.213 51.7108 135.955 51.5392 135.736 51.3145C135.563 51.1332 135.435 50.9048 135.364 50.6516C135.305 50.4367 135.274 50.2135 135.271 49.9887V45.0214C135.269 44.751 135.316 44.483 135.408 44.2331C135.506 43.9793 135.659 43.7571 135.853 43.5869C136.083 43.3872 136.345 43.2389 136.625 43.15C136.99 43.0364 137.368 42.9829 137.747 42.9913C138.417 42.9266 139.086 43.1318 139.635 43.5702C139.823 43.7472 139.974 43.9694 140.076 44.2206C140.178 44.4718 140.229 44.7454 140.224 45.0214V45.4216L139.002 45.4242Z" fill="#00587A"/>
<path id="Path 242" d="M146.609 49.7188V49.9855C146.603 50.1663 146.583 50.3462 146.549 50.5231C146.498 50.7716 146.393 51.0019 146.243 51.1933C146.039 51.4488 145.785 51.6471 145.5 51.7722C144.61 52.098 143.651 52.098 142.761 51.7722C142.476 51.6471 142.222 51.4488 142.018 51.1933C141.867 50.9994 141.761 50.7656 141.712 50.5137C141.679 50.3399 141.659 50.1632 141.653 49.9855V45.0183C141.659 44.8407 141.679 44.664 141.712 44.4901C141.762 44.2383 141.867 44.0046 142.018 43.8105C142.222 43.5554 142.477 43.3572 142.761 43.2316C143.651 42.9078 144.61 42.9078 145.5 43.2316C145.785 43.3573 146.039 43.5555 146.243 43.8105C146.393 44.0025 146.499 44.2336 146.549 44.4828C146.583 44.6583 146.603 44.8368 146.609 45.0163V49.7188ZM145.37 49.552V45.2724C145.369 45.1618 145.354 45.0519 145.327 44.9456C145.292 44.8203 145.23 44.7072 145.144 44.6175C145.031 44.5042 144.9 44.4161 144.758 44.358C144.542 44.277 144.315 44.2402 144.087 44.2493C143.872 44.2411 143.657 44.278 143.454 44.358C143.315 44.4152 143.188 44.5063 143.083 44.6248C143 44.7199 142.942 44.8387 142.915 44.9683C142.893 45.073 142.881 45.1801 142.879 45.2877V49.7174C142.88 49.8251 142.893 49.9322 142.915 50.0369C142.942 50.1667 143 50.2857 143.083 50.3803C143.187 50.4994 143.314 50.5906 143.454 50.6471C143.657 50.7284 143.872 50.7658 144.087 50.7572C144.315 50.7667 144.542 50.7294 144.758 50.6471C144.901 50.5902 145.032 50.502 145.144 50.3877C145.23 50.2985 145.292 50.1858 145.327 50.0609C145.354 49.9542 145.369 49.8438 145.37 49.7328V49.552Z" fill="#00587A"/>
<path id="Path 243" d="M156.72 51.8847H155.482V45.2895C155.48 45.1795 155.468 45.0699 155.446 44.9627C155.417 44.8387 155.362 44.7243 155.285 44.6293C155.184 44.5097 155.059 44.4184 154.921 44.3625C154.712 44.2819 154.493 44.245 154.273 44.2538C154.047 44.246 153.823 44.2828 153.609 44.3625C153.464 44.4197 153.33 44.5078 153.215 44.6219C153.13 44.7113 153.069 44.8247 153.037 44.9501C153.009 45.0506 152.994 45.155 152.992 45.2602V51.8894H151.753V45.2942C151.752 45.1841 151.74 45.0746 151.718 44.9674C151.689 44.8434 151.634 44.7291 151.557 44.6339C151.456 44.5144 151.331 44.423 151.192 44.3672C150.984 44.2866 150.765 44.2497 150.545 44.2585C150.319 44.2506 150.094 44.2874 149.88 44.3672C149.735 44.4239 149.602 44.5121 149.487 44.6266C149.401 44.7159 149.338 44.8291 149.305 44.9547C149.278 45.0555 149.263 45.1598 149.261 45.2649V51.8941H148.036V45.0208C148.041 44.8412 148.061 44.6626 148.095 44.4872C148.145 44.2376 148.25 44.0062 148.401 43.815C148.606 43.5598 148.86 43.3616 149.145 43.2361C149.581 43.0539 150.046 42.9713 150.511 42.9933C150.898 42.9817 151.284 43.0352 151.656 43.152C151.914 43.2382 152.158 43.3713 152.377 43.5462C152.597 43.3707 152.84 43.2375 153.099 43.152C153.471 43.0352 153.856 42.9817 154.242 42.9933C154.709 42.971 155.174 43.0535 155.612 43.2361C155.896 43.3625 156.15 43.5606 156.355 43.815C156.506 44.009 156.612 44.2428 156.661 44.4946C156.694 44.6684 156.714 44.8451 156.721 45.0228V51.8867L156.72 51.8847Z" fill="#00587A"/>
</g>
<g id="Group 640">
<path id="Path 244" d="M53.1038 43.5671H52.3824V47.6893H51.9099V43.5671H51.1939V43.1196H53.1032L53.1038 43.5671Z" fill="#00587A"/>
<path id="Path 245" d="M54.9316 44.4498V47.6877H54.5971V46.2445H53.8364V47.6877H53.4977V44.4478H53.8364V45.891H54.5971V44.4478L54.9316 44.4498Z" fill="#00587A"/>
<path id="Path 246" d="M56.5526 47.6878H55.7712C55.7071 47.6908 55.6432 47.6772 55.5844 47.648C55.5257 47.6189 55.4737 47.575 55.4325 47.5197C55.3958 47.4722 55.3676 47.4171 55.3493 47.3576C55.3309 47.3019 55.3213 47.243 55.3208 47.1836V44.9534C55.3229 44.83 55.3623 44.711 55.4325 44.6159C55.4719 44.566 55.5195 44.525 55.5728 44.4952C55.6349 44.463 55.7028 44.4472 55.7712 44.4492H56.5526V44.7607H55.8829C55.852 44.7594 55.8212 44.7658 55.7927 44.7796C55.7642 44.7933 55.7388 44.8139 55.7183 44.84C55.6762 44.8915 55.6538 44.9595 55.6559 45.0294V45.8924H56.3773V46.2452H55.6577V47.1122C55.6567 47.1805 55.679 47.2466 55.7201 47.297C55.7407 47.3229 55.7661 47.3433 55.7946 47.3568C55.8231 47.3703 55.8538 47.3765 55.8847 47.375H56.5544L56.5526 47.6878Z" fill="#00587A"/>
<path id="Path 247" d="M58.3395 45.1557H59.3723V45.6539H58.3395V47.69H57.8641V43.8332C57.8641 43.7492 57.8774 43.6659 57.9033 43.5871C57.9299 43.5026 57.9702 43.4243 58.0222 43.3563C58.078 43.2846 58.1461 43.2263 58.2225 43.1849C58.3094 43.1397 58.4042 43.1169 58.5 43.1182H59.6171V43.5597H58.6574C58.6136 43.5575 58.5698 43.5662 58.5294 43.5853C58.4889 43.6043 58.4527 43.6332 58.4233 43.6698C58.3663 43.7437 58.3358 43.8388 58.3377 43.9365V45.1523L58.3395 45.1557Z" fill="#00587A"/>
<path id="Path 248" d="M60.0104 44.4499H60.3449V47.6878H60.0104V44.4499Z" fill="#00587A"/>
<path id="Path 249" d="M61.8942 47.6898L61.464 46.3046L61.385 46.3379C61.3606 46.3486 61.3398 46.3559 61.3208 46.3626L61.2614 46.3853C61.2299 46.3968 61.1995 46.4116 61.1705 46.4293C61.1451 46.4462 61.1233 46.469 61.1063 46.496C61.0871 46.5271 61.0762 46.5636 61.0748 46.6014V47.6918H60.7361V44.9574C60.7376 44.9101 60.743 44.863 60.7521 44.8167C60.7651 44.7494 60.7938 44.6873 60.8353 44.6366C60.8913 44.5684 60.9607 44.5156 61.0379 44.4826C61.2814 44.395 61.5432 44.395 61.7867 44.4826C61.8644 44.5153 61.9342 44.5681 61.9905 44.6366C62.0315 44.6876 62.0602 44.7496 62.0737 44.8167C62.0829 44.8629 62.0882 44.9101 62.0897 44.9574V45.7044C62.0893 45.8009 62.0652 45.8955 62.0202 45.9778C61.9627 46.073 61.8793 46.1448 61.7825 46.1825L62.252 47.6931L61.8942 47.6898ZM61.1633 46.0445L61.2774 46.0005C61.3172 45.9851 61.3565 45.9698 61.3963 45.9531C61.4361 45.9365 61.4711 45.9224 61.5038 45.9118L61.5514 45.8938L61.5947 45.8758C61.6219 45.8679 61.6473 45.8539 61.6696 45.8348C61.6918 45.8157 61.7104 45.7917 61.7243 45.7644C61.7423 45.7256 61.7525 45.6828 61.754 45.639V45.0221C61.7535 44.9925 61.7493 44.9631 61.7415 44.9347C61.732 44.9015 61.7153 44.8715 61.6928 44.8474C61.6617 44.8173 61.6255 44.7946 61.5864 44.7807C61.5277 44.7586 61.4659 44.7487 61.404 44.7513C61.3448 44.7489 61.2858 44.7588 61.2299 44.7807C61.1917 44.7958 61.1572 44.8209 61.1295 44.854C61.1073 44.8795 61.0913 44.911 61.0831 44.9454C61.0767 44.974 61.0736 45.0033 61.0736 45.0328V46.0838L61.1633 46.0445Z" fill="#00587A"/>
<path id="Path 250" d="M63.8454 47.1815C63.844 47.2293 63.839 47.2768 63.8306 47.3236C63.8162 47.3902 63.7872 47.4516 63.7462 47.5023C63.6902 47.5706 63.6208 47.6233 63.5436 47.6564C63.3001 47.744 63.0383 47.744 62.7948 47.6564C62.7174 47.6237 62.648 47.5709 62.5922 47.5023C62.5504 47.4517 62.5213 47.3896 62.5078 47.3223C62.4987 47.276 62.4933 47.2289 62.4918 47.1815V47.0688H62.8263V47.1102C62.8269 47.1397 62.8305 47.169 62.837 47.1975C62.8445 47.2312 62.8601 47.2619 62.8822 47.2862C62.9109 47.3187 62.9459 47.3433 62.9844 47.3583C63.0399 47.3802 63.0985 47.3901 63.1573 47.3876C63.2196 47.3904 63.2818 47.3804 63.3409 47.3583C63.3794 47.3441 63.4149 47.3214 63.4455 47.2916C63.4689 47.268 63.4863 47.2378 63.496 47.2042C63.5035 47.1774 63.5077 47.1496 63.5085 47.1215V46.634C63.5068 46.5896 63.4971 46.546 63.48 46.5059C63.4666 46.4778 63.448 46.4532 63.4254 46.4337C63.4029 46.4143 63.3769 46.4005 63.3492 46.3932L63.2898 46.3706C63.268 46.3628 63.2466 46.3536 63.2256 46.3432L62.9285 46.2318C62.9216 46.2267 62.9136 46.2235 62.9054 46.2225C62.7805 46.1912 62.6685 46.1143 62.5868 46.0037C62.5276 45.9162 62.4951 45.8096 62.4941 45.6996V44.9527C62.4957 44.9053 62.5011 44.8582 62.5102 44.812C62.5236 44.7446 62.5527 44.6825 62.5946 44.6319C62.6503 44.5633 62.7198 44.5105 62.7972 44.4778C63.0407 44.3902 63.3025 44.3902 63.5459 44.4778C63.6232 44.5109 63.6925 44.5636 63.7486 44.6319C63.7899 44.6829 63.8189 44.7449 63.8329 44.812C63.8412 44.8584 63.8461 44.9054 63.8478 44.9527V45.0687H63.5103V45.02C63.5098 44.9904 63.5056 44.961 63.4978 44.9327C63.4881 44.8991 63.4707 44.8689 63.4473 44.8453C63.4167 44.8155 63.3812 44.7928 63.3427 44.7786C63.2836 44.7565 63.2214 44.7465 63.1591 44.7493C63.1003 44.7467 63.0416 44.7567 62.9862 44.7786C62.9476 44.794 62.9126 44.8191 62.884 44.852C62.8623 44.8777 62.8468 44.9091 62.8388 44.9433C62.8322 44.9719 62.8286 45.0012 62.8281 45.0307V45.6309C62.8298 45.6762 62.8399 45.7205 62.8578 45.761C62.8722 45.7886 62.8914 45.8128 62.9143 45.8319C62.9371 45.851 62.9632 45.8648 62.9909 45.8724C63.0037 45.8792 63.0168 45.8852 63.0301 45.8904L63.0789 45.9084C63.1264 45.9251 63.1811 45.9464 63.2435 45.9711C63.3059 45.9957 63.3623 46.0184 63.4164 46.0411C63.4633 46.0539 63.5089 46.0722 63.5525 46.0958C63.5987 46.1116 63.6414 46.1381 63.6778 46.1738C63.7136 46.2081 63.7452 46.2476 63.7717 46.2912C63.8215 46.3731 63.8476 46.4702 63.8466 46.5693V47.1815H63.8454Z" fill="#00587A"/>
<path id="Path 251" d="M65.5089 44.7659H64.9985V47.6877H64.6639V44.7639H64.1547V44.4478H65.5089V44.7659Z" fill="#00587A"/>
<path id="Path 252" d="M68.6279 44.8474V44.8854C68.6269 45.0403 68.5806 45.1905 68.496 45.3129C68.3796 45.4687 68.221 45.5776 68.0444 45.623C68.0324 45.6238 68.0207 45.628 68.0105 45.635L67.8281 45.7017C67.7627 45.7277 67.7015 45.7504 67.6457 45.7717C67.5773 45.7964 67.5149 45.8224 67.4549 45.8464C67.409 45.8593 67.3652 45.8804 67.3254 45.9091C67.29 45.936 67.2587 45.9691 67.2327 46.0072C67.203 46.0522 67.1881 46.1073 67.1905 46.1632V47.6878H66.7151V43.831C66.7169 43.7637 66.7243 43.6967 66.7371 43.6309C66.7558 43.535 66.7968 43.4464 66.8559 43.3742C66.9369 43.2785 67.036 43.2044 67.1459 43.1574C67.4895 43.0353 67.8583 43.0353 68.2019 43.1574C68.3105 43.2044 68.4083 43.2785 68.4877 43.3742C68.5466 43.4466 68.5876 43.5351 68.6065 43.6309C68.6194 43.6967 68.6267 43.7637 68.6285 43.831V44.8454L68.6279 44.8474ZM67.3176 45.3716C67.368 45.3503 67.421 45.328 67.4769 45.3049C67.5363 45.2849 67.5898 45.2622 67.6457 45.2382C67.7015 45.2142 67.752 45.1955 67.7966 45.1789L67.8649 45.1528C67.8869 45.1455 67.9083 45.1362 67.9243 45.1282C67.9633 45.1174 67.9999 45.0979 68.032 45.0709C68.0641 45.0438 68.0909 45.0098 68.1109 44.9708C68.1346 44.9132 68.1475 44.8508 68.149 44.7874V43.9204C68.1484 43.8791 68.1431 43.838 68.1329 43.7983C68.1202 43.7503 68.0957 43.7074 68.0622 43.6743C68.0188 43.6315 67.9683 43.5989 67.9136 43.5782C67.8304 43.5474 67.7428 43.5334 67.6552 43.5369C67.5724 43.5336 67.4898 43.5477 67.4115 43.5782C67.3567 43.5986 67.3074 43.6345 67.2683 43.6823C67.2371 43.7179 67.2146 43.762 67.203 43.8103C67.194 43.8509 67.1894 43.8926 67.1893 43.9344V45.4163C67.223 45.4061 67.2657 45.3909 67.3176 45.3709V45.3716Z" fill="#00587A"/>
<path id="Path 253" d="M70.337 47.6898L69.9068 46.3046L69.8277 46.3379C69.8034 46.3486 69.7814 46.3559 69.7636 46.3626L69.7041 46.3853C69.6727 46.3968 69.6423 46.4116 69.6132 46.4293C69.5876 46.4458 69.5657 46.4686 69.549 46.496C69.5295 46.5269 69.5181 46.5635 69.5164 46.6014V47.6918H69.1788V44.9574C69.1805 44.9101 69.1855 44.8631 69.1937 44.8167C69.2077 44.7496 69.2368 44.6876 69.2781 44.6366C69.3341 44.5684 69.4035 44.5156 69.4807 44.4826C69.7242 44.395 69.986 44.395 70.2294 44.4826C70.3069 44.5153 70.3763 44.5681 70.4321 44.6366C70.4739 44.6872 70.503 44.7493 70.5164 44.8167C70.5258 44.8629 70.5314 44.91 70.5331 44.9574V45.7044C70.5329 45.8012 70.5084 45.8959 70.4624 45.9778C70.4052 46.0734 70.3217 46.1453 70.2247 46.1825L70.6953 47.6931L70.337 47.6898ZM69.6061 46.0445L69.7202 46.0005C69.7594 45.9851 69.7992 45.9698 69.839 45.9531C69.8788 45.9365 69.9151 45.9224 69.9466 45.9118L69.9953 45.8938L70.0387 45.8758C70.0933 45.8592 70.1398 45.8192 70.1682 45.7644C70.1863 45.7256 70.1964 45.6827 70.198 45.639V45.0221C70.1974 44.9925 70.1932 44.9631 70.1855 44.9347C70.1758 44.9011 70.1584 44.871 70.135 44.8474C70.1047 44.817 70.0691 44.7943 70.0304 44.7807C69.9712 44.7585 69.909 44.7486 69.8468 44.7513C69.788 44.7489 69.7293 44.7589 69.6738 44.7807C69.6352 44.7961 69.6003 44.8212 69.5716 44.854C69.5502 44.88 69.5347 44.9113 69.5265 44.9454C69.5197 44.9739 69.5161 45.0033 69.5158 45.0328V46.0838C69.5407 46.0723 69.5708 46.0592 69.6061 46.0445Z" fill="#00587A"/>
<path id="Path 254" d="M72.289 47.1356V47.1816C72.2877 47.2294 72.2823 47.277 72.2729 47.3236C72.2597 47.3904 72.231 47.452 72.1897 47.5024C72.1337 47.5706 72.0643 47.6233 71.9871 47.6564C71.7436 47.7441 71.4819 47.7441 71.2384 47.6564C71.1606 47.6234 71.0907 47.5706 71.034 47.5024C70.9929 47.4514 70.9643 47.3894 70.9508 47.3223C70.9416 47.276 70.9363 47.2289 70.9347 47.1816V44.9501C70.9363 44.9027 70.9416 44.8556 70.9508 44.8093C70.9643 44.7423 70.9929 44.6803 71.034 44.6293C71.0907 44.561 71.1606 44.5083 71.2384 44.4752C71.4819 44.3876 71.7436 44.3876 71.9871 44.4752C72.0643 44.5083 72.1337 44.561 72.1897 44.6293C72.2313 44.6799 72.26 44.7421 72.2729 44.8093C72.2821 44.8556 72.2875 44.9027 72.289 44.9501V47.1356ZM71.9503 47.0689H71.9544V45.0681H71.9503V45.0194C71.9504 44.9899 71.9468 44.9605 71.9396 44.9321C71.93 44.8992 71.9137 44.8692 71.892 44.8447C71.8611 44.8144 71.8248 44.7917 71.7857 44.778C71.7261 44.7561 71.6635 44.7462 71.6009 44.7486C71.5421 44.7461 71.4834 44.7561 71.4279 44.778C71.3892 44.793 71.3542 44.8182 71.3257 44.8514C71.3038 44.8771 71.2879 44.9085 71.2794 44.9427C71.2732 44.9713 71.27 45.0006 71.2699 45.0301V47.1136C71.27 47.143 71.2732 47.1723 71.2794 47.2009C71.2873 47.2347 71.3033 47.2654 71.3257 47.2896C71.3543 47.3224 71.3893 47.3471 71.4279 47.3617C71.4834 47.3836 71.5421 47.3935 71.6009 47.391C71.6635 47.3934 71.7261 47.3835 71.7857 47.3617C71.8248 47.3479 71.8611 47.3252 71.892 47.295C71.9137 47.2704 71.93 47.2405 71.9396 47.2076C71.9466 47.1807 71.9502 47.1529 71.9503 47.1249V47.0689Z" fill="#00587A"/>
<path id="Path 255" d="M73.0139 45.8931H73.746V46.2459H73.0139V47.6878H72.6794V44.9534C72.6798 44.8296 72.7194 44.71 72.7911 44.6159C72.8303 44.5653 72.8785 44.5242 72.9325 44.4952C72.9943 44.4634 73.0618 44.4477 73.1298 44.4492H73.9219V44.7607H73.2415C73.2103 44.7593 73.1792 44.7657 73.1504 44.7794C73.1216 44.7932 73.0959 44.8138 73.0751 44.84C73.0348 44.8925 73.0135 44.9601 73.0157 45.0294V45.8924L73.0139 45.8931Z" fill="#00587A"/>
<path id="Path 256" d="M75.4307 47.6878H74.6493C74.5809 47.6896 74.513 47.6739 74.4508 47.6418C74.3974 47.6124 74.35 47.5709 74.3118 47.5198C74.2747 47.4722 74.2461 47.4172 74.2274 47.3577C74.21 47.3017 74.2008 47.2429 74.2 47.1836V44.9534C74.2008 44.8941 74.21 44.8354 74.2274 44.7794C74.2464 44.7196 74.275 44.6642 74.3118 44.616C74.3504 44.5657 74.3977 44.5246 74.4508 44.4953C74.513 44.4632 74.5809 44.4474 74.6493 44.4492H75.4307V44.7607H74.7616C74.7306 44.7596 74.6999 44.7661 74.6714 44.7798C74.643 44.7935 74.6176 44.8141 74.597 44.8401C74.5566 44.8925 74.5354 44.9602 74.5376 45.0295V45.8925H75.2578V46.2453H74.5376V47.1123C74.5357 47.1801 74.557 47.2461 74.597 47.297C74.6176 47.3228 74.643 47.3432 74.6715 47.3567C74.7 47.3702 74.7307 47.3764 74.7616 47.375H75.4313L75.4307 47.6878Z" fill="#00587A"/>
<path id="Path 257" d="M77.1759 47.1815C77.1746 47.2294 77.1692 47.2769 77.1598 47.3236C77.146 47.3901 77.1174 47.4516 77.0766 47.5023C77.0199 47.5706 76.95 47.6233 76.8722 47.6564C76.6288 47.744 76.367 47.744 76.1235 47.6564C76.0462 47.6233 75.9769 47.5706 75.9209 47.5023C75.8793 47.4517 75.8506 47.3895 75.8377 47.3223C75.8285 47.276 75.8232 47.2289 75.8216 47.1815V47.0688H76.1562V47.1102C76.1563 47.1396 76.1595 47.1689 76.1657 47.1975C76.1736 47.2313 76.1896 47.262 76.212 47.2862C76.2399 47.3189 76.2743 47.3436 76.3125 47.3583C76.368 47.3801 76.4266 47.39 76.4854 47.3876C76.5477 47.3904 76.6099 47.3804 76.669 47.3583C76.7079 47.3438 76.744 47.3211 76.7754 47.2916C76.7979 47.2675 76.8146 47.2375 76.8241 47.2042C76.8316 47.1774 76.8358 47.1496 76.8366 47.1215V46.634C76.8347 46.5898 76.8255 46.5463 76.8092 46.5059C76.7956 46.4778 76.7768 46.4532 76.754 46.4338C76.7313 46.4143 76.7051 46.4005 76.6773 46.3932L76.6179 46.3706C76.5947 46.3612 76.5727 46.3526 76.5537 46.3432L76.2566 46.2318C76.2491 46.2269 76.2409 46.2237 76.2322 46.2225C76.1074 46.1912 75.9954 46.1143 75.9137 46.0037C75.855 45.916 75.8231 45.8094 75.8228 45.6996V44.9527C75.8244 44.9053 75.8297 44.8582 75.8389 44.812C75.8518 44.7447 75.8805 44.6825 75.9221 44.6319C75.9781 44.5636 76.0474 44.5109 76.1247 44.4778C76.3682 44.3902 76.6299 44.3902 76.8734 44.4778C76.9512 44.5109 77.0211 44.5636 77.0778 44.6319C77.1189 44.6829 77.1475 44.7449 77.161 44.812C77.1702 44.8582 77.1755 44.9053 77.1771 44.9527V45.0687H76.8383V45.02C76.8379 44.9904 76.8337 44.961 76.8259 44.9327C76.8164 44.8994 76.7997 44.8694 76.7771 44.8453C76.7457 44.8158 76.7097 44.7931 76.6708 44.7786C76.6117 44.7565 76.5494 44.7465 76.4872 44.7493C76.4284 44.7469 76.3698 44.7568 76.3142 44.7786C76.276 44.7937 76.2416 44.8189 76.2138 44.852C76.1919 44.8777 76.176 44.9091 76.1675 44.9433C76.1613 44.9719 76.1581 45.0013 76.158 45.0307V45.6309C76.1589 45.6763 76.1691 45.7207 76.1877 45.761C76.2019 45.7888 76.221 45.813 76.2439 45.8322C76.2668 45.8513 76.293 45.865 76.3208 45.8724C76.3333 45.8797 76.3465 45.8857 76.36 45.8904L76.4075 45.9084C76.4551 45.9251 76.5109 45.9464 76.5721 45.9711C76.6333 45.9957 76.691 46.0184 76.7462 46.0411C76.7929 46.0536 76.8381 46.0719 76.8811 46.0958C76.9274 46.1116 76.9701 46.1381 77.0065 46.1738C77.043 46.2073 77.0747 46.2469 77.1004 46.2912C77.1505 46.373 77.177 46.4701 77.1765 46.5693V47.1815H77.1759Z" fill="#00587A"/>
<path id="Path 258" d="M78.9188 47.1816C78.918 47.2294 78.913 47.2769 78.9039 47.3236C78.8895 47.3902 78.8605 47.4516 78.8196 47.5024C78.7635 47.5706 78.6942 47.6233 78.6169 47.6564C78.3735 47.744 78.1117 47.744 77.8682 47.6564C77.791 47.6233 77.7216 47.5706 77.6656 47.5024C77.6238 47.4517 77.5947 47.3896 77.5812 47.3223C77.5723 47.276 77.5673 47.2289 77.5663 47.1816V47.0689H77.8997V47.1102C77.9003 47.1397 77.9038 47.169 77.9104 47.1976C77.9184 47.231 77.9339 47.2616 77.9556 47.2863C77.9843 47.3187 78.0193 47.3433 78.0578 47.3583C78.1133 47.3801 78.1719 47.39 78.2307 47.3876C78.293 47.3904 78.3552 47.3804 78.4143 47.3583C78.4528 47.3441 78.4883 47.3214 78.5189 47.2916C78.5423 47.268 78.5597 47.2379 78.5694 47.2042C78.5769 47.1774 78.5811 47.1496 78.5819 47.1215V46.634C78.5802 46.5896 78.5705 46.5461 78.5533 46.506C78.54 46.4778 78.5214 46.4532 78.4988 46.4338C78.4763 46.4143 78.4503 46.4005 78.4226 46.3933L78.3632 46.3706C78.3388 46.3612 78.318 46.3526 78.299 46.3432L78.0019 46.2319C77.995 46.2267 77.987 46.2235 77.9787 46.2225C77.8539 46.1913 77.7419 46.1143 77.6602 46.0038C77.6015 45.916 77.5697 45.8094 77.5693 45.6997V44.9527C77.5703 44.9054 77.5753 44.8583 77.5842 44.812C77.5976 44.7447 77.6268 44.6825 77.6686 44.6319C77.7246 44.5637 77.7939 44.5109 77.8712 44.4779C78.1147 44.3903 78.3764 44.3903 78.6199 44.4779C78.6971 44.5109 78.7665 44.5637 78.8225 44.6319C78.8638 44.683 78.8928 44.7449 78.9069 44.812C78.9158 44.8583 78.9208 44.9054 78.9218 44.9527V45.0688H78.5842V45.0201C78.5837 44.9904 78.5795 44.961 78.5718 44.9327C78.5621 44.8991 78.5447 44.8689 78.5213 44.8453C78.4907 44.8155 78.4552 44.7928 78.4167 44.7786C78.3576 44.7565 78.2953 44.7466 78.2331 44.7493C78.1743 44.7469 78.1157 44.7569 78.0601 44.7786C78.0216 44.7941 77.9866 44.8192 77.9579 44.852C77.9368 44.8781 77.9213 44.9094 77.9128 44.9434C77.9062 44.9719 77.9026 45.0012 77.9021 45.0307V45.631C77.9037 45.6762 77.9138 45.7205 77.9318 45.761C77.9463 45.7885 77.9656 45.8125 77.9884 45.8316C78.0113 45.8507 78.0373 45.8646 78.0649 45.8724C78.0782 45.8795 78.0919 45.8855 78.1059 45.8904L78.1534 45.9084C78.201 45.9251 78.2556 45.9464 78.318 45.9711C78.3804 45.9958 78.4369 46.0184 78.491 46.0411C78.538 46.0537 78.5836 46.072 78.627 46.0958C78.6733 46.1116 78.716 46.1382 78.7524 46.1738C78.7882 46.2082 78.8197 46.2476 78.8463 46.2912C78.896 46.3731 78.9222 46.4702 78.9212 46.5693V47.1816H78.9188Z" fill="#00587A"/>
<path id="Path 259" d="M79.3097 44.4499H79.6442V47.6878H79.3097V44.4499Z" fill="#00587A"/>
<path id="Path 260" d="M81.3895 47.1356V47.1816C81.3882 47.2294 81.3828 47.277 81.3734 47.3236C81.3596 47.3901 81.3309 47.4516 81.2902 47.5024C81.2335 47.5707 81.1636 47.6234 81.0858 47.6564C80.8423 47.7441 80.5806 47.7441 80.3371 47.6564C80.2598 47.6233 80.1905 47.5706 80.1344 47.5024C80.0929 47.4517 80.0642 47.3896 80.0513 47.3223C80.0421 47.276 80.0367 47.2289 80.0352 47.1816V44.9501C80.0367 44.9027 80.0421 44.8556 80.0513 44.8093C80.0642 44.7421 80.0929 44.6799 80.1344 44.6293C80.1905 44.561 80.2598 44.5083 80.3371 44.4752C80.5806 44.3876 80.8423 44.3876 81.0858 44.4752C81.1636 44.5083 81.2335 44.561 81.2902 44.6293C81.3313 44.6803 81.3599 44.7423 81.3734 44.8093C81.3825 44.8556 81.3879 44.9027 81.3895 44.9501V47.1356ZM81.0507 47.0689H81.0549V45.0681H81.0496V45.0194C81.049 44.9898 81.0448 44.9604 81.0371 44.9321C81.0281 44.8989 81.0117 44.8688 80.9895 44.8447C80.9594 44.8142 80.9237 44.7915 80.885 44.778C80.8252 44.7562 80.7624 44.7463 80.6996 44.7486C80.6404 44.7462 80.5813 44.7561 80.5254 44.778C80.4872 44.7931 80.4528 44.8183 80.425 44.8514C80.4031 44.8771 80.3872 44.9085 80.3787 44.9427C80.3725 44.9713 80.3693 45.0006 80.3692 45.0301V47.1136C80.3693 47.143 80.3725 47.1723 80.3787 47.2009C80.3866 47.2347 80.4027 47.2654 80.425 47.2896C80.4529 47.3223 80.4873 47.347 80.5254 47.3617C80.5813 47.3835 80.6404 47.3935 80.6996 47.391C80.7624 47.3934 80.8252 47.3835 80.885 47.3617C80.9237 47.3482 80.9594 47.3254 80.9895 47.295C81.0117 47.2708 81.0281 47.2408 81.0371 47.2076C81.0446 47.1808 81.0488 47.153 81.0496 47.1249L81.0507 47.0689Z" fill="#00587A"/>
<path id="Path 261" d="M83.1342 47.6898H82.7955V45.0221C82.7949 44.9925 82.7907 44.9631 82.783 44.9347C82.7734 44.9018 82.7571 44.8719 82.7354 44.8474C82.705 44.8163 82.6686 44.7935 82.6291 44.7807C82.5693 44.7586 82.5065 44.7487 82.4437 44.7513C82.3849 44.7489 82.3263 44.7589 82.2708 44.7807C82.2322 44.7961 82.1972 44.8212 82.1685 44.854C82.1472 44.88 82.1317 44.9113 82.1234 44.9454C82.1166 44.9739 82.113 45.0033 82.1127 45.0328V47.6918H81.7793V44.9574C81.781 44.9101 81.786 44.8631 81.7942 44.8167C81.8082 44.7496 81.8373 44.6876 81.8786 44.6366C81.9346 44.5684 82.0039 44.5156 82.0812 44.4826C82.3247 44.395 82.5864 44.395 82.8299 44.4826C82.9072 44.5156 82.9765 44.5684 83.0325 44.6366C83.0743 44.6872 83.1035 44.7494 83.1169 44.8167C83.1261 44.863 83.1314 44.9101 83.133 44.9574V47.6918L83.1342 47.6898Z" fill="#00587A"/>
<path id="Path 262" d="M84.8771 47.6898H84.5396V46.1932C84.5342 46.1932 84.5057 46.2085 84.454 46.2285C84.4023 46.2485 84.3453 46.2726 84.2841 46.2952L84.0464 46.3853C84.0135 46.3941 83.9822 46.409 83.9537 46.4293C83.9294 46.4483 83.9075 46.4707 83.8883 46.496C83.8675 46.5277 83.857 46.5666 83.8586 46.606V47.6871H83.524V44.9527C83.5256 44.9054 83.5309 44.8583 83.5401 44.812C83.5536 44.7449 83.5822 44.6829 83.6233 44.6319C83.68 44.5636 83.7499 44.5109 83.8277 44.4779C84.0712 44.3903 84.3329 44.3903 84.5764 44.4779C84.6537 44.5109 84.723 44.5637 84.7791 44.6319C84.8204 44.6829 84.8494 44.7449 84.8634 44.812C84.8716 44.8584 84.8766 44.9054 84.8783 44.9527L84.8771 47.6898ZM83.9774 46.0338C84.0333 46.0111 84.0892 45.9898 84.1462 45.9671L84.3013 45.9077C84.3277 45.8986 84.3537 45.8879 84.3791 45.8757C84.4068 45.8684 84.4328 45.8547 84.4555 45.8356C84.4782 45.8164 84.4971 45.7921 84.5111 45.7644C84.5286 45.7237 84.5383 45.6794 84.5396 45.6343V45.0221C84.539 44.9924 84.5348 44.963 84.5271 44.9347C84.5174 44.9011 84.5 44.8709 84.4766 44.8473C84.4464 44.817 84.4107 44.7943 84.372 44.7806C84.3129 44.7586 84.2507 44.7487 84.1884 44.7513C84.1296 44.7488 84.071 44.7587 84.0155 44.7806C83.9769 44.7961 83.9419 44.8211 83.9133 44.854C83.8916 44.8799 83.8757 44.9112 83.8669 44.9454C83.8612 44.9741 83.858 45.0033 83.8574 45.0327V46.0838C83.8824 46.0718 83.9216 46.0565 83.9774 46.0338Z" fill="#00587A"/>
<path id="Path 263" d="M86.4464 47.373V47.6891H85.7209C85.6519 47.6911 85.5834 47.6754 85.5206 47.6431C85.4672 47.6137 85.4198 47.5721 85.3816 47.521C85.3449 47.4735 85.3166 47.4184 85.2984 47.3589C85.28 47.3032 85.2703 47.2443 85.2699 47.1849V44.4505H85.6044V47.1142C85.6025 47.1816 85.6238 47.2473 85.6638 47.2976C85.6849 47.323 85.7106 47.3431 85.7393 47.3563C85.7679 47.3696 85.7987 47.3757 85.8296 47.3743H86.4464V47.373Z" fill="#00587A"/>
<path id="Path 264" d="M89.6701 47.6895H89.1948V43.926C89.1943 43.8847 89.1889 43.8437 89.1787 43.804C89.1655 43.7569 89.142 43.7143 89.1104 43.6799C89.0675 43.6365 89.0168 43.6038 88.9618 43.5839C88.8774 43.5534 88.789 43.5394 88.7004 43.5425C88.6172 43.5393 88.5342 43.5534 88.4556 43.5839C88.4012 43.6052 88.3523 43.6408 88.3129 43.6879C88.2815 43.7232 88.2593 43.7675 88.2488 43.816C88.2395 43.8565 88.2345 43.8982 88.2339 43.94V47.6901H87.7633V43.8333C87.7651 43.766 87.7724 43.699 87.7853 43.6332C87.8042 43.5375 87.8452 43.4489 87.9041 43.3765C87.9832 43.2805 88.081 43.2063 88.1899 43.1597C88.5335 43.0376 88.9023 43.0376 89.2459 43.1597C89.3549 43.2067 89.453 43.2808 89.5329 43.3765C89.5914 43.4492 89.6324 43.5377 89.6517 43.6332C89.6648 43.699 89.6726 43.766 89.6749 43.8333V47.6901L89.6701 47.6895Z" fill="#00587A"/>
<path id="Path 265" d="M91.4504 47.6878H90.6707C90.6017 47.6898 90.5332 47.6741 90.4705 47.6418C90.3666 47.5828 90.2872 47.481 90.2488 47.3577C90.2304 47.3019 90.2208 47.243 90.2203 47.1836V44.9534C90.2198 44.8584 90.2429 44.7652 90.2871 44.6842C90.3313 44.6033 90.3948 44.5378 90.4705 44.4952C90.5332 44.4629 90.6017 44.4472 90.6707 44.4492H91.4504V44.7607H90.7818C90.7507 44.7596 90.7198 44.7661 90.6911 44.7798C90.6625 44.7935 90.6369 44.8141 90.6161 44.84C90.5757 44.8925 90.5545 44.9602 90.5566 45.0294V45.8924H91.278V46.2452H90.5549V47.1122C90.553 47.1801 90.5743 47.2461 90.6143 47.297C90.6352 47.3228 90.6608 47.3431 90.6895 47.3566C90.7181 47.3701 90.749 47.3764 90.7801 47.375H91.4486L91.4504 47.6878Z" fill="#00587A"/>
<path id="Path 266" d="M93.116 44.7659H92.6055V47.6877H92.271V44.7639H91.7617V44.4478H93.116V44.7659Z" fill="#00587A"/>
<path id="Path 267" d="M95.7687 47.2482C95.7698 47.334 95.7663 47.4197 95.758 47.505C95.748 47.5695 95.7194 47.6286 95.6766 47.6731C95.6263 47.7277 95.5629 47.7648 95.4942 47.7798C95.4258 47.7976 95.3543 47.7944 95.2874 47.7704C95.2208 47.7458 95.1471 47.7184 95.0681 47.6877L94.8447 47.6004C94.831 47.5944 94.812 47.5864 94.7853 47.5777L94.7258 47.555C94.7115 47.5996 94.6881 47.6398 94.6575 47.6724C94.6072 47.727 94.5438 47.7641 94.4751 47.7791C94.4063 47.7968 94.3344 47.7936 94.2671 47.7698C94.2017 47.7451 94.128 47.7177 94.0508 47.6871C93.9735 47.6564 93.8987 47.6257 93.8292 47.5997C93.8113 47.5937 93.7858 47.5844 93.7513 47.5704C93.7168 47.5564 93.6996 47.549 93.6919 47.5457C93.6606 47.5337 93.6265 47.5183 93.5897 47.4997C93.5527 47.4819 93.5197 47.4552 93.4928 47.4216C93.461 47.3831 93.4365 47.3378 93.4209 47.2882C93.3998 47.2185 93.3901 47.1451 93.3924 47.0715V44.4492H93.7269V46.9601C93.7257 47.0125 93.7374 47.0642 93.7608 47.1095C93.7824 47.1493 93.8111 47.1836 93.8452 47.2102C93.879 47.238 93.9168 47.2592 93.9569 47.2729C93.9979 47.2882 94.0359 47.3036 94.0698 47.3169C94.1305 47.3421 94.1929 47.3615 94.2564 47.3749C94.2898 47.3856 94.3252 47.3856 94.3586 47.3749C94.3701 47.3688 94.38 47.3594 94.3874 47.3478C94.3948 47.3361 94.3994 47.3225 94.4008 47.3083C94.407 47.268 94.4098 47.2271 94.4091 47.1862V44.4518H94.7466V46.9628C94.7454 47.0151 94.7571 47.0669 94.7805 47.1122C94.8021 47.152 94.8308 47.1863 94.8649 47.2129C94.898 47.24 94.9347 47.2612 94.9736 47.2756C95.0146 47.2909 95.0515 47.3063 95.0853 47.3196C95.1464 47.3446 95.2092 47.364 95.2731 47.3776C95.307 47.388 95.3427 47.388 95.3765 47.3776C95.3882 47.3715 95.3983 47.3622 95.4059 47.3505C95.4135 47.3389 95.4183 47.3252 95.4199 47.3109C95.4261 47.2706 95.4289 47.2298 95.4282 47.1889V44.4545H95.7669V47.2556L95.7687 47.2482Z" fill="#00587A"/>
<path id="Path 268" d="M97.5164 47.1356V47.1816C97.515 47.2293 97.51 47.2768 97.5016 47.3236C97.4872 47.3902 97.4582 47.4517 97.4172 47.5024C97.3612 47.5706 97.2918 47.6233 97.2146 47.6564C96.9711 47.7441 96.7093 47.7441 96.4658 47.6564C96.3883 47.6233 96.3185 47.5706 96.262 47.5024C96.221 47.4514 96.1923 47.3894 96.1788 47.3223C96.1695 47.2761 96.1639 47.229 96.1622 47.1816V44.9501C96.1639 44.9027 96.1695 44.8556 96.1788 44.8093C96.1923 44.7423 96.221 44.6803 96.262 44.6293C96.3185 44.561 96.3883 44.5083 96.4658 44.4752C96.7093 44.3876 96.9711 44.3876 97.2146 44.4752C97.2918 44.5083 97.3612 44.561 97.4172 44.6293C97.4585 44.6803 97.4876 44.7422 97.5016 44.8093C97.5098 44.8557 97.5148 44.9028 97.5164 44.9501V47.1356ZM97.1789 47.0689V45.0681V45.0194C97.1784 44.9898 97.1742 44.9604 97.1664 44.9321C97.1569 44.8992 97.1406 44.8692 97.1189 44.8447C97.0879 44.8144 97.0517 44.7917 97.0125 44.778C96.953 44.756 96.8904 44.7461 96.8277 44.7486C96.769 44.7461 96.7103 44.7561 96.6548 44.778C96.6162 44.7934 96.5813 44.8185 96.5526 44.8514C96.5307 44.877 96.5147 44.9084 96.5062 44.9427C96.5007 44.9715 96.4975 45.0007 96.4967 45.0301V47.1136C96.4975 47.1429 96.5007 47.1722 96.5062 47.2009C96.5142 47.2347 96.5302 47.2654 96.5526 47.2896C96.5813 47.322 96.6163 47.3467 96.6548 47.3617C96.7103 47.3836 96.769 47.3935 96.8277 47.391C96.8904 47.3936 96.953 47.3836 97.0125 47.3617C97.0517 47.3479 97.0879 47.3252 97.1189 47.295C97.1406 47.2704 97.1569 47.2405 97.1664 47.2076C97.1739 47.1808 97.1781 47.153 97.1789 47.1249V47.0689Z" fill="#00587A"/>
<path id="Path 269" d="M99.0662 47.6898L98.6348 46.3046L98.5557 46.3379C98.5314 46.3486 98.5106 46.3559 98.4916 46.3626L98.4321 46.3853C98.4007 46.3968 98.3703 46.4115 98.3412 46.4293C98.3159 46.4462 98.294 46.4689 98.277 46.496C98.2579 46.5271 98.247 46.5636 98.2455 46.6014V47.6918H97.9068V44.9574C97.9084 44.91 97.9137 44.8629 97.9229 44.8167C97.9359 44.7494 97.9646 44.6873 98.0061 44.6366C98.0621 44.5684 98.1314 44.5156 98.2087 44.4825C98.4526 44.395 98.7147 44.395 98.9586 44.4825C99.0359 44.5156 99.1052 44.5684 99.1612 44.6366C99.2023 44.6876 99.231 44.7496 99.2444 44.8167C99.2536 44.8629 99.259 44.91 99.2605 44.9574V45.7043C99.2618 45.8103 99.2328 45.914 99.1777 46.0001C99.1226 46.0862 99.0444 46.1501 98.9545 46.1825L99.4239 47.6931L99.0662 47.6898ZM98.3353 46.0445L98.4482 46.0005C98.4874 45.9851 98.5272 45.9698 98.567 45.9531C98.6068 45.9364 98.6419 45.9224 98.6746 45.9118L98.7221 45.8937L98.7655 45.8757C98.7927 45.868 98.8182 45.8542 98.8405 45.835C98.8628 45.8159 98.8813 45.7918 98.895 45.7644C98.9131 45.7255 98.9232 45.6827 98.9248 45.639V45.0221C98.9242 44.9924 98.92 44.963 98.9123 44.9347C98.9028 44.9015 98.886 44.8714 98.8635 44.8473C98.8325 44.8173 98.7963 44.7946 98.7572 44.7807C98.6984 44.7586 98.6366 44.7486 98.5747 44.7513C98.5156 44.7488 98.4565 44.7588 98.4006 44.7807C98.3622 44.7956 98.3276 44.8208 98.2996 44.854C98.2774 44.8795 98.2615 44.911 98.2533 44.9454C98.2469 44.974 98.2437 45.0033 98.2438 45.0328V46.0838L98.3353 46.0445Z" fill="#00587A"/>
<path id="Path 270" d="M100.822 47.6877L100.392 46.3025L100.313 46.3359C100.288 46.3465 100.266 46.3539 100.249 46.3606L100.189 46.3832C100.157 46.3918 100.126 46.4067 100.098 46.4272C100.073 46.4458 100.051 46.4682 100.032 46.4939C100.011 46.526 100.001 46.5646 100.002 46.604V47.6877H99.6645V44.4478H100.002V46.0791L100.092 46.0458L100.203 46.0017L100.322 45.9511C100.363 45.9357 100.398 45.9204 100.43 45.9097L100.527 45.873C100.581 45.8566 100.628 45.8165 100.656 45.7617C100.674 45.7211 100.684 45.6768 100.686 45.6316V44.4478H101.019V45.699C101.021 45.8049 100.992 45.9086 100.937 45.9947C100.881 46.0808 100.803 46.1447 100.713 46.1771L101.184 47.6877H100.822Z" fill="#00587A"/>
<path id="Path 271" d="M102.694 43.1196H103.165V47.6893H102.694V43.1196Z" fill="#00587A"/>
<path id="Path 272" d="M105.071 47.6898H104.732V45.0221C104.732 44.9925 104.727 44.9631 104.72 44.9347C104.711 44.9016 104.694 44.8715 104.672 44.8474C104.642 44.8163 104.605 44.7935 104.566 44.7807C104.506 44.7587 104.444 44.7488 104.381 44.7513C104.322 44.7489 104.264 44.7589 104.208 44.7807C104.169 44.7961 104.134 44.8212 104.106 44.854C104.084 44.88 104.069 44.9113 104.061 44.9454C104.054 44.974 104.051 45.0033 104.051 45.0328V47.6918H103.717V44.9574C103.718 44.9101 103.723 44.8631 103.731 44.8167C103.745 44.7496 103.775 44.6876 103.816 44.6366C103.872 44.5684 103.941 44.5156 104.018 44.4826C104.262 44.395 104.524 44.395 104.767 44.4826C104.845 44.5153 104.914 44.5681 104.97 44.6366C105.012 44.6872 105.041 44.7494 105.054 44.8167C105.063 44.863 105.069 44.9101 105.07 44.9574V47.6918L105.071 47.6898Z" fill="#00587A"/>
<path id="Path 273" d="M108.182 43.5671H107.461V47.6893H106.991V43.5671H106.271V43.1196H108.182V43.5671Z" fill="#00587A"/>
<path id="Path 274" d="M110.008 44.4498V47.6877H109.674V46.2445H108.913V47.6877H108.574V44.4478H108.913V45.891H109.674V44.4478L110.008 44.4498Z" fill="#00587A"/>
<path id="Path 275" d="M111.629 47.6878H110.848C110.779 47.6896 110.712 47.6739 110.649 47.6418C110.596 47.6125 110.549 47.5709 110.51 47.5197C110.473 47.4722 110.445 47.4172 110.426 47.3577C110.409 47.3017 110.399 47.2429 110.399 47.1836V44.9534C110.399 44.8941 110.409 44.8354 110.426 44.7794C110.445 44.7196 110.474 44.6642 110.51 44.616C110.549 44.5657 110.596 44.5246 110.649 44.4953C110.712 44.4632 110.779 44.4475 110.848 44.4492H111.629V44.7607H110.96C110.929 44.7595 110.898 44.7661 110.869 44.7798C110.841 44.7935 110.816 44.8141 110.795 44.84C110.755 44.8925 110.733 44.9602 110.736 45.0295V45.8925H111.456V46.2453H110.736V47.1123C110.734 47.1801 110.755 47.2461 110.795 47.297C110.816 47.3228 110.841 47.3432 110.87 47.3567C110.898 47.3702 110.929 47.3764 110.96 47.375H111.629L111.629 47.6878Z" fill="#00587A"/>
<path id="Path 276" d="M116.29 47.6893H115.817V43.9258C115.817 43.8845 115.812 43.8435 115.801 43.8038C115.788 43.7561 115.764 43.7132 115.731 43.6798C115.687 43.637 115.637 43.6044 115.582 43.5837C115.499 43.5528 115.411 43.5388 115.324 43.5424C115.239 43.539 115.154 43.553 115.074 43.5837C115.02 43.6045 114.971 43.6403 114.933 43.6878C114.905 43.7246 114.884 43.7685 114.874 43.8158C114.865 43.8564 114.86 43.898 114.86 43.9399V47.69H114.385V43.9265C114.384 43.8851 114.378 43.8439 114.367 43.8045C114.354 43.7568 114.33 43.7139 114.297 43.6804C114.254 43.6377 114.203 43.6051 114.148 43.5844C114.065 43.5535 113.978 43.5395 113.89 43.543C113.807 43.5397 113.724 43.5537 113.646 43.5844C113.591 43.6056 113.542 43.6413 113.503 43.6884C113.472 43.7241 113.449 43.7682 113.438 43.8165C113.429 43.8571 113.424 43.8987 113.424 43.9405V47.6906H112.949V43.8338C112.951 43.7665 112.959 43.6995 112.972 43.6337C112.99 43.5378 113.031 43.4492 113.091 43.377C113.172 43.2816 113.271 43.2076 113.381 43.1602C113.55 43.0914 113.729 43.0604 113.909 43.0689C114.057 43.0642 114.205 43.0842 114.347 43.1282C114.445 43.1614 114.538 43.2113 114.622 43.2763C114.709 43.2123 114.804 43.1624 114.903 43.1282C115.046 43.0843 115.193 43.0643 115.341 43.0689C115.521 43.0602 115.7 43.0913 115.869 43.1602C115.978 43.2068 116.077 43.281 116.156 43.377C116.215 43.4497 116.256 43.5381 116.275 43.6337C116.288 43.6995 116.296 43.7665 116.298 43.8338V47.6906L116.29 47.6893Z" fill="#00587A"/>
<path id="Path 277" d="M116.84 44.4499H117.175V47.6878H116.84V44.4499Z" fill="#00587A"/>
<path id="Path 278" d="M118.919 47.0675V47.1849C118.919 47.2444 118.909 47.3032 118.891 47.359C118.873 47.4185 118.844 47.4735 118.808 47.521C118.769 47.5722 118.721 47.6138 118.667 47.6431C118.605 47.6753 118.537 47.6911 118.469 47.6891H117.565V44.4492H118.469C118.533 44.4464 118.597 44.46 118.655 44.4889C118.714 44.5178 118.766 44.5612 118.808 44.6159C118.878 44.711 118.917 44.83 118.919 44.9534V47.0675ZM118.585 45.0668V45.0268C118.587 44.9575 118.566 44.8898 118.525 44.8374C118.505 44.8114 118.479 44.7908 118.45 44.7771C118.422 44.7634 118.391 44.7569 118.36 44.758H117.906V47.373H118.36C118.391 47.3744 118.422 47.3681 118.45 47.3546C118.479 47.3411 118.505 47.3208 118.525 47.295C118.565 47.2441 118.587 47.178 118.585 47.1102V45.0668Z" fill="#00587A"/>
<path id="Path 279" d="M120.664 47.0676V47.185C120.663 47.2444 120.654 47.3033 120.635 47.359C120.617 47.4182 120.588 47.4731 120.552 47.5211C120.511 47.5763 120.459 47.6202 120.4 47.6493C120.342 47.6785 120.278 47.6921 120.214 47.6891H119.31V44.4492H120.214C120.282 44.4475 120.35 44.4632 120.412 44.4953C120.465 44.525 120.513 44.566 120.552 44.616C120.588 44.6646 120.616 44.7199 120.635 44.7794C120.654 44.8351 120.663 44.894 120.664 44.9534V47.0676ZM120.329 45.0668V45.0268C120.331 44.9569 120.309 44.8889 120.267 44.8374C120.247 44.8113 120.221 44.7906 120.193 44.7769C120.164 44.7632 120.133 44.7567 120.102 44.758H119.648V47.373H120.102C120.133 47.3746 120.164 47.3684 120.193 47.3549C120.221 47.3414 120.246 47.3209 120.267 47.295C120.308 47.2446 120.33 47.1785 120.329 47.1103V45.0668Z" fill="#00587A"/>
<path id="Path 280" d="M122.233 47.373V47.6891H121.504C121.44 47.6921 121.376 47.6785 121.317 47.6493C121.259 47.6202 121.207 47.5763 121.165 47.521C121.129 47.4735 121.1 47.4185 121.082 47.3589C121.064 47.3032 121.054 47.2443 121.054 47.1849V44.4505H121.388V47.1142C121.387 47.1822 121.409 47.2481 121.451 47.2976C121.471 47.3231 121.497 47.3431 121.525 47.3563C121.554 47.3696 121.585 47.3757 121.615 47.3743H122.233V47.373Z" fill="#00587A"/>
<path id="Path 281" d="M123.854 47.6878H123.073C123.009 47.6907 122.945 47.6771 122.886 47.648C122.827 47.6188 122.775 47.5749 122.734 47.5197C122.698 47.4722 122.669 47.4171 122.651 47.3577C122.633 47.3019 122.623 47.243 122.623 47.1836V44.9534C122.622 44.8581 122.645 44.7646 122.69 44.6835C122.734 44.6025 122.798 44.5372 122.874 44.4952C122.937 44.463 123.005 44.4472 123.073 44.4492H123.854V44.7607H123.185C123.154 44.7593 123.123 44.7658 123.094 44.7795C123.066 44.7932 123.041 44.8139 123.02 44.84C122.978 44.8915 122.956 44.9596 122.958 45.0294V45.8924H123.679V46.2452H122.958V47.1122C122.957 47.1805 122.979 47.2466 123.02 47.297C123.041 47.3229 123.066 47.3433 123.094 47.3568C123.123 47.3703 123.154 47.3765 123.185 47.375H123.854V47.6878Z" fill="#00587A"/>
<path id="Path 282" d="M126.903 47.6894H125.802C125.712 47.6926 125.622 47.673 125.54 47.632C125.457 47.591 125.384 47.5297 125.326 47.4526C125.227 47.3192 125.172 47.1515 125.17 46.9777V43.8325C125.17 43.7486 125.183 43.6652 125.209 43.5864C125.236 43.5019 125.276 43.4237 125.328 43.3557C125.386 43.2786 125.459 43.2173 125.542 43.1763C125.624 43.1353 125.713 43.1157 125.803 43.1189H126.904V43.5604H125.961C125.918 43.5582 125.874 43.5668 125.834 43.5859C125.794 43.6049 125.758 43.6338 125.728 43.6705C125.67 43.7438 125.639 43.8391 125.641 43.9373V45.153H126.658V45.6512H125.641V46.8744C125.639 46.9708 125.671 47.0644 125.728 47.1358C125.758 47.1725 125.794 47.2014 125.834 47.2204C125.874 47.2394 125.918 47.2481 125.961 47.2459H126.904L126.903 47.6894Z" fill="#00587A"/>
<path id="Path 283" d="M128.807 47.6897H128.469V46.1932C128.464 46.1932 128.435 46.2085 128.384 46.2285C128.332 46.2485 128.275 46.2725 128.214 46.2952L127.976 46.3852C127.944 46.3939 127.913 46.4088 127.885 46.4293C127.86 46.4478 127.838 46.4703 127.819 46.4959C127.798 46.528 127.788 46.5667 127.789 46.606V47.6871H127.455V44.9527C127.456 44.9054 127.461 44.8582 127.47 44.812C127.484 44.7446 127.513 44.6825 127.555 44.6319C127.611 44.5637 127.68 44.5109 127.757 44.4778C128.001 44.3902 128.263 44.3902 128.506 44.4778C128.583 44.5109 128.653 44.5637 128.709 44.6319C128.75 44.6829 128.779 44.7449 128.793 44.812C128.802 44.8582 128.807 44.9054 128.808 44.9527L128.807 47.6897ZM127.908 46.0338C127.964 46.0111 128.021 45.9897 128.078 45.9671L128.233 45.9077C128.279 45.8895 128.305 45.8788 128.311 45.8757C128.338 45.8684 128.364 45.8548 128.386 45.8356C128.409 45.8164 128.428 45.7921 128.441 45.7643C128.459 45.7237 128.469 45.6794 128.47 45.6343V45.022C128.469 44.9924 128.465 44.963 128.457 44.9347C128.448 44.9011 128.43 44.8709 128.407 44.8473C128.377 44.817 128.341 44.7942 128.302 44.7806C128.243 44.7585 128.181 44.7486 128.119 44.7513C128.06 44.7489 128.001 44.7588 127.946 44.7806C127.907 44.7961 127.872 44.8212 127.843 44.854C127.822 44.8799 127.807 44.9113 127.798 44.9453C127.792 44.9739 127.788 45.0032 127.788 45.0327V46.0838C127.811 46.0718 127.848 46.0564 127.908 46.0338Z" fill="#00587A"/>
<path id="Path 284" d="M130.554 47.1815C130.552 47.2294 130.547 47.2769 130.538 47.3236C130.524 47.3903 130.496 47.452 130.454 47.5023C130.398 47.5706 130.329 47.6233 130.252 47.6564C130.008 47.744 129.747 47.744 129.503 47.6564C129.425 47.6233 129.356 47.5706 129.299 47.5023C129.258 47.4513 129.23 47.3893 129.216 47.3223C129.207 47.276 129.201 47.2289 129.199 47.1815V47.0688H129.534V47.1102C129.534 47.1396 129.537 47.1689 129.543 47.1975C129.551 47.2313 129.567 47.262 129.59 47.2862C129.618 47.319 129.653 47.3437 129.692 47.3583C129.748 47.3802 129.806 47.3901 129.865 47.3876C129.927 47.3901 129.989 47.3802 130.049 47.3583C130.087 47.3441 130.123 47.3214 130.153 47.2916C130.177 47.268 130.194 47.2378 130.204 47.2042C130.211 47.1773 130.214 47.1495 130.214 47.1215V46.634C130.213 46.5897 130.204 46.5461 130.187 46.5059C130.173 46.4778 130.155 46.4532 130.132 46.4338C130.109 46.4143 130.083 46.4005 130.055 46.3932L129.996 46.3706C129.972 46.3612 129.951 46.3526 129.933 46.3432L129.636 46.2318C129.629 46.2271 129.621 46.224 129.613 46.2225C129.488 46.192 129.376 46.1149 129.294 46.0037C129.235 45.9162 129.203 45.8096 129.202 45.6996V44.9527C129.203 44.9053 129.209 44.8582 129.218 44.812C129.232 44.7449 129.261 44.6829 129.302 44.6319C129.358 44.5637 129.428 44.511 129.505 44.4778C129.749 44.3902 130.011 44.3902 130.254 44.4778C130.331 44.5109 130.401 44.5636 130.457 44.6319C130.498 44.6826 130.527 44.7447 130.54 44.812C130.549 44.8582 130.554 44.9053 130.556 44.9527V45.0687H130.217V45.02C130.217 44.9905 130.214 44.9611 130.207 44.9327C130.197 44.8991 130.18 44.8689 130.156 44.8453C130.126 44.8155 130.09 44.7928 130.052 44.7786C129.992 44.7567 129.93 44.7468 129.868 44.7493C129.809 44.7467 129.75 44.7567 129.695 44.7786C129.656 44.7937 129.621 44.8188 129.593 44.852C129.571 44.8777 129.555 44.9091 129.546 44.9433C129.54 44.9719 129.537 45.0013 129.537 45.0307V45.6309C129.538 45.6763 129.548 45.7207 129.567 45.761C129.581 45.7886 129.6 45.8128 129.623 45.8319C129.646 45.851 129.672 45.8648 129.7 45.8724C129.713 45.8792 129.726 45.8852 129.739 45.8904L129.787 45.9084C129.836 45.9251 129.89 45.9464 129.952 45.9711C130.015 45.9957 130.071 46.0184 130.125 46.0411C130.172 46.0539 130.218 46.0722 130.261 46.0958C130.308 46.1115 130.35 46.1381 130.387 46.1738C130.422 46.2081 130.454 46.2476 130.481 46.2912C130.53 46.3731 130.556 46.4702 130.555 46.5693V47.1815H130.554Z" fill="#00587A"/>
<path id="Path 285" d="M132.216 44.7659H131.706V47.6877H131.373V44.7639H130.862V44.4478H132.216L132.216 44.7659Z" fill="#00587A"/>
</g>
<g id="Group 641">
<path id="Path 286" d="M161.341 25.7027C160.825 25.6928 160.324 25.5124 159.9 25.184C159.476 24.8556 159.148 24.3939 158.957 23.8569C158.766 23.32 158.72 22.7316 158.826 22.1657C158.932 21.5998 159.185 21.0816 159.552 20.6762C159.919 20.2708 160.385 19.9962 160.891 19.887C161.397 19.7778 161.921 19.8387 162.396 20.0622C162.871 20.2857 163.277 20.6618 163.562 21.1432C163.847 21.6246 164 22.19 164 22.7682C163.993 23.553 163.71 24.3028 163.211 24.8531C162.713 25.4033 162.04 25.7089 161.341 25.7027ZM161.341 20.412C160.927 20.4222 160.525 20.5693 160.185 20.8348C159.846 21.1002 159.583 21.4723 159.431 21.9043C159.279 22.3364 159.244 22.8091 159.331 23.2634C159.417 23.7177 159.621 24.1332 159.917 24.458C160.213 24.7827 160.588 25.0023 160.994 25.089C161.401 25.1758 161.821 25.1259 162.203 24.9457C162.584 24.7655 162.91 24.4629 163.139 24.0759C163.367 23.6889 163.489 23.2347 163.489 22.7702C163.482 22.138 163.252 21.5346 162.849 21.0926C162.446 20.6505 161.904 20.4057 161.341 20.412Z" fill="#00587A"/>
</g>
<g id="Group 642">
<path id="Path 287" d="M161.886 22.9303C162.047 22.8943 162.195 22.8062 162.312 22.6768C162.376 22.6018 162.426 22.5134 162.459 22.4167C162.492 22.32 162.508 22.2169 162.505 22.1133C162.507 21.946 162.466 21.7817 162.386 21.6398C162.316 21.5034 162.207 21.3979 162.076 21.3403C161.892 21.2753 161.699 21.2468 161.506 21.2563H160.264V24.3982H160.576V22.9576H161.052C161.155 22.9514 161.259 22.9538 161.362 22.9649L161.399 22.971C161.463 22.9775 161.524 23.0023 161.577 23.043C161.767 23.2032 161.926 23.406 162.042 23.6384C162.159 23.8709 162.232 24.128 162.255 24.3935C162.255 24.3935 162.319 24.3982 162.57 24.3982C162.515 23.8296 162.271 23.3051 161.886 22.9303ZM161.44 22.7302H160.568V21.5004H161.538C161.717 21.4829 161.895 21.5435 162.036 21.6698C162.088 21.7254 162.129 21.7928 162.156 21.8675C162.184 21.9422 162.196 22.0226 162.194 22.1033C162.195 22.2208 162.167 22.3363 162.113 22.4367C162.059 22.5397 161.975 22.6184 161.875 22.6595C161.735 22.7125 161.587 22.7361 161.44 22.7289V22.7302Z" fill="#00587A"/>
</g>
</g>
</g>
</svg>
